<svg width="129" height="77" viewBox="0 0 129 77" fill="none" xmlns="http://www.w3.org/2000/svg">
<path fill-rule="evenodd" clip-rule="evenodd" d="M127.334 0.677979H120.316L121.143 0.883696C121.327 0.930384 121.324 0.962481 121.134 0.979989C113.709 1.63216 102.978 6.70068 103.241 15.6428C103.329 18.606 105.907 19.5208 108.381 19.8403C109.934 20.0388 111.46 20.2459 112.96 20.4619C115.071 20.7683 116.866 22.2258 115.662 24.585C113.867 28.0865 106.472 27.999 104.016 25.2415C103.876 25.0839 103.775 25.1058 103.714 25.3072L101.884 31.3299C101.834 31.4991 101.894 31.6085 102.063 31.6581C102.933 31.9003 103.82 32.0579 104.725 32.1309C110.062 32.5598 116.424 31.7413 120.924 28.765C123.827 26.8479 126.196 23.3113 125.753 19.7047C125.451 17.2579 123.245 16.1418 120.994 15.7304C119.445 15.4473 117.922 15.211 116.428 15.0213C115.215 14.8725 112.785 14.3166 113.109 12.5614C113.448 10.7319 114.521 9.3327 116.327 8.36393C118.77 7.05522 123.026 6.14043 124.873 8.83227C125.005 9.02485 125.117 9.01464 125.211 8.80163L128.301 1.76784V1.26887C127.832 1.10546 127.378 1.00042 126.94 0.953727C126.321 0.889532 126.323 0.84868 126.944 0.831172C126.982 0.831172 127.112 0.780108 127.334 0.677979ZM94.4015 5.89602L86.3413 18.9C86.3261 18.9238 86.3044 18.9427 86.2788 18.9546C86.2531 18.9665 86.2247 18.9709 86.1967 18.9672C86.1687 18.9635 86.1423 18.952 86.1206 18.9339C86.0989 18.9158 86.0829 18.8919 86.0742 18.865L82.6462 7.83502C82.6351 7.80108 82.6122 7.77225 82.5817 7.75377C82.5512 7.73529 82.515 7.7284 82.4798 7.73435L71.8935 9.43261C71.8705 9.43591 71.8486 9.44454 71.8295 9.45781C71.8104 9.47108 71.7948 9.48863 71.7837 9.50904C71.7726 9.52946 71.7665 9.55218 71.7658 9.57539C71.7651 9.5986 71.7698 9.62165 71.7796 9.64271L79.866 26.8486C79.8801 26.877 79.8847 26.9092 79.8792 26.9405L78.1848 35.957C78.1805 35.9802 78.1817 36.0041 78.1883 36.0267C78.195 36.0493 78.2069 36.0701 78.2232 36.0872C78.2394 36.1043 78.2595 36.1172 78.2818 36.1251C78.304 36.1329 78.3278 36.1353 78.3512 36.1321L87.611 34.7928C87.6418 34.7888 87.6707 34.7753 87.6935 34.7541C87.7162 34.7329 87.7318 34.7051 87.7379 34.6746L89.5505 25.5355C89.5545 25.5133 89.5635 25.4924 89.5768 25.4742L105.215 4.38159C105.233 4.35805 105.243 4.32982 105.245 4.30049C105.246 4.27115 105.239 4.242 105.224 4.21673C105.209 4.19145 105.187 4.17118 105.161 4.15845C105.134 4.14573 105.104 4.14113 105.075 4.14524L94.5022 5.83037C94.4817 5.83371 94.4622 5.84128 94.4449 5.85258C94.4276 5.86389 94.4128 5.87868 94.4015 5.89602ZM69.0258 27.7193C65.4708 36.5432 57.1917 40.2987 48.0545 40.7976C43.6545 41.0384 38.913 39.3795 37.3368 35.0769C36.4933 32.7776 36.3328 30.2506 36.8553 27.496C38.3088 19.8101 44.1361 14.4045 51.4957 12.2379C53.6381 11.6076 55.941 11.1758 58.4045 10.9423C64.2624 10.3865 70.024 12.4612 70.4969 19.1623C70.6953 21.946 70.205 24.7984 69.0258 27.7193ZM51.0185 35.484C57.7083 35.4315 60.3133 27.4873 60.4315 22.1518C60.449 21.2793 60.2812 20.4199 59.928 19.5737C58.3038 15.6957 53.5228 16.79 50.9572 18.8865C47.7305 21.5171 46.6973 25.6927 46.6667 29.8027C46.6448 32.5514 47.8707 35.5103 51.0185 35.484ZM25.91 28.9841C25.9012 28.9724 25.8983 28.9578 25.9012 28.9403C25.9012 28.8878 25.9275 28.8513 25.98 28.8309C28.6025 27.8986 31.7854 25.57 32.2408 22.6594C33.4885 14.6801 22.0353 16.6717 17.8717 17.4376C14.6757 18.0271 10.7704 18.8543 6.15582 19.9194C6.02448 19.9486 5.95297 20.0317 5.94129 20.1689L3.51142 46.2906C3.48224 46.6028 3.62234 46.7327 3.93172 46.6801C6.60677 46.2206 9.29932 45.8135 12.005 45.5903C14.413 45.386 16.9114 45.0767 19.5004 44.6624C24.2375 43.8964 28.9791 42.2069 31.8336 38.3289C33.1295 36.565 33.9614 33.5493 32.7968 31.5446C31.5009 29.3036 28.4843 28.8834 26.0194 29.041C25.9727 29.0439 25.9363 29.0249 25.91 28.9841ZM22.4775 24.3357C22.4863 26.3258 21.5815 27.6579 19.7631 28.3319C18.2745 28.8834 16.5787 29.2 14.6757 29.2817C14.4684 29.2905 14.3809 29.1927 14.413 28.9884C14.7049 27.1793 14.8917 25.4212 14.9734 23.7142C14.9821 23.5099 15.0814 23.3743 15.2711 23.3071C16.9523 22.7206 22.4688 21.1843 22.4775 24.3357ZM22.4075 35.6765C21.9784 39.7514 16.8691 40.3554 13.5111 40.2854C13.3622 40.2796 13.2966 40.2037 13.3141 40.0578L13.9664 33.825C13.9839 33.6645 14.07 33.5638 14.2247 33.523C16.3043 32.9671 22.8365 31.5534 22.4075 35.6765ZM103.07 49.7137C106.319 49.7181 109.475 51.3944 108.915 55.1936C107.807 62.7395 99.5852 65.8909 92.7991 66.5212C91.6962 66.6241 90.5742 66.7175 89.4408 66.8119L89.4407 66.812L89.4405 66.812C86.138 67.087 82.74 67.37 79.4414 67.9175C79.42 67.9216 79.3979 67.9204 79.3771 67.9139C79.3562 67.9073 79.3374 67.8958 79.3222 67.8801C79.3069 67.8645 79.2959 67.8453 79.2899 67.8243C79.284 67.8033 79.2834 67.7812 79.2882 67.7599L84.8265 39.7517C84.8563 39.5996 84.9299 39.4596 85.038 39.3492C85.1462 39.2387 85.2843 39.1625 85.4351 39.1302C88.958 38.3832 92.2037 37.7339 95.1721 37.1824C97.2969 36.7856 99.5108 36.523 101.814 36.3946C104.87 36.2239 109.278 36.841 109.48 40.8328C109.686 44.8202 106.419 48.0461 103 49.3504C102.373 49.5897 102.396 49.7108 103.07 49.7137ZM91.9454 49.6174C95.2903 49.4511 99.0423 48.9783 99.8085 45.0653C100.583 41.1173 95.3822 42.4961 93.3245 43.1482C93.1318 43.2095 93.0151 43.3394 92.9742 43.5378L91.7615 49.4029C91.7294 49.5546 91.7907 49.6261 91.9454 49.6174ZM98.4688 56.301C98.7971 53.9637 96.4592 53.4078 94.708 53.5523C93.5551 53.6486 92.2956 53.8339 90.9296 54.1082C90.8187 54.1315 90.7516 54.1986 90.7282 54.3095L89.3141 61.12C89.2762 61.3039 89.352 61.3987 89.5418 61.4046C93.3945 61.514 97.834 60.7962 98.4688 56.301ZM64.8447 64.7563C63.4393 65.2553 58.6452 66.389 59.1793 63.2244C60.3439 56.3322 61.5173 49.4268 62.6994 42.5082C62.7256 42.3536 62.6629 42.2865 62.5111 42.3069L53.5315 43.5718C53.3652 43.5981 53.2689 43.6929 53.2426 43.8563C52.1305 50.8478 51.055 57.6452 50.0159 64.2486C48.628 73.077 62.047 70.8797 66.5696 69.6586C71.1054 68.433 75.3303 65.7762 76.2847 60.8346C77.5135 54.488 78.8474 47.5549 80.2864 40.0353C80.3097 39.9069 80.2572 39.8514 80.1287 39.8689L71.0747 41.1164C70.9317 41.1368 70.8471 41.2185 70.8208 41.3615C69.5512 48.4697 68.4158 54.7608 67.4146 60.235C67.3974 60.3292 67.3805 60.4223 67.3638 60.5145C66.9944 62.5548 66.7171 64.0863 64.8447 64.7563ZM46.5135 66.6612L45.7342 71.8786C45.7295 71.9113 45.714 71.9416 45.6903 71.9646C45.6665 71.9875 45.6357 72.002 45.6028 72.0055L26.9432 74.2684C26.921 74.2705 26.8986 74.2677 26.8777 74.26C26.8568 74.2523 26.8378 74.24 26.8223 74.2241C26.8067 74.2081 26.795 74.1889 26.7879 74.1678C26.7808 74.1466 26.7785 74.1242 26.7812 74.1021L30.3012 46.9255C30.3048 46.8926 30.3192 46.8619 30.3422 46.8381C30.3652 46.8143 30.3954 46.7989 30.4282 46.7942L39.4559 45.5205C39.4792 45.5167 39.503 45.5185 39.5255 45.5258C39.5479 45.533 39.5683 45.5455 39.585 45.5622C39.6017 45.5788 39.6141 45.5992 39.6214 45.6217C39.6286 45.6441 39.6304 45.6679 39.6267 45.6912L36.5313 67.5498C36.5285 67.5723 36.5308 67.5952 36.5382 67.6166C36.5455 67.6381 36.5577 67.6576 36.5737 67.6737C36.5898 67.6897 36.6093 67.7019 36.6308 67.7092C36.6523 67.7166 36.6752 67.7189 36.6977 67.7161L46.3471 66.4949C46.3696 66.4921 46.3925 66.4944 46.414 66.5017C46.4355 66.5091 46.455 66.5213 46.4711 66.5373C46.4871 66.5534 46.4993 66.5729 46.5066 66.5944C46.514 66.6158 46.5163 66.6387 46.5135 66.6612ZM8.99273 76.399H15.9496C15.5585 76.2706 15.1615 76.2342 14.7587 76.2896C14.6945 76.2984 14.661 76.2706 14.658 76.2064V76.2021C14.658 76.1379 14.6887 76.1058 14.75 76.1058C17.263 75.9978 19.725 75.3821 22.1359 74.2587C22.2571 74.2028 22.3614 74.1154 22.4383 74.0055C22.5152 73.8956 22.5619 73.767 22.5737 73.6328L23.0728 67.9777C23.0903 67.7793 23.0247 67.7472 22.8758 67.8814C20.7218 69.8336 16.4443 71.9652 13.6511 70.7396C11.9348 69.9838 10.9177 68.6226 10.5995 66.6559C9.95154 62.6437 11.0855 59.0823 14.0013 55.9717C16.4487 53.3674 21.3916 52.0762 24.1236 55.1445C24.2929 55.3312 24.4125 55.3035 24.4826 55.0613L26.3915 48.5002C26.4382 48.3368 26.3842 48.2216 26.2295 48.1545C25.421 47.7926 24.6314 47.5927 23.8609 47.5548C17.8541 47.2455 12.5668 48.6797 7.99889 51.8574C4.26872 54.4529 1.54114 58.4491 1.16024 62.9311C1.15732 62.9574 1.14273 62.9705 1.11646 62.9705H1.11208C1.0683 62.9676 1.04641 62.9442 1.04641 62.9005C1.05225 62.6116 1.00263 62.3315 0.897552 62.0601V68.6299C0.979278 68.6328 1.02014 68.5219 1.02014 68.2973C1.01722 68.1572 1.03765 68.0171 1.08143 67.8771C1.14565 67.6816 1.18651 67.6874 1.20402 67.8946C1.6287 72.6523 5.31509 75.8694 9.95154 76.1277C9.99241 76.1277 10.0128 76.1481 10.0128 76.1889V76.1933C10.0099 76.2312 9.98949 76.2502 9.95154 76.2502C9.62464 76.256 9.30504 76.3056 8.99273 76.399Z" fill="black"/>
</svg>
