<?xml version="1.0" encoding="UTF-8"?><svg id="Layer_2" xmlns="http://www.w3.org/2000/svg" viewBox="0 0 360.08 360.1"><defs><style>.cls-1{stroke-width:0px;}</style></defs><g id="Layer_1-2"><path class="cls-1" d="M175.4,175.65c.33.04.68,0,1.02.03.86.06,1.42-.31,1.77-1.11.53-1.21,1.12-2.38,1.66-3.58.68-1.52.44-1.88-1.2-1.88-1.46,0-1.73.17-2.32,1.49-.32.72-.65,1.44-.98,2.16-.24.55-.51,1.09-.71,1.66-.28.79-.07,1.13.76,1.23ZM182.76,148.96c2.33,0,4.67-.03,7,.01,1.07.02,2.08-.34,3.12-.41,1.03-.07,1.79-.42,2.5-1.09,3.34-3.1,6.71-6.17,10.05-9.27,3.8-3.55,7.59-7.11,11.37-10.69,4.49-4.25,8.98-8.5,13.45-12.77,3.41-3.26,6.82-6.51,10.16-9.84,5.88-5.85,11.84-11.63,17.33-17.86,3.79-4.3,7.45-8.7,10.58-13.52,1.59-2.45,2.83-5.04,3.53-7.9.36-1.49.76-3,1.32-4.42,1.22-3.07,3.02-5.82,5.1-8.37,2.12-2.59,4.32-5.13,6.56-7.62,2.95-3.28,5.93-6.53,8.97-9.72,1.79-1.88,3.7-3.65,5.63-5.41,2-1.83,4.08-3.58,6.43-4.97.88-.52,1.79-.97,2.83-1.07,1.02-.1,1.56.54,1.27,1.52-.08.29-.19.58-.34.83-.86,1.46-1.66,2.96-2.63,4.35-3.25,4.68-6.82,9.11-10.55,13.41-.44.51-.83,1.05-1.35,1.73.49.18.81.39,1.14.41.98.05,1.96.05,2.94,0,.92-.04,1.73-.38,2.42-1.05,2.45-2.41,4.92-4.78,7.39-7.17,2.71-2.63,5.41-5.26,8.11-7.89,4.32-4.21,8.65-8.42,12.97-12.63,2.35-2.29,4.67-4.61,7.03-6.9,1.7-1.66,3.43-3.28,5.15-4.93.52-.5,1.04-.99,1.51-1.53.2-.23.42-.63.35-.86-.06-.2-.53-.28-.82-.41-.06-.03-.15,0-.22,0-1.28,0-2.57.02-3.85,0-.76-.01-1.4.23-1.93.77-.8.8-1.57,1.63-2.37,2.43-1.15,1.14-2.3,2.28-3.47,3.4-.21.2-.52.31-.78.47l-.2-.18c.14-.41.25-.83.42-1.23.36-.79.79-1.55,1.13-2.34.54-1.28,1.14-2.55,1.07-4-.05-1.15-.58-1.8-1.69-2.08-1.38-.36-2.68.01-3.98.4-2.67.79-5.05,2.18-7.31,3.77-6.89,4.85-13.14,10.47-19.25,16.24-2.55,2.41-4.98,4.94-7.38,7.5-3.01,3.21-5.99,6.47-8.89,9.78-6.98,7.96-13.69,16.15-20,24.66-4.09,5.51-8.08,11.09-11.52,17.04-1.85,3.2-3.59,6.45-4.78,9.97-.88,2.62-2.23,5.02-3.83,7.28-1.95,2.74-4.18,5.25-6.55,7.62-5.68,5.68-11.41,11.31-17.16,16.93-1.51,1.47-3.12,2.84-4.69,4.24-.31.28-.7.48-1.05.72-.07-.07-.14-.14-.22-.2.22-.37.41-.76.67-1.1.79-1.06,1.57-2.12,2.41-3.14,2.88-3.53,5.79-7.04,8.68-10.57.29-.36.78-.7.46-1.27-.19-.33-1-.38-1.58-.09-.3.15-.57.37-.81.6-.25.23-.44.51-.66.77-3.91,4.64-7.81,9.28-11.73,13.91-.42.5-.97.9-1.47,1.35-.69-.62-.75-1.19-.35-1.82.2-.32.42-.62.66-.92,7.38-9.3,14.75-18.59,22.13-27.89,10.1-12.72,20.19-25.44,30.28-38.17,6.7-8.44,13.38-16.89,20.08-25.34,1.31-1.65,2.64-3.29,3.94-4.95.67-.86,1.46-1.39,2.6-1.27.45.05.91-.03,1.36.01,1.18.12,1.96-.42,2.69-1.31,5.42-6.61,10.88-13.19,16.33-19.78.24-.29.49-.58.69-.89.39-.62.2-1.01-.51-1.07-.52-.05-1.06-.05-1.58-.05-9.43,0-18.87,0-28.3,0-.98,0-1.96.03-2.94,0-.97-.03-1.6.38-2.1,1.22-2.16,3.63-4.37,7.23-6.56,10.84-5.53,9.12-11.06,18.24-16.58,27.37-.7,1.16-1.4,2.33-2.04,3.52-.34.63-.2.95.5,1,1.42.11,2.85.12,4.28.1.86-.01,1.41-.55,1.88-1.26,2-3.06,4.03-6.11,6.05-9.16,1.83-2.77,3.67-5.53,5.5-8.3.46-.69.99-1.21,1.9-1.21,2.41,0,4.83-.12,7.23-.02,1.69.07,1.82.49.79,1.91-2,2.74-4.02,5.47-6.03,8.2-6.73,9.14-13.47,18.26-20.18,27.42-.69.94-1.49,1.4-2.66,1.37-1.81-.04-3.62.05-5.43-.03-1.12-.05-1.83.39-2.42,1.31-3.41,5.29-6.86,10.56-10.29,15.84-.68,1.04-1.37,2.08-2.01,3.15-.47.8-.25,1.18.7,1.22.94.04,1.89,0,2.83.01.26,0,.53-.02.79.02.81.14,1.02.56.6,1.27-.26.45-.59.88-.9,1.3-6.68,9.08-13.37,18.15-20.06,27.23-1.41,1.91-2.84,3.81-4.22,5.74-.69.96-1.62,1.18-2.69,1-.64-.11-.83-.47-.57-1.06.17-.38.4-.72.63-1.07,3.32-5.03,6.66-10.07,9.97-15.1.26-.39.44-.83.67-1.29-.33-.17-.51-.32-.72-.37-1.35-.34-2.11.05-2.95,1.44-3.72,6.17-7.44,12.33-11.17,18.49-.32.53-.67,1.08-1.29,1.33-.87-1.02-.92-1.35-.32-2.44,1.52-2.73,3.06-5.46,4.57-8.19,5.63-10.15,11.24-20.31,16.87-30.46,3.44-6.19,6.91-12.37,10.35-18.56,3.5-6.29,6.98-12.59,10.47-18.89,3.62-6.52,7.22-13.06,10.87-19.57,1.17-2.09.92-2.33,3.78-2.2,1.48.07,2.46-.43,3.05-1.77.03-.07.08-.13.12-.19,2.36-4.03,4.73-8.06,7.09-12.09,1.49-2.53,2.99-5.06,4.45-7.61.58-1,.36-1.35-.76-1.43-.19-.01-.38-.02-.57-.02-10.57,0-21.13,0-31.7,0-1.58,0-1.87.22-2.4,1.68-1.9,5.16-3.8,10.32-5.69,15.49-2.65,7.21-5.29,14.43-7.93,21.64-.49,1.34-.98,2.69-1.43,4.05-.24.73-.1.92.62,1.12.15.04.29.11.44.11,1.24,0,2.49.05,3.73,0,.89-.04,1.55-.48,1.84-1.39.16-.5.4-.98.6-1.46,2.17-5.1,4.38-10.17,6.47-15.3.54-1.34,1.35-1.89,2.69-1.89,2.08,0,4.15-.06,6.23.02,2.17.08,2.12.61,1.31,2.23-3.64,7.24-7.26,14.49-10.88,21.74-2.22,4.45-4.45,8.9-6.61,13.38-.55,1.14-1.31,1.63-2.56,1.59-1.81-.06-3.62-.02-5.43-.01-1.26,0-1.55.21-2.02,1.38-.34.84-.67,1.68-1.02,2.51-1.86,4.49-3.72,8.98-5.58,13.47-.4.97-.81,1.95-1.16,2.94-.25.71,0,1.08.7,1.18.26.04.53.02.79.02.98,0,1.96-.03,2.94,0,1.19.04,1.46.51.98,1.6-.03.07-.07.14-.1.2-1.27,2.57-2.53,5.14-3.81,7.7-4.04,8.09-8.09,16.19-12.14,24.28-.29.57-.56,1.16-.87,1.71-.57,1.01-1.67,1.42-2.71,1.04-.48-.17-.69-.54-.56-1.06.05-.22.13-.43.22-.64,2.08-4.89,4.16-9.77,6.24-14.66.22-.52.46-1.04.59-1.59.06-.24-.05-.64-.22-.79-.77-.64-2.5-.15-2.89.8-.36.87-.68,1.76-1.01,2.64-1.99,5.41-3.97,10.82-5.97,16.23-.19.51-.49.99-.79,1.57-1.16-.79-1.52-1.63-1.04-2.75.06-.14.1-.28.15-.43,1.16-3.62,2.32-7.24,3.47-10.87,1.19-3.73,2.36-7.47,3.55-11.2,1.15-3.63,2.29-7.25,3.44-10.88.76-2.41,1.51-4.81,2.28-7.22,1.14-3.59,2.29-7.17,3.43-10.76.81-2.55,1.62-5.09,2.43-7.64,1.22-3.84,2.43-7.68,3.65-11.52,1.1-3.48,2.21-6.96,3.31-10.45,1.09-3.45,2.19-6.89,3.29-10.33.54-1.69,1.07-3.38,1.6-5.06.28-.9.87-1.37,1.85-1.33.56.02,1.13,0,1.7-.02,1.24-.04,1.48-.21,1.89-1.37,1.47-4.15,2.94-8.31,4.39-12.47.95-2.7,1.88-5.4,2.81-8.11.31-.92.07-1.26-.87-1.33-.26-.02-.53,0-.79,0-6.83,0-13.66,0-20.49,0-2.03,0-3.95.48-5.78,1.34-3.18,1.49-5.48,3.95-7.41,6.8-3.52,5.2-5.78,11-7.76,16.9-1.83,5.46-3.18,11.07-4.14,16.75-.33,1.93-.68,3.85-.94,5.79-.39,2.91-.73,5.82-1.07,8.73-.27,2.39-.53,4.78-.74,7.18-.19,2.21-.32,4.43-.46,6.64-.23,3.64-.49,7.28-.67,10.92-.19,3.87-.31,7.75-.46,11.62-.08,2.11-.17,4.21-.22,6.32-.09,4.03-.15,8.07-.23,12.1-.07,3.09-.15,6.18-.23,9.27-.03,1.13-.02,2.26-.09,3.39-.18,2.89-.4,5.78-.58,8.66-.12,1.99-.12,3.99-.34,5.97-.24,2.16,0,4.28.27,6.4.13,1.06.43,1.26,1.49,1.26ZM185.77,109.22c.12-2.33.16-4.67.33-6.99.21-3,.53-5.99.78-8.98.1-1.16.14-2.33.25-3.49.23-2.47.47-4.94.74-7.41.34-3.1.68-6.2,1.08-9.29.44-3.43.88-6.86,1.42-10.28.86-5.51,2.04-10.95,3.58-16.31,1.27-4.43,2.87-8.73,5.23-12.72,1.23-2.08,2.77-3.85,5.03-4.88,1.18-.54,2.41-.83,3.72-.82,1.4,0,2.79-.01,4.19,0,1.19.02,1.48.36,1.35,1.52-.03.26-.11.51-.17.77-1.62,6.23-3.24,12.46-4.87,18.69-1.1,4.22-2.23,8.44-3.33,12.67-1.5,5.75-2.99,11.51-4.49,17.27-1.18,4.52-2.36,9.03-3.54,13.55-1.32,5.03-2.64,10.05-3.95,15.07-1.33,5.1-2.63,10.2-3.95,15.3-.05.18-.11.36-.18.54-.38.97-1.39,1.27-2.17.56-.34-.31-.59-.78-.77-1.22-.63-1.57-.78-3.21-.71-4.89.01-.26,0-.53,0-.79-.01,0-.02,0-.04,0,.16-2.63.34-5.25.48-7.88ZM350.45,143.28c-4.26-1.29-8.66-1.6-13.06-1.61-3.23,0-6.46.27-9.69.46-1.39.08-2.77.23-4.15.39-2.02.24-4.03.47-6.04.79-2.38.37-4.75.79-7.11,1.26-1.14.22-1.35.55-1.37,1.72-.02,1.28-.02,2.57,0,3.85.02,1.2.3,1.47,1.47,1.47,2,0,4-.04,6,.01,2.41.06,4.81.14,7.18.69,1.58.37,3.16.75,4.57,1.59,1.44.86,2.57,1.93,2.8,3.73.23,1.85-.37,3.41-1.47,4.82-1.55,1.98-3.66,3.24-5.89,4.27-3.91,1.82-8.05,2.94-12.26,3.81-4.09.84-8.2,1.54-12.36,1.95-4,.39-8,.78-12.01,1.08-3.04.23-6.08.34-9.13.46-2.79.11-5.57.22-8.36.22-5.24,0-10.48-.07-15.72-.15-2.26-.04-4.51-.17-6.77-.29-2.06-.11-4.13-.22-6.19-.42-1.42-.14-2.83-.4-4.23-.64-.5-.08-1.18-.1-1.21-.78-.02-.57.6-.72,1.04-.9,3.05-1.2,6.08-2.44,9.16-3.57,3.25-1.19,6.55-2.26,9.83-3.39,1.28-.44,1.48-.71,1.5-1.91.03-1.58-.15-1.74-1.7-1.32-2,.54-3.99,1.11-5.98,1.68-4.38,1.24-8.76,2.5-13.14,3.73-.71.2-1.43.49-2.26.2.24-1.32.85-2.15,2.13-2.44.8-.19,1.58-.51,2.36-.77,6.47-2.15,12.93-4.31,19.4-6.46,4.32-1.44,8.65-2.85,12.98-4.29,3.61-1.2,7.21-2.41,10.82-3.61,5.33-1.77,10.66-3.52,15.98-5.29,3.54-1.17,7.07-2.37,10.61-3.54,6.48-2.13,12.96-4.24,19.44-6.35,1.65-.54,3.29-1.08,4.95-1.59.89-.27,1.25,0,1.33.94.05.64.03,1.28.09,1.92.06.69.27.85.94.81.19-.01.37-.05.55-.11,2.02-.59,4.04-1.19,6.06-1.79,2.81-.84,5.63-1.67,8.44-2.52,1.95-.59,3.89-1.17,5.83-1.79,1.01-.32,1.16-.57,1.21-1.63,0-.15,0-.3,0-.45,0-10.38,0-20.75,0-31.13,0-.34,0-.68-.05-1.02-.09-.64-.41-.83-1.01-.63-.21.07-.42.17-.62.27-7.3,3.77-14.59,7.55-21.89,11.31-5.06,2.61-10.12,5.21-15.18,7.82-1.34.69-2.65,1.44-4.01,2.09-.99.47-1.34,1.25-1.35,2.27-.01.94-.04,1.89,0,2.83.09,1.96.51,1.93,2.02,1.23,4.89-2.27,9.78-4.52,14.67-6.77.38-.17.75-.36,1.14-.5.88-.33,1.3-.07,1.39.84.02.15.01.3.01.45,0,2.19-.02,4.38.01,6.56.02,1.02-.41,1.63-1.35,1.97-.95.35-1.89.74-2.84,1.11-3.83,1.48-7.66,2.97-11.48,4.45-3.62,1.4-7.23,2.81-10.84,4.22-3.79,1.48-7.57,2.97-11.37,4.43-4.71,1.81-9.44,3.57-14.15,5.39-5.34,2.06-10.67,4.16-16,6.24-5.58,2.17-11.16,4.33-16.75,6.5-3.76,1.46-7.51,2.93-11.28,4.35-.5.19-1.18.34-1.62.14-.76-.35-1.36-.19-2.04.09-2.05.87-4.1,1.71-6.15,2.58-4.58,1.93-9.17,3.86-13.74,5.81-1.36.58-1.55,1.15-1.01,2.49.21.53.53.78,1.12.7.25-.03.51.03.77.06-.3.35-.61.46-.9.6-.3.15-.63.29-.84.53-.17.2-.3.57-.23.8.07.22.4.45.65.5.63.11,1.27.16,1.91.18,3.84.09,7.69.13,11.53.24,3.72.11,7.44.29,11.17.44,3.87.15,7.75.3,11.62.46,1.84.08,3.68.17,5.53.26,2.52.13,5.03.3,7.55.41,2.41.11,4.82.16,7.23.23,3.77.11,7.53.29,11.3.29,8.33,0,16.65.11,24.98-.38,4.1-.24,8.18-.59,12.24-1.09,5.26-.64,10.47-1.67,15.61-3.03,5.31-1.41,10.36-3.45,15.21-5.99,3.05-1.59,5.92-3.47,8.27-6.04,2.52-2.76,3.99-5.91,3.51-9.75-.25-1.96-1-3.69-2.38-5.14-1.9-2.01-4.31-3.12-6.9-3.9ZM314.3,54.7c-2.63,2.7-5.25,5.41-7.83,8.16-3.6,3.85-7.21,7.7-10.72,11.64-5.68,6.4-11.11,13-16.17,19.91-.52.72-1.17,1.4-1.91,1.89-5.58,3.77-10.67,8.13-15.45,12.85-3.6,3.54-7.08,7.21-10.62,10.82-2.59,2.64-5.19,5.27-7.78,7.9-1.43,1.45-2.85,2.91-4.26,4.38-2.19,2.29-4.36,4.6-6.56,6.87-2.04,2.11-4.14,4.17-6.17,6.3-3.93,4.12-7.83,8.26-11.73,12.41-1.06,1.12-2.08,2.28-3.09,3.45-.62.71-.98,1.5-.7,2.49.09.32.12.69.04,1.01-.21.85-.02,1.46.96,1.71-.25.35-.47.61-.63.9-.14.26-.28.54-.31.83-.07.59.26.84.82.66.32-.1.62-.26.93-.42,3.77-1.9,7.54-3.8,11.31-5.7,2.86-1.44,5.72-2.88,8.59-4.3.67-.33,1.22-.73,1.47-1.47.21-.61.73-.93,1.27-1.22,3.89-2.07,7.78-4.15,11.67-6.22,6.95-3.69,13.92-7.37,20.87-11.06,4.73-2.51,9.45-5.02,14.17-7.55,5.19-2.77,10.37-5.55,15.55-8.33,5.88-3.16,11.77-6.28,17.61-9.5,7.77-4.28,15.32-8.9,22.45-14.18,5.65-4.18,10.97-8.73,15.61-14.03,2.05-2.34,3.81-4.86,4.94-7.79.66-1.7,1.04-3.47,1.04-5.28,0-2.16-.92-3.5-2.78-4.03-.85-.25-1.8-.42-2.66-.32-1.67.21-3.34.56-4.97.99-4.81,1.28-9.19,3.56-13.52,5.95-5.82,3.21-11.34,6.9-16.68,10.85-10.31,7.61-20.58,15.28-30.86,22.93-7.83,5.83-15.63,11.7-23.47,17.53-7.86,5.85-15.75,11.67-23.63,17.5-1.79,1.32-3.58,2.64-5.36,3.97-.68.51-1.35.6-2.13-.03.17-.39.36-.68.43-1,.25-1.28,1.12-2.08,2.09-2.84,2.07-1.63,4.13-3.28,6.16-4.96,5.55-4.58,11.08-9.18,16.62-13.76,9.78-8.1,19.55-16.19,29.33-24.29,9.84-8.14,19.67-16.28,29.51-24.43,4.76-3.94,9.51-7.89,14.28-11.81.41-.34.82-.94,1.45-.66.59.26.34.93.44,1.43.09.46-.16,1.15.4,1.29.36.09.92-.24,1.27-.52,6.64-5.27,13.26-10.57,19.91-15.83.94-.74,1.36-1.56,1.35-2.79-.05-6.34-.03-12.68-.02-19.02,0-.79.06-1.58.15-2.36.3-2.58-.94-3.72-3.46-3.16-.15.03-.29.07-.44.11-2.37.67-4.62,1.63-6.68,2.99-6.77,4.5-12.87,9.84-18.67,15.51-4.55,4.46-8.97,9.06-13.42,13.62ZM234.59,150.51c.19-.5.8-.88,1.29-1.22,5.28-3.63,10.58-7.23,15.87-10.86,6.81-4.68,13.6-9.37,20.4-14.05,7.01-4.84,14.03-9.67,21.04-14.51,6.33-4.36,12.65-8.75,19.01-13.08,3.77-2.56,7.67-4.94,11.78-6.93,1.59-.77,3.23-1.45,4.91-2.01.98-.33,2.06-.43,3.1-.45,1.46-.03,2.1.89,1.71,2.31-.51,1.87-1.58,3.41-2.92,4.77-3.73,3.76-7.93,6.95-12.29,9.94-6,4.12-12.33,7.71-18.59,11.42-10.25,6.07-20.5,12.13-30.76,18.17-11.01,6.48-22.02,12.95-33.03,19.42-.53.31-1.06.59-1.7.5-.73-.1-1.32.21-1.91.57-4.69,2.87-9.38,5.76-14.08,8.61-1.71,1.04-3.46,2-5.19,3-.11.07-.24.11-.37.16-.04-.06-.07-.12-.11-.18.67-.51,1.32-1.05,2.02-1.52,5.94-4.01,11.88-8,17.82-12,.81-.54,1.62-1.04,2-2.06ZM268.4,112.71c-3.42,3.01-6.83,6.02-10.23,9.04-4.14,3.67-8.27,7.34-12.42,11-3.25,2.86-6.52,5.69-9.78,8.53-.35.31-.77.78-1.26.33-.43-.39-.23-.95.07-1.34.68-.9,1.37-1.79,2.14-2.61,2.11-2.25,4.24-4.49,6.41-6.69,2.51-2.55,5.04-5.09,7.62-7.57,4.39-4.23,8.74-8.51,13.53-12.3.86-.68,1.74-1.31,2.64-1.94.3-.21.65-.41,1-.51.78-.24,1.23.09,1.3.91.02.26,0,.53,0,.95.19.86-.28,1.57-1.01,2.21ZM330.73,48.47c1.16-.27,1.93.33,2.05,1.49.1.93.14,1.87.21,2.81-.01,0-.03,0-.04,0,0,.3,0,.6,0,.91.05,1.41-.49,2.45-1.6,3.4-3.78,3.23-7.46,6.56-11.19,9.85-4.14,3.67-8.29,7.33-12.44,10.99-3.72,3.29-7.44,6.59-11.16,9.89-1.04.92-2.07,1.86-3.14,2.75-.26.21-.69.36-.99.3-.18-.04-.34-.53-.38-.84-.28-1.99.25-3.79,1.3-5.48,1.61-2.57,3.56-4.86,5.51-7.16,3.98-4.68,8.2-9.15,12.62-13.41,3.88-3.74,7.66-7.58,11.93-10.89,1.75-1.36,3.62-2.58,5.47-3.81.55-.37,1.2-.66,1.85-.8ZM174.88,188.3c-.57,1.26-.34,1.61,1.07,1.64.08,0,.15,0,.46,0,.95.23,1.63-.35,2.03-1.4.05-.14.13-.27.2-.41,2.38-5.2,4.76-10.4,7.13-15.6.36-.79.68-1.59,1.03-2.38.22-.49.01-.82-.43-.99-1.42-.55-2.8.07-3.43,1.48-.91,2.02-1.84,4.04-2.76,6.06-1.76,3.87-3.53,7.73-5.29,11.6ZM175.64,211.15c-.49,0-.98.07-1.47.07-2.92.01-5.86-.38-8.76.38-.07.02-.15.01-.23,0-.7-.08-1.23.22-1.73.67-1.65,1.49-3.33,2.94-4.96,4.45-4.3,4.01-8.58,8.04-12.86,12.07-3.43,3.23-6.86,6.46-10.27,9.7-3.39,3.22-6.77,6.45-10.14,9.69-2.42,2.32-4.85,4.64-7.23,7.01-5.89,5.89-11.89,11.69-17.4,17.95-3.79,4.3-7.44,8.7-10.56,13.53-1.67,2.59-2.98,5.32-3.56,8.37-.13.7-.33,1.39-.55,2.07-1,3.12-2.61,5.93-4.56,8.54-4.32,5.82-9.32,11.05-14.25,16.34-2.57,2.75-5.31,5.35-8.05,7.94-2,1.89-4.12,3.65-6.51,5.05-.84.5-1.71.94-2.72,1.05-1.14.12-1.73-.54-1.38-1.62.07-.21.17-.42.29-.61,1.17-1.89,2.26-3.83,3.53-5.65,3.15-4.47,6.63-8.68,10.2-12.82.28-.32.47-.71.79-1.21-.49-.14-.8-.3-1.11-.31-.98-.03-1.96-.05-2.94,0-.88.05-1.67.32-2.33.99-1.11,1.13-2.27,2.2-3.41,3.31-2.6,2.52-5.2,5.04-7.79,7.57-4.35,4.24-8.7,8.47-13.05,12.71-2.37,2.32-4.73,4.66-7.1,6.98-1.56,1.53-3.15,3.04-4.72,4.56-2.03,1.97-4.06,3.94-6.08,5.92-.25.24-.39.59-.69,1.05.53.13.87.28,1.22.28,1.36.03,2.72,0,4.07.02.73,0,1.32-.27,1.82-.77.8-.8,1.57-1.63,2.37-2.43,1.15-1.14,2.3-2.28,3.48-3.4.22-.21.52-.33.79-.49.07.06.13.11.2.17-.09.31-.14.63-.28.91-.41.89-.88,1.75-1.27,2.65-.54,1.24-1.11,2.49-1.12,3.88-.01,1.25.58,1.96,1.78,2.26,1.34.34,2.61-.02,3.88-.39,2.67-.79,5.06-2.17,7.31-3.75,6.89-4.84,13.14-10.46,19.25-16.23,2.58-2.43,5.04-4.99,7.47-7.57,2.92-3.1,5.8-6.23,8.6-9.43,5.6-6.41,11.02-12.97,16.24-19.69,5.13-6.62,10.09-13.35,14.45-20.51,2.32-3.8,4.46-7.68,5.93-11.92.55-1.59,1.33-3.12,2.15-4.6,2.05-3.69,4.84-6.83,7.79-9.79,6.45-6.46,13-12.82,19.52-19.21.97-.95,2.04-1.78,3.08-2.65.2-.17.48-.25.72-.38.06.06.11.12.17.18-.36.55-.69,1.14-1.1,1.65-3.43,4.25-6.89,8.48-10.33,12.72-.26.32-.54.63-.76.98-.32.51-.16.86.45.95.87.13,1.51-.25,2.06-.91,2.88-3.43,5.77-6.85,8.66-10.28,1.21-1.44,2.41-2.9,3.65-4.31.43-.49.82-1.09,1.57-1.14.53.6.51,1.19.1,1.79-.21.31-.43.62-.67.91-3.02,3.81-6.04,7.61-9.06,11.42-13.07,16.47-26.13,32.94-39.2,49.41-8.03,10.12-16.06,20.25-24.1,30.37-1.31,1.65-2.65,3.28-3.93,4.96-.72.95-1.57,1.47-2.79,1.35-.45-.04-.91.03-1.36-.01-1.09-.09-1.82.4-2.5,1.22-5.14,6.26-10.31,12.49-15.47,18.73-.55.67-1.13,1.32-1.63,2.02-.43.6-.23.99.48,1.08.3.04.6.04.9.04,10.57,0,21.13,0,31.7.02,1.14,0,1.88-.38,2.47-1.39,2.08-3.54,4.24-7.04,6.37-10.55,5.55-9.16,11.1-18.31,16.64-27.47.7-1.16,1.41-2.32,2.06-3.51.38-.69.25-.96-.55-1.05-1.16-.13-2.33-.12-3.49-.15-1.18-.03-2.03.41-2.71,1.46-3.68,5.66-7.46,11.25-11.13,16.92-.79,1.22-1.76,1.73-3.16,1.7-1.85-.04-3.7,0-5.55-.02-.49,0-.98-.07-1.46-.15-.71-.13-.87-.47-.53-1.12.16-.3.38-.56.58-.84,3.44-4.67,6.89-9.34,10.33-14.02,5.27-7.16,10.55-14.33,15.8-21.51.67-.91,1.45-1.34,2.57-1.31,1.85.04,3.7-.05,5.55.03,1.09.05,1.77-.42,2.33-1.27,3.92-6.04,7.85-12.08,11.77-18.12.25-.38.5-.76.68-1.17.22-.5.04-.81-.48-.92-.25-.05-.52-.05-.79-.05-.94,0-1.89,0-2.83,0-.51,0-.96-.12-1.27-.71.28-.46.54-.95.87-1.4,6.43-8.75,12.87-17.49,19.31-26.23,1.77-2.4,3.56-4.77,5.3-7.19.69-.95,1.59-1.22,2.67-1.05.69.11.87.49.58,1.13-.14.31-.33.59-.52.87-3.35,5.06-6.7,10.13-10.05,15.19-.15.22-.32.43-.42.67-.27.6-.1.91.54,1.06,1.22.28,2.01-.06,2.73-1.25,2.66-4.38,5.31-8.77,7.96-13.16,1.11-1.84,2.21-3.68,3.34-5.51.34-.55.66-1.17,1.35-1.37.84.83.79,1.62.25,2.5-.55.9-1.05,1.83-1.56,2.75-4.46,8.04-8.91,16.08-13.38,24.12-4.65,8.37-9.3,16.73-13.95,25.1-3.64,6.55-7.28,13.11-10.92,19.67-4.48,8.07-9.01,16.12-13.41,24.23-.83,1.53-1.83,2.07-3.5,1.99-2.19-.11-2.19-.02-3.29,1.86-3.63,6.17-7.26,12.34-10.89,18.52-.3.52-.62,1.04-.86,1.59-.31.68-.13.97.62,1.06.49.05.98.05,1.47.05,7.74,0,15.47,0,23.21,0,2.68,0,5.36.01,8.04,0,1.39,0,1.74-.25,2.2-1.49,2.33-6.33,4.65-12.66,6.97-18.98,2.19-5.98,4.39-11.95,6.58-17.93.53-1.45,1.06-2.9,1.55-4.36.28-.84.12-1.04-.75-1.25-.07-.02-.14-.06-.22-.06-1.32,0-2.64-.03-3.96.02-.83.03-1.38.52-1.68,1.3-.22.56-.45,1.12-.68,1.67-2.15,5.06-4.34,10.11-6.41,15.2-.52,1.29-1.3,1.85-2.61,1.85-2.11,0-4.23.05-6.34-.01-2.08-.06-2.06-.65-1.3-2.17,3.66-7.27,7.29-14.56,10.92-21.84,2.22-4.45,4.44-8.9,6.61-13.38.53-1.09,1.26-1.59,2.48-1.55,1.81.05,3.62.02,5.43.01,1.35,0,1.57-.17,2.09-1.43,1.52-3.69,3.05-7.38,4.57-11.07,1.02-2.47,2.05-4.94,3.05-7.42.5-1.22.25-1.57-1.09-1.59-.98-.01-1.96.02-2.94-.01-.47-.02-.93-.15-1.56-.26.15-.61.2-1.1.4-1.52.58-1.27,1.21-2.51,1.83-3.76,2.26-4.52,4.52-9.04,6.78-13.55,2.68-5.36,5.38-10.71,8.03-16.09.52-1.06,1.25-1.53,2.42-1.42.97.1,1.27.49.93,1.42-.33.88-.7,1.75-1.07,2.61-1.83,4.3-3.66,8.59-5.48,12.89-.16.38-.35.77-.41,1.17-.03.24.12.61.31.74.95.62,2.5.06,2.9-1.01.94-2.54,1.87-5.09,2.8-7.64,1.38-3.75,2.76-7.5,4.16-11.23.18-.47.5-.88.76-1.33,1.47,1.06,1.3,1.65,1.04,2.56-.2.69-.47,1.35-.69,2.03-1.85,5.85-3.71,11.7-5.55,17.56-1.19,3.77-2.36,7.55-3.56,11.31-1.17,3.7-2.37,7.39-3.55,11.08-1.23,3.88-2.45,7.75-3.68,11.63-1.06,3.34-2.13,6.67-3.18,10.01-1.78,5.64-3.54,11.28-5.33,16.92-1.47,4.63-2.96,9.25-4.44,13.88-.22.68-.45,1.36-.65,2.05-.27.92-.84,1.38-1.82,1.35-.6-.02-1.21,0-1.81.02-1.14.04-1.42.25-1.8,1.34-.68,1.95-1.36,3.91-2.04,5.87-1.66,4.73-3.32,9.45-4.97,14.18-.59,1.68-.42,1.89,1.37,1.89,6.91,0,13.81.01,20.72-.01.89,0,1.8-.13,2.68-.31,3.59-.75,6.38-2.8,8.7-5.55,2.8-3.32,4.67-7.18,6.41-11.13,2.54-5.78,4.38-11.78,5.81-17.92,1.06-4.54,1.92-9.13,2.48-13.76.31-2.57.66-5.15.94-7.72.31-2.84.61-5.68.84-8.53.27-3.34.49-6.67.68-10.02.19-3.34.32-6.69.46-10.04.09-2.22.16-4.44.23-6.66.03-1.02.04-2.04.08-3.05.12-2.82.28-5.64.36-8.46.11-3.62.15-7.23.24-10.85.06-2.49.18-4.97.21-7.45.04-3.16.17-6.32.45-9.47.24-2.7.44-5.4.5-8.11.04-1.91-.13-3.83-.28-5.75-.08-.98-.5-1.27-1.52-1.25ZM172.95,245.58c-.09,2.1-.16,4.21-.31,6.31-.34,4.91-.68,9.82-1.08,14.73-.31,3.82-.7,7.63-1.09,11.44-.36,3.51-.69,7.03-1.16,10.53-.5,3.76-1.1,7.51-1.71,11.26-.76,4.64-1.83,9.22-3.12,13.75-1.22,4.28-2.78,8.44-4.99,12.33-.8,1.41-1.74,2.74-2.98,3.81-1.85,1.58-3.98,2.4-6.43,2.32-.45-.02-.91,0-1.36,0-.75,0-1.51,0-2.26,0-1.47-.02-1.79-.43-1.43-1.9.37-1.5.77-2.99,1.16-4.48,1.56-5.97,3.12-11.94,4.68-17.91,1.28-4.88,2.56-9.76,3.84-14.63.86-3.28,1.71-6.55,2.56-9.83,1.22-4.7,2.43-9.4,3.65-14.09,1.55-5.97,3.1-11.95,4.66-17.92,1.23-4.73,2.48-9.46,3.72-14.2.18-.7.47-1.28,1.29-1.37.64-.07,1.29.37,1.63,1.18.56,1.33.89,2.72.89,4.17,0,1.5-.08,3.01-.14,4.51ZM45.75,302.96c3.29-3.38,6.54-6.78,9.77-10.22,2.99-3.19,5.97-6.39,8.86-9.66,5.69-6.44,11.16-13.06,16.23-20.01.5-.69,1.15-1.32,1.85-1.79,5.52-3.73,10.57-8.02,15.28-12.69,5.03-4.99,9.93-10.12,14.88-15.19,3.45-3.53,6.92-7.06,10.36-10.6,1.97-2.03,3.94-4.06,5.88-6.11,4-4.21,7.99-8.43,11.97-12.65,2.25-2.38,4.48-4.79,6.73-7.18.97-1.03,1.66-2.14,1.31-3.64-.06-.25-.02-.53,0-.79.07-.71-.1-1.28-.98-1.48.26-.37.42-.58.57-.8.31-.44.68-.93.25-1.43-.41-.49-.91-.09-1.33.12-6.84,3.43-13.67,6.87-20.51,10.3-.53.26-.96.59-1.16,1.17-.24.69-.75,1.09-1.38,1.42-1.57.81-3.13,1.67-4.69,2.5-4.69,2.5-9.38,4.99-14.07,7.5-4.62,2.47-9.23,4.95-13.85,7.42-4.72,2.52-9.45,5.03-14.17,7.56-5.15,2.75-10.3,5.51-15.45,8.27-5.87,3.16-11.77,6.29-17.61,9.5-7.77,4.27-15.32,8.89-22.45,14.18-5.65,4.18-10.97,8.73-15.61,14.02-2.05,2.33-3.81,4.86-4.95,7.78-.66,1.7-1.05,3.47-1.05,5.28,0,2.2.95,3.58,2.85,4.1.82.23,1.73.39,2.56.29,1.67-.21,3.34-.55,4.97-.98,4.85-1.29,9.26-3.59,13.62-5.99,5.42-2.99,10.58-6.4,15.57-10.06,8.45-6.2,16.85-12.46,25.26-18.72,9.52-7.09,19.03-14.21,28.54-21.31,9.42-7.04,18.85-14.07,28.27-21.1.82-.61,1.63-1.23,2.47-1.79.77-.52,1.12-.45,1.91.25-.56,1.15-.81,2.41-1.93,3.33-7.81,6.4-15.57,12.85-23.34,19.29-9.78,8.09-19.55,16.19-29.33,24.28-9.81,8.12-19.61,16.24-29.42,24.36-4.79,3.96-9.57,7.93-14.37,11.88-.41.34-.82.95-1.46.64-.57-.28-.32-.94-.42-1.44-.09-.46.16-1.15-.42-1.28-.37-.08-.91.26-1.27.54-1.76,1.36-3.48,2.76-5.22,4.15-4.86,3.87-9.71,7.77-14.6,11.61-1.01.8-1.45,1.68-1.42,2.98.08,2.9.07,5.81.01,8.72-.08,4.41.26,8.82-.21,13.22-.02.19,0,.38.01.56.14,1.21.87,1.93,2.09,1.95.67.01,1.37-.03,2.01-.22,2.33-.66,4.54-1.62,6.57-2.97,6.71-4.47,12.75-9.74,18.5-15.36,4.58-4.48,9.03-9.11,13.5-13.7ZM125.54,206.95c-.21.48-.72.86-1.18,1.18-4.89,3.39-9.81,6.76-14.71,10.15-8.38,5.78-16.75,11.58-25.13,17.36-5.93,4.09-11.87,8.16-17.8,12.24-6.27,4.32-12.52,8.67-18.82,12.95-3.77,2.56-7.67,4.94-11.78,6.93-1.59.77-3.23,1.45-4.91,2.01-.98.33-2.06.43-3.1.45-1.46.03-2.1-.9-1.7-2.32.52-1.86,1.58-3.41,2.92-4.77,3.73-3.76,7.94-6.95,12.29-9.93,6.06-4.17,12.46-7.79,18.79-11.53,10.22-6.05,20.44-12.08,30.66-18.12,10.97-6.48,21.93-12.96,32.89-19.45.63-.38,1.27-.66,2.02-.57.65.08,1.16-.25,1.67-.57,4.6-2.81,9.19-5.64,13.79-8.43,1.74-1.06,3.52-2.04,5.28-3.06.15-.08.32-.13.47-.19.03.05.06.1.09.16-.61.47-1.2.97-1.83,1.4-5.31,3.59-10.63,7.17-15.94,10.75-.78.53-1.56,1.06-2.35,1.57-.71.46-1.28.98-1.64,1.8ZM91.81,244.8c6.07-5.35,12.14-10.71,18.2-16.07,4.65-4.11,9.3-8.24,13.95-12.35.11-.1.21-.23.33-.3.34-.21.69-.59,1.1-.21.36.33.28.81.06,1.15-.44.7-.89,1.41-1.45,2.01-2.36,2.54-4.72,5.07-7.15,7.55-2.53,2.59-5.09,5.14-7.7,7.65-4.4,4.23-8.74,8.52-13.54,12.3-.83.65-1.69,1.26-2.55,1.88-.27.2-.57.37-.88.5-.93.36-1.44.01-1.49-.99,0-.19,0-.38,0-.74-.24-.94.34-1.69,1.12-2.37ZM29.26,309.16c-1.13.16-1.83-.38-1.95-1.51-.1-.93-.14-1.87-.21-2.81.01,0,.03,0,.04,0,0-.3,0-.6,0-.91-.05-1.41.49-2.45,1.6-3.4,3.75-3.2,7.41-6.51,11.1-9.78,4.2-3.71,8.41-7.43,12.6-11.14,4.42-3.92,8.84-7.85,13.26-11.77.39-.35.79-.71,1.23-.99.6-.4,1.01-.22,1.1.51.18,1.48.09,2.92-.55,4.31-.9,1.93-2.19,3.61-3.51,5.25-3.09,3.85-6.33,7.57-9.82,11.07-3.62,3.63-7.24,7.26-10.93,10.81-3.37,3.24-6.87,6.33-10.84,8.84-.67.42-1.36.81-2.06,1.17-.33.17-.7.3-1.06.35ZM162.8,161.12c-.61.03-.99.34-1.07.95-.05.41-.09.82-.09,1.23,0,10.75,0,21.5,0,32.26,0,2.07.23,2.3,2.36,2.3,10.71,0,21.43,0,32.14,0,.41,0,.83-.05,1.24-.07.64-.03.93-.45,1.05-1,.06-.29.04-.6.04-.9,0-10.94,0-21.88,0-32.82,0-.34,0-.68-.07-1.01-.11-.59-.45-.94-1.08-.95-.3,0-.6,0-.91,0-5.43,0-10.86,0-16.3,0s-10.94,0-16.41,0c-.3,0-.6,0-.91,0ZM164.81,165.9c0-1.37.28-1.62,1.68-1.62,4.53,0,9.05,0,13.58,0s9.05,0,13.58,0c1.4,0,1.65.24,1.65,1.64,0,9.02,0,18.03,0,27.05,0,1.43-.28,1.72-1.72,1.72-9.02,0-18.03,0-27.05,0-1.41,0-1.72-.31-1.72-1.74,0-9.02,0-18.03,0-27.05ZM332.92,346.34c-4.46-6.71-9.74-12.75-15.36-18.5-4.48-4.58-9.11-9.03-13.7-13.5-3.38-3.29-6.78-6.54-10.22-9.77-3.19-2.99-6.39-5.97-9.66-8.86-6.47-5.72-13.12-11.2-20.1-16.29-.65-.48-1.25-1.11-1.7-1.78-3.7-5.49-7.99-10.49-12.61-15.21-3.59-3.66-7.31-7.19-10.98-10.78-3.26-3.19-6.52-6.39-9.8-9.57-3.03-2.94-6.08-5.87-9.13-8.79-4.09-3.91-8.17-7.82-12.28-11.71-3.17-3.01-6.37-5.99-9.55-8.99-1.05-.99-2.16-1.78-3.73-1.38-.14.04-.3,0-.45,0-.38,0-.78-.06-1.12.06-.36.12-.65.42-1.03.68-.04-.03-.26-.18-.47-.34-.44-.31-.94-.67-1.43-.24-.48.42-.08.92.13,1.33,3.43,6.84,6.87,13.67,10.3,20.51.27.53.6.95,1.17,1.16.69.24,1.09.76,1.41,1.39.67,1.31,1.37,2.6,2.06,3.9,3.85,7.17,7.7,14.34,11.54,21.52,4.2,7.84,8.38,15.69,12.57,23.54,4.15,7.78,8.31,15.56,12.46,23.34,3.96,7.42,8.06,14.75,12.64,21.8,5.38,8.27,11.31,16.09,18.58,22.83,2.03,1.88,4.19,3.57,6.63,4.88,2.32,1.25,4.79,2.04,7.43,2.08,2.23.03,3.61-.88,4.16-2.77.25-.85.43-1.8.32-2.66-.21-1.67-.55-3.34-.99-4.97-1.28-4.81-3.56-9.19-5.94-13.52-2.99-5.42-6.39-10.59-10.05-15.58-6.38-8.69-12.81-17.34-19.25-25.99-6.98-9.37-13.99-18.72-20.98-28.08-6.27-8.4-12.53-16.8-18.79-25.2-1.28-1.72-2.58-3.44-3.84-5.18-.63-.87-.59-1.11.02-2.02,1.83.36,3.18,1.3,4.16,2.79.25.38.57.7.86,1.05,6,7.25,12,14.51,18.01,21.76,8.15,9.83,16.3,19.66,24.45,29.49,8.1,9.77,16.19,19.56,24.28,29.33,3.75,4.53,7.49,9.05,11.23,13.58.31.38.63.75.88,1.18.26.45.08.84-.43.94-.44.09-.9.07-1.35.11-1.1.09-1.26.43-.64,1.33.09.12.18.24.27.36,5.26,6.6,10.53,13.19,15.77,19.81.77.97,1.62,1.41,2.88,1.4,6.45-.05,12.9-.03,19.36-.02.6,0,1.2.06,1.8.14,2.76.38,3.95-.9,3.28-3.6-.62-2.51-1.65-4.85-3.08-7ZM219.18,250.45c5.78,8.38,11.57,16.75,17.36,25.13,3.86,5.58,7.71,11.17,11.55,16.76,4.55,6.61,9.13,13.21,13.64,19.86,2.58,3.81,4.97,7.74,6.99,11.88,1,2.07,1.99,4.15,2.33,6.45.09.59.13,1.21.06,1.8-.13,1.14-.96,1.66-2.1,1.4-1.94-.45-3.52-1.53-4.9-2.89-3.8-3.74-7.01-7.98-10.02-12.37-4.17-6.06-7.79-12.46-11.53-18.79-6.05-10.22-12.08-20.44-18.12-30.66-6.48-10.97-12.96-21.93-19.45-32.89-.38-.63-.66-1.27-.56-2.02.08-.65-.26-1.16-.57-1.67-2.81-4.6-5.64-9.19-8.43-13.8-1.06-1.74-2.04-3.52-3.06-5.28-.08-.15-.13-.32-.19-.48.05-.03.1-.06.15-.09.47.61.97,1.2,1.4,1.84,3.59,5.31,7.17,10.63,10.75,15.94.51.75,1.01,1.5,1.51,2.26.48.73,1,1.37,1.87,1.73.48.2.86.72,1.18,1.18,3.39,4.89,6.76,9.81,10.15,14.71ZM248.75,269.41c-.19,0-.38,0-.74,0-.9.22-1.62-.35-2.27-1.09-5.35-6.07-10.71-12.14-16.07-18.2-4.11-4.65-8.24-9.3-12.35-13.95-.17-.2-.39-.38-.48-.62-.1-.25-.19-.64-.06-.8.14-.18.55-.27.8-.2.42.12.85.32,1.19.6,1.11.9,2.23,1.79,3.25,2.79,4.55,4.46,9.09,8.93,13.57,13.46,2.49,2.51,4.93,5.09,7.28,7.74,2.1,2.36,4.05,4.85,6.05,7.3.33.41.61.87.83,1.34.49,1.03.14,1.59-.99,1.62ZM308.62,332.78c-.97.11-1.95.15-2.89.22-.64-.05-1.24-.14-1.84-.13-.93,0-1.54-.5-2.11-1.14-3.58-4.07-7.16-8.14-10.75-12.2-3.32-3.75-6.65-7.49-9.97-11.24-3.62-4.09-7.22-8.18-10.83-12.28-.7-.79-1.4-1.57-2.1-2.36-.12-.14-.25-.28-.35-.44-.43-.67-.27-1.06.53-1.15,1.48-.17,2.92-.07,4.3.58,1.82.86,3.41,2.07,4.98,3.31,3.89,3.1,7.64,6.37,11.17,9.87,3.67,3.64,7.32,7.29,10.9,11.01,3.26,3.4,6.38,6.93,8.91,10.93.42.67.82,1.36,1.17,2.06.18.36.3.78.33,1.18.09,1.05-.41,1.65-1.45,1.77ZM360.06,329.72c-.18-1.85-.83-3.58-1.65-5.25-1.3-2.66-2.96-5.09-4.77-7.4-6.59-8.4-13.72-16.33-21.54-23.61-3.09-2.88-6.16-5.77-9.34-8.54-8.14-7.07-16.43-13.94-25.1-20.35-5.73-4.24-11.53-8.38-17.73-11.92-2.65-1.52-5.32-3.03-8.22-4-3.73-1.25-7.09-3.12-10.15-5.57-3.16-2.52-6.04-5.34-8.87-8.22-5.26-5.35-10.51-10.72-15.74-16.1-.99-1.02-1.88-2.16-2.8-3.25-.14-.17-.18-.42-.27-.63.57.12,1,.34,1.37.63,1.58,1.22,3.17,2.43,4.72,3.69,3.01,2.45,5.99,4.93,8.99,7.4.31.25.65.65,1.09.37.44-.28.39-.82.25-1.24-.14-.41-.4-.8-.67-1.14-.23-.29-.57-.49-.86-.73-4.64-3.91-9.28-7.81-13.9-11.73-.48-.4-.85-.93-1.31-1.43.69-.72,1.27-.71,1.88-.31.28.19.56.38.83.59,7.71,6.11,15.41,12.22,23.11,18.33,13.28,10.54,26.55,21.09,39.83,31.63,9.89,7.84,19.78,15.68,29.68,23.52,1.27,1.01,2.53,2.02,3.8,3.02.82.64,1.34,1.41,1.23,2.51-.05.49.03.98-.01,1.47-.09,1.13.41,1.9,1.27,2.6,6.64,5.45,13.24,10.93,19.86,16.4.26.22.52.44.8.62.68.43,1.05.25,1.12-.54.04-.49.04-.98.04-1.47,0-10.11,0-20.23,0-30.34,0-.34-.02-.68,0-1.02.04-.93-.37-1.53-1.17-2.01-3.72-2.22-7.41-4.49-11.12-6.74-8.99-5.45-17.99-10.89-26.99-16.34-1.19-.72-2.39-1.45-3.61-2.11-.71-.39-.97-.27-1.06.53-.13,1.16-.12,2.33-.15,3.49-.03,1.18.41,2.03,1.46,2.71,5.65,3.69,11.25,7.47,16.91,11.14,1.23.79,1.74,1.76,1.71,3.16-.04,1.85,0,3.7-.02,5.55,0,.52-.07,1.05-.16,1.57-.11.6-.43.75-.98.46-.46-.24-.89-.56-1.31-.88-11.72-8.63-23.43-17.26-35.16-25.87-.91-.67-1.35-1.45-1.33-2.57.04-1.81-.06-3.63.03-5.43.06-1.17-.41-1.89-1.36-2.5-5.26-3.39-10.5-6.82-15.74-10.23-1.04-.68-2.08-1.37-3.15-2.01-.87-.52-1.24-.3-1.28.72-.03.83,0,1.66-.01,2.49,0,.38.03.76-.03,1.13-.13.75-.55.96-1.21.58-.49-.28-.94-.63-1.4-.96-7.92-5.84-15.84-11.68-23.76-17.51-3.03-2.24-6.06-4.49-9.11-6.7-.95-.69-1.22-1.58-1.06-2.66.1-.7.48-.89,1.12-.61.31.14.59.32.88.51,4.21,2.79,8.42,5.59,12.63,8.39,1.04.69,2.07,1.38,3.13,2.03.7.42,1.02.25,1.18-.55.24-1.21-.09-1.94-1.24-2.64-2.22-1.35-4.45-2.69-6.68-4.04-4-2.42-8-4.83-12-7.26-.56-.34-1.18-.67-1.38-1.39.79-.78,1.59-.78,2.48-.23.93.57,1.89,1.09,2.85,1.62,7.87,4.37,15.75,8.73,23.63,13.1,6.13,3.4,12.25,6.82,18.37,10.22,8.83,4.9,17.66,9.8,26.49,14.7,5.34,2.96,10.68,5.92,16.02,8.88,3.06,1.7,6.12,3.41,9.19,5.1.89.49,1.33,1.16,1.3,2.18-.03.72.03,1.43.03,2.15,0,.62.27,1.08.79,1.4.29.18.57.37.86.54,6.53,3.84,13.06,7.68,19.59,11.51,1.47.86,1.81.67,1.81-1.06.01-10.6,0-21.21,0-31.81,0-1.55-.23-1.83-1.72-2.38-6.19-2.28-12.37-4.55-18.56-6.82-7.07-2.59-14.15-5.18-21.22-7.77-.46-.17-.92-.33-1.4-.46-.72-.2-.9-.07-1.09.68-.04.15-.1.29-.1.44-.01,1.21-.04,2.42,0,3.62.03.94.51,1.56,1.44,1.94,3.31,1.35,6.59,2.78,9.89,4.17,2.43,1.03,4.85,2.06,7.29,3.07.8.33,1.34.81,1.34,1.75,0,2.56.07,5.12-.02,7.68-.04,1.17-.5,1.35-1.55.88-.21-.09-.4-.2-.61-.3-7.25-3.62-14.49-7.25-21.74-10.87-4.45-2.22-8.9-4.45-13.38-6.62-1.09-.53-1.6-1.25-1.56-2.47.05-1.77.01-3.55.01-5.32,0-1.5-.16-1.7-1.53-2.26-3.66-1.5-7.32-3.01-10.97-4.52-2.51-1.04-5.01-2.09-7.52-3.11-1.07-.43-1.46-.16-1.49,1-.02,1.02,0,2.04,0,3.06-.01,1.56-.47,1.85-1.84,1.17-2.57-1.27-5.14-2.53-7.7-3.81-8.09-4.04-16.19-8.09-24.28-12.13-.61-.3-1.22-.59-1.81-.92-.64-.36-.96-.91-.97-1.66-.04-1.58.41-1.89,1.89-1.26,4.92,2.1,9.84,4.2,14.76,6.29.45.19.91.36,1.38.51.37.12.67,0,.85-.36.53-1.06,0-2.45-1.13-2.87-2.5-.94-5.01-1.87-7.52-2.79-3.75-1.38-7.49-2.75-11.24-4.14-.52-.19-1.05-.39-1.32-.92,1.12-1.25,1.37-1.28,2.98-.76,3.69,1.2,7.39,2.37,11.08,3.54,3.62,1.15,7.25,2.29,10.88,3.44,3.7,1.17,7.39,2.35,11.09,3.52,2.4.76,4.81,1.51,7.22,2.28,3.59,1.14,7.17,2.29,10.76,3.43,2.55.81,5.09,1.62,7.64,2.43,3.84,1.22,7.68,2.43,11.52,3.64,3.48,1.1,6.96,2.21,10.44,3.31,3.45,1.09,6.89,2.19,10.33,3.28,1.58.5,3.16.99,4.73,1.52,1.45.49,1.6.7,1.64,2.17.01.49,0,.98.01,1.47.04,1.23.21,1.46,1.39,1.87,4.15,1.47,8.31,2.94,12.46,4.39,2.7.95,5.4,1.88,8.11,2.8.91.31,1.25.06,1.31-.89.02-.26,0-.53,0-.79,0-6.83,0-13.66,0-20.49,0-1.99-.48-3.88-1.3-5.68-1.46-3.2-3.93-5.49-6.75-7.45-3.74-2.6-7.9-4.38-12.11-6.05-5.51-2.19-11.19-3.79-16.99-4.98-3.17-.65-6.35-1.23-9.55-1.71-3.08-.47-6.19-.78-9.29-1.15-2.43-.28-4.85-.58-7.28-.8-2.28-.21-4.58-.32-6.86-.47-3.64-.23-7.28-.49-10.92-.67-3.87-.19-7.75-.31-11.62-.46-2.11-.08-4.21-.17-6.32-.22-4.03-.09-8.07-.15-12.1-.23-3.09-.07-6.18-.15-9.26-.23-1.09-.03-2.19-.01-3.28-.08-3-.18-6-.41-9-.59-1.99-.13-3.99-.15-5.97-.35-2.12-.22-4.2.03-6.29.3-.81.11-1.06.47-1.05,1.34,0,.52.14,1.05.13,1.57-.03,1.87-.06,3.74-.15,5.61-.06,1.15.33,2.23.42,3.34.07.85.34,1.51.9,2.12,1.22,1.33,2.43,2.68,3.66,4,3.05,3.29,6.1,6.57,9.17,9.84,2.81,2.99,5.66,5.96,8.48,8.94,3.86,4.08,7.7,8.18,11.58,12.24,3.23,3.38,6.46,6.77,9.76,10.08,5.88,5.91,11.68,11.89,17.94,17.4,4.3,3.79,8.7,7.45,13.52,10.57,2.43,1.57,4.99,2.79,7.81,3.48,1.49.36,3,.74,4.42,1.31,3.53,1.42,6.65,3.55,9.52,6.01,3.66,3.13,7.25,6.36,10.84,9.58,4.07,3.65,8.03,7.43,11.57,11.6,1.51,1.77,2.89,3.67,4.19,5.6.53.78.76,1.78,1.04,2.71.25.81-.46,1.74-1.57,1.3-.24-.1-.5-.18-.72-.31-1.52-.91-3.08-1.75-4.54-2.76-4.84-3.35-9.37-7.09-13.84-10.91-.33-.28-.71-.5-1.2-.84-.16.46-.34.76-.35,1.06-.04,1.02-.05,2.04,0,3.06.05.88.36,1.67,1.02,2.32,1.13,1.11,2.21,2.27,3.31,3.41,2.49,2.57,4.99,5.14,7.49,7.71,4.31,4.43,8.63,8.87,12.95,13.29,2.24,2.29,4.51,4.56,6.74,6.86,1.68,1.73,3.33,3.49,5.01,5.23,1.84,1.9,3.68,3.79,5.55,5.65.23.23.64.27.97.4.11-.3.31-.61.32-.91.03-1.4.01-2.79.02-4.19,0-.68-.26-1.25-.73-1.72-.8-.8-1.62-1.58-2.42-2.38-1.14-1.15-2.28-2.3-3.41-3.47-.21-.22-.34-.52-.51-.79.05-.07.11-.14.16-.21.34.1.7.16,1.02.3.86.39,1.69.84,2.55,1.21,1.35.58,2.69,1.2,4.22,1.09.83-.06,1.49-.43,1.73-1.22.21-.67.34-1.41.27-2.1ZM236.13,186.76c.32-.34.79-.56,1.24-.74,1.57-.63,3.21-.76,4.89-.69.23,0,.45,0,.68,0,0-.01,0-.03,0-.04,2.66.16,5.33.34,7.99.49,2.29.12,4.59.16,6.88.32,3.03.22,6.06.53,9.09.79,1.24.1,2.48.13,3.71.26,4.89.51,9.79,1.02,14.68,1.59,3.54.41,7.09.82,10.62,1.38,5.42.86,10.81,1.92,16.11,3.39,3.97,1.1,7.85,2.37,11.56,4.17,2.42,1.17,4.76,2.46,6.48,4.62,1.33,1.68,2.02,3.59,2.01,5.75-.01,1.36.01,2.72,0,4.07-.02,1.19-.36,1.48-1.52,1.35-.26-.03-.51-.11-.77-.17-6.23-1.62-12.45-3.24-18.68-4.87-4.22-1.1-8.44-2.23-12.66-3.33-5.71-1.49-11.43-2.96-17.15-4.45-4.59-1.19-9.17-2.4-13.76-3.6-5.17-1.35-10.34-2.69-15.51-4.04-3.35-.87-6.69-1.76-10.04-2.63-1.49-.39-2.99-.77-4.48-1.16-.25-.07-.51-.13-.76-.22-1.04-.38-1.34-1.43-.59-2.23ZM263.49,355.31c-3.76-7.26-7.52-14.53-11.27-21.79-2.63-5.09-5.24-10.19-7.86-15.28-.69-1.34-1.44-2.65-2.09-4.01-.47-.99-1.26-1.34-2.27-1.35-.98-.01-1.96-.05-2.94,0-1.78.11-1.82.49-1.16,1.92,2.28,4.92,4.55,9.85,6.82,14.78.17.38.35.75.5,1.14.33.88.07,1.3-.84,1.39-.26.03-.53.01-.79.01-1.96,0-3.92,0-5.89,0-1.6,0-1.82-.13-2.43-1.66-1.11-2.8-2.19-5.61-3.28-8.42-2.1-5.41-4.18-10.82-6.29-16.22-1.8-4.63-3.64-9.25-5.44-13.89-1.5-3.86-2.97-7.74-4.47-11.6-2.73-7.02-5.49-14.03-8.22-21.05-2.2-5.65-4.39-11.31-6.58-16.96-.82-2.11-1.65-4.21-2.44-6.33-.16-.44-.35-1.05-.17-1.4.48-.91.2-1.65-.14-2.47-2.77-6.56-5.53-13.12-8.29-19.68-.56-1.33-1.27-1.6-2.59-1.01-.47.21-.73.53-.61,1.06.07.32.23.64-.21,1.01-.18-.47-.34-.87-.5-1.26-.28-.66-.83-1.13-1.21-.99-.62.23-.59.78-.61,1.33-.07,2.98-.14,5.95-.22,8.93-.07,2.41-.13,4.82-.23,7.23-.14,3.42-.3,6.84-.44,10.26-.16,3.8-.3,7.6-.46,11.4-.08,1.88-.18,3.76-.27,5.64-.14,2.82-.29,5.64-.4,8.46-.1,2.33-.16,4.67-.23,7-.08,2.97-.22,5.95-.22,8.92,0,5.54.07,11.08.14,16.63.03,2.3.15,4.59.22,6.89.03.9,0,1.81.09,2.71.25,2.66.58,5.3.8,7.96.34,4.02.99,7.99,1.87,11.92.77,3.45,1.59,6.9,2.64,10.27,1.19,3.85,2.84,7.54,4.74,11.11,1.61,3.04,3.47,5.93,6.03,8.28,2.78,2.55,5.97,4.04,9.85,3.54,1.96-.26,3.68-1.03,5.12-2.41,1.94-1.86,3.02-4.19,3.81-6.7,1.37-4.33,1.58-8.81,1.69-13.28.07-2.78-.22-5.56-.38-8.34-.09-1.5-.21-3-.38-4.49-.23-2.05-.49-4.11-.8-6.15-.41-2.64-.86-5.27-1.33-7.9-.2-1.09-.55-1.39-1.57-1.41-1.4-.04-2.79-.04-4.19,0-1.01.03-1.25.32-1.27,1.3-.05,2.75-.12,5.5-.15,8.25-.02,2.58-.46,5.1-1.26,7.54-.34,1.02-.86,2.01-1.46,2.91-.99,1.48-2.44,2.21-4.25,2.06-2.11-.17-3.74-1.26-5.11-2.81-1.71-1.95-2.85-4.25-3.8-6.64-1.14-2.84-1.95-5.78-2.63-8.75-.5-2.2-.92-4.42-1.25-6.65-.45-3.01-.81-6.03-1.16-9.06-.3-2.57-.61-5.15-.8-7.74-.22-2.92-.36-5.86-.46-8.79-.14-4.1-.27-8.21-.3-12.31-.05-7.24-.04-14.47.44-21.7.15-2.29.28-4.58.5-6.86.12-1.23.39-2.45.66-3.66.06-.28.38-.5.59-.74.25.21.58.37.72.63.35.62.66,1.28.9,1.95,1.75,4.77,3.5,9.55,5.23,14.33.42,1.17.79,2.36,1.18,3.53.26.78.78,1.17,1.62,1.12.3-.02.61.02.91,0,.63-.05.85-.32.73-.97-.14-.7-.35-1.39-.54-2.07-1.41-5-2.83-10-4.24-15-.37-1.3-.71-2.62-1.03-3.93-.08-.33-.05-.7-.07-1.11,1.62.21,2.28,1.08,2.65,2.36.5,1.74,1.11,3.44,1.69,5.15,2.74,8.22,5.48,16.43,8.21,24.65,2.32,6.97,4.62,13.94,6.93,20.92,1.46,4.4,2.91,8.79,4.37,13.19,1.19,3.57,2.39,7.14,3.58,10.71,1.85,5.58,3.7,11.15,5.55,16.73.54,1.64,1.09,3.29,1.59,4.95.27.88-.01,1.26-.94,1.33-.64.05-1.28.03-1.92.08-.69.06-.85.27-.81.94.01.19.05.37.11.55.59,2.02,1.19,4.04,1.79,6.06.84,2.81,1.67,5.63,2.52,8.44.59,1.95,1.17,3.89,1.79,5.83.32,1.01.57,1.16,1.63,1.21.15,0,.3,0,.45,0,10.38,0,20.75,0,31.13,0,.34,0,.68,0,1.02-.05.64-.09.83-.41.63-1.01-.07-.21-.17-.42-.27-.62ZM9.52,214.18c4.33,1.37,8.81,1.57,13.28,1.68,2.78.07,5.56-.22,8.34-.38,1.5-.09,3-.21,4.49-.38,2.02-.23,4.03-.48,6.04-.79,2.68-.41,5.34-.86,8.01-1.34,1.04-.19,1.35-.53,1.37-1.49.04-1.43.04-2.87,0-4.3-.03-.99-.32-1.22-1.34-1.23-2.71-.05-5.42-.12-8.13-.15-2.55-.02-5.03-.41-7.44-1.21-1.09-.36-2.18-.89-3.12-1.54-1.57-1.08-2.24-2.62-1.97-4.59.26-1.97,1.29-3.43,2.69-4.69,1.96-1.76,4.3-2.9,6.73-3.87,2.84-1.13,5.78-1.94,8.75-2.63,2.16-.5,4.35-.9,6.54-1.24,3.16-.48,6.33-.88,9.5-1.26,2.46-.29,4.93-.53,7.41-.71,2.89-.21,5.78-.33,8.68-.46,2.44-.11,4.89-.16,7.34-.23.83-.02,1.66-.02,2.49-.01,6.07.05,12.14.06,18.21.17,3.2.06,6.39.24,9.58.46,2.13.15,4.26.44,6.38.73.51.07,1.28.07,1.32.8.03.62-.66.77-1.13.96-3.08,1.22-6.15,2.46-9.26,3.6-3.18,1.16-6.41,2.2-9.61,3.3-1.36.47-1.51.71-1.51,2.14,0,.15,0,.3,0,.45.05.72.29.95,1,.79.88-.19,1.74-.46,2.61-.71,4.78-1.35,9.56-2.7,14.35-4.04,1.34-.38,2.69-.73,4.04-1.06.33-.08.69-.01,1.07-.01-.24,1.53-1.03,2.22-2.29,2.58-1.67.47-3.3,1.05-4.94,1.6-8.29,2.77-16.57,5.54-24.86,8.3-6.93,2.31-13.87,4.59-20.81,6.89-4.47,1.48-8.93,2.96-13.4,4.44-3.64,1.21-7.28,2.43-10.93,3.64-4.43,1.48-8.86,2.95-13.3,4.42-2.68.89-5.36,1.77-8.05,2.63-.95.3-1.34.02-1.41-.96-.05-.64-.06-1.28-.08-1.92-.02-.57-.32-.82-.87-.78-.22.02-.45.05-.66.12-1.99.58-3.97,1.16-5.96,1.75-2.85.85-5.7,1.7-8.55,2.56-1.98.6-3.95,1.23-5.94,1.82-.71.21-1.07.66-1.06,1.4,0,.23-.02.45-.02.68,0,10.38,0,20.75,0,31.13,0,.34,0,.68.05,1.02.1.61.43.79,1.04.58.21-.07.41-.18.61-.28,7.16-3.7,14.33-7.41,21.49-11.11,5.16-2.66,10.32-5.31,15.48-7.97,1.37-.71,2.72-1.47,4.11-2.14.94-.46,1.3-1.2,1.32-2.17.02-.94.03-1.89,0-2.83-.07-2.25-.68-1.92-2.06-1.29-5.13,2.37-10.27,4.73-15.4,7.09-.24.11-.48.23-.74.28-.56.11-.87-.09-.98-.65-.06-.33-.06-.68-.06-1.01,0-1.96,0-3.92,0-5.89,0-1.69.12-1.9,1.69-2.52,3.64-1.43,7.3-2.84,10.95-4.26,6.25-2.42,12.5-4.84,18.75-7.27,4.7-1.83,9.4-3.68,14.1-5.51,4.49-1.75,8.99-3.48,13.49-5.23,4.63-1.8,9.25-3.64,13.89-5.44,5.62-2.19,11.24-4.36,16.86-6.53,2.14-.83,4.28-1.68,6.43-2.48.43-.16,1.05-.33,1.4-.14.87.46,1.58.2,2.36-.13,6.59-2.78,13.19-5.55,19.78-8.33,1.29-.54,1.51-1.08,1.03-2.38-.28-.76-.43-.85-1.25-.76-.25.03-.51-.01-.85-.02.11-.2.12-.24.14-.25.38-.16.75-.32,1.13-.48.64-.28,1.12-.86.95-1.24-.23-.54-.73-.56-1.24-.57-3.05-.06-6.1-.14-9.15-.22-2.33-.06-4.67-.13-7-.23-3.46-.14-6.92-.3-10.38-.45-3.76-.16-7.52-.3-11.28-.46-1.92-.08-3.83-.18-5.75-.28-2.74-.13-5.49-.28-8.23-.4-2.41-.1-4.82-.16-7.22-.23-2.9-.08-5.8-.22-8.7-.22-5.58,0-11.16.07-16.74.15-2.3.03-4.59.15-6.89.22-.94.03-1.89,0-2.82.09-2.66.25-5.3.57-7.96.81-3.98.35-7.9,1.06-11.81,1.83-3.66.72-7.28,1.61-10.81,2.81-3.6,1.23-7.1,2.73-10.48,4.51-3.11,1.64-6.07,3.52-8.47,6.15-2.52,2.75-4,5.91-3.52,9.75.25,2,1.03,3.76,2.45,5.23,1.87,1.93,4.2,3,6.71,3.8ZM95.04,4.82c3.7,7.16,7.41,14.33,11.11,21.49,2.66,5.16,5.31,10.32,7.97,15.48.71,1.37,1.47,2.72,2.14,4.11.43.89,1.13,1.28,2.06,1.3,1.13.03,2.26.02,3.4,0,.26,0,.52-.09.77-.16.44-.12.61-.4.46-.85-.09-.25-.16-.5-.27-.74-2.24-4.86-4.48-9.72-6.71-14.58-.22-.48-.45-.95-.65-1.44-.39-.98-.11-1.39.97-1.46.11,0,.23,0,.34,0,2.15,0,4.3.03,6.45-.01,1.06-.02,1.69.41,2.06,1.39.77,2.04,1.6,4.06,2.39,6.1,2.76,7.13,5.52,14.26,8.28,21.39,2.77,7.17,5.52,14.34,8.28,21.51,2.7,6.99,5.41,13.98,8.13,20.97,1.9,4.88,3.8,9.75,5.7,14.63,1.31,3.37,2.63,6.74,3.91,10.12.18.47.35,1.13.15,1.51-.44.84-.19,1.51.12,2.25,2.78,6.59,5.55,13.19,8.33,19.79.57,1.35,1.25,1.62,2.58,1.04.43-.19.66-.46.63-.95-.02-.34-.2-.71.16-1.09.63.77.45,2.09,1.87,2.25.14-.26.4-.55.44-.87.11-.9.15-1.8.17-2.7.11-4.52.18-9.04.31-13.56.08-2.82.25-5.64.37-8.46.09-2.07.16-4.14.23-6.21.04-1.32.02-2.64.09-3.96.18-3.27.41-6.53.58-9.8.11-2.1.17-4.21.24-6.32.15-4.1.36-8.2.43-12.3.09-5.32.07-10.64.09-15.96,0-1.51.03-3.02-.02-4.53-.12-3.5-.29-6.99-.43-10.49-.03-.72-.03-1.43-.1-2.15-.27-2.65-.52-5.31-.86-7.96-.68-5.46-1.7-10.85-3.09-16.17-1.39-5.35-3.47-10.43-6.02-15.32-1.58-3.02-3.44-5.85-5.97-8.18-2.78-2.56-5.96-4.06-9.84-3.56-1.96.25-3.69,1.01-5.13,2.39-2,1.91-3.11,4.31-3.89,6.91-1.28,4.26-1.6,8.66-1.6,13.06,0,3.23.28,6.46.47,9.69.08,1.39.23,2.77.39,4.15.24,2.02.47,4.04.78,6.04.38,2.41.82,4.82,1.28,7.22.18.94.53,1.2,1.49,1.22,1.4.04,2.79.04,4.19,0,1.06-.03,1.32-.33,1.33-1.38.01-2.04-.04-4.08.01-6.11.06-2.41.15-4.81.7-7.18.38-1.62.79-3.22,1.65-4.67,1.01-1.7,2.41-2.8,4.48-2.75,1.51.04,2.85.61,4.04,1.56,1.96,1.58,3.22,3.67,4.26,5.91,1.81,3.92,3,8.04,3.79,12.27.68,3.7,1.41,7.39,1.86,11.12.54,4.47.85,8.98,1.19,13.48.22,2.89.34,5.78.46,8.68.11,2.97.22,5.95.22,8.93,0,5.09-.08,10.18-.14,15.27-.01,1.24-.02,2.49-.09,3.73-.17,2.96-.34,5.93-.6,8.89-.15,1.68-.45,3.35-.74,5.02-.06.32-.34.73-.62.83-.43.15-.63-.31-.79-.65-.34-.71-.7-1.42-.97-2.16-1.74-4.74-3.46-9.48-5.17-14.23-.37-1.03-.67-2.08-1.03-3.11-.41-1.15-.7-1.35-1.9-1.36-.23,0-.45-.01-.68,0-.66.06-.84.27-.77.95.03.26.1.52.17.77.8,2.83,1.6,5.65,2.39,8.48,1.05,3.73,2.11,7.46,3.16,11.2.15.54.3,1.08.03,1.69-1.14-.26-2.05-.69-2.36-1.96-.22-.88-.55-1.72-.84-2.58-2.15-6.47-4.31-12.93-6.46-19.4-1.45-4.36-2.88-8.72-4.33-13.08-1.17-3.54-2.37-7.07-3.54-10.61-1.78-5.36-3.54-10.73-5.32-16.09-1.14-3.43-2.31-6.85-3.44-10.29-2.15-6.55-4.28-13.1-6.41-19.66-.55-1.68-1.1-3.36-1.62-5.05-.25-.83.03-1.21.87-1.28.52-.05,1.06-.03,1.58-.06,1.18-.06,1.42-.35,1.14-1.46-.23-.87-.5-1.74-.76-2.6-.83-2.78-1.68-5.55-2.51-8.33-.93-3.1-1.85-6.2-2.8-9.3-.37-1.22-.59-1.35-1.85-1.39-.19,0-.38,0-.57,0-10.19,0-20.38,0-30.56,0-.38,0-.76,0-1.13.04-.89.08-1.09.44-.73,1.28.06.14.14.27.21.4ZM25.55,13.69c4.5,6.78,9.83,12.88,15.5,18.67,4.46,4.55,9.06,8.97,13.62,13.42,3.38,3.29,6.78,6.54,10.22,9.77,3.19,2.99,6.39,5.96,9.66,8.86,6.47,5.72,13.12,11.2,20.1,16.29.63.46,1.2,1.05,1.63,1.69,3.8,5.65,8.24,10.77,12.99,15.62,2.56,2.61,5.2,5.15,7.81,7.71,2.35,2.29,4.72,4.56,7.07,6.85,3.43,3.34,6.85,6.69,10.28,10.05,2.1,2.06,4.17,4.14,6.29,6.17,3.38,3.23,6.79,6.43,10.19,9.63,3.15,2.97,6.32,5.93,9.46,8.91,1.13,1.07,2.31,1.96,4,1.54.11-.03.23,0,.34,0,.81.06,1.57.04,1.9-.88.53.31.96.64,1.44.83.22.09.61-.03.8-.2.12-.11.09-.49.02-.71-.09-.32-.27-.62-.42-.92-2.06-4.11-4.11-8.23-6.17-12.34-1.28-2.56-2.59-5.11-3.88-7.67-.28-.55-.59-1.06-1.22-1.27-.69-.23-1.09-.75-1.42-1.37-2.06-3.9-4.15-7.78-6.22-11.67-3.69-6.95-7.37-13.91-11.06-20.87-2.51-4.73-5.02-9.45-7.55-14.17-2.77-5.19-5.55-10.37-8.33-15.55-3.16-5.87-6.28-11.77-9.5-17.61-4.28-7.77-8.9-15.32-14.18-22.45-4.18-5.65-8.73-10.96-14.03-15.61-2.33-2.05-4.86-3.81-7.79-4.94-1.7-.66-3.47-1.05-5.28-1.04-2.16,0-3.5.92-4.04,2.78-.25.85-.42,1.8-.32,2.66.21,1.67.56,3.34.99,4.97,1.28,4.81,3.56,9.19,5.94,13.52,3.01,5.46,6.43,10.66,10.12,15.67,7.85,10.65,15.76,21.26,23.66,31.87,5.83,7.83,11.7,15.63,17.53,23.47,5.87,7.89,11.7,15.81,17.56,23.72,1.3,1.76,2.6,3.51,3.91,5.27.51.68.61,1.35-.01,2.14-.45-.19-.82-.39-1.21-.49-1.01-.24-1.71-.87-2.34-1.66-1.45-1.83-2.92-3.64-4.41-5.44-6.33-7.67-12.67-15.33-19.01-22.99-7.13-8.62-14.28-17.22-21.41-25.84-10.11-12.21-20.22-24.43-30.33-36.65-1.61-1.94-3.22-3.88-4.8-5.85-.62-.78-.4-1.23.57-1.34.22-.02.46,0,.68-.05.42-.1,1.03-.1,1.21-.38.32-.47-.2-.89-.5-1.26-5.28-6.63-10.58-13.25-15.83-19.9-.78-.98-1.64-1.38-2.89-1.37-6.41.05-12.83.03-19.24.01-.94,0-1.87-.17-2.81-.21-1.65-.06-2.63.94-2.53,2.6.02.37.1.75.2,1.11.63,2.47,1.62,4.79,3.03,6.9ZM139.24,109.55c-2.32-3.39-4.65-6.78-6.98-10.16-3.49-5.06-6.99-10.11-10.48-15.16-5.57-8.07-11.15-16.12-16.68-24.21-3.81-5.57-7.58-11.16-11.29-16.8-1.9-2.9-3.55-5.96-4.92-9.15-.79-1.83-1.57-3.68-1.51-5.74,0-.3.03-.6.12-.89.28-.92.96-1.3,1.91-1.09,1.98.44,3.58,1.54,5.01,2.92,3.16,3.05,5.81,6.52,8.39,10.06,3.76,5.15,6.99,10.65,10.23,16.13,6.04,10.22,12.08,20.44,18.12,30.66,2.72,4.61,5.45,9.21,8.16,13.82,4.7,7.99,9.39,15.98,14.06,23.99.29.5.52,1.11.54,1.67.03.75.22,1.39.6,2.02,2.24,3.62,4.48,7.24,6.69,10.88,1.74,2.87,3.42,5.77,5.13,8.65-.08.06-.15.12-.23.19-.47-.61-.98-1.2-1.41-1.84-3.61-5.34-7.21-10.69-10.81-16.04-.55-.81-1.11-1.62-1.64-2.44-.42-.65-.91-1.16-1.66-1.46-.42-.17-.78-.59-1.05-.98-3.44-5-6.86-10.02-10.29-15.02ZM109.57,90.7c.26-.02.53,0,.95,0,.87-.2,1.57.3,2.21,1.02,3.9,4.43,7.81,8.86,11.73,13.28,3.31,3.75,6.65,7.48,9.95,11.23,2.31,2.63,4.6,5.27,6.89,7.92.31.35.78.78.31,1.26-.4.41-.95.21-1.35-.09-.9-.68-1.79-1.37-2.62-2.14-2.28-2.14-4.55-4.29-6.77-6.49-2.52-2.49-5.03-4.99-7.49-7.54-4.23-4.4-8.51-8.74-12.29-13.54-.68-.86-1.31-1.75-1.94-2.64-.21-.3-.4-.65-.51-1-.23-.78.11-1.22.93-1.28ZM49.96,27.31c.93-.1,1.87-.14,2.81-.21v.04c.31,0,.61,0,.91,0,1.41-.05,2.45.49,3.4,1.6,3.2,3.75,6.51,7.41,9.78,11.1,3.71,4.2,7.42,8.41,11.14,12.6,3.92,4.42,7.85,8.84,11.77,13.26.35.39.7.79.99,1.23.4.6.22,1.01-.51,1.1-1.48.18-2.92.09-4.31-.55-1.93-.9-3.61-2.19-5.25-3.51-3.85-3.09-7.57-6.33-11.07-9.82-3.63-3.62-7.26-7.24-10.81-10.93-3.24-3.37-6.33-6.87-8.84-10.84-.42-.67-.81-1.36-1.17-2.06-.17-.33-.3-.7-.35-1.06-.16-1.13.38-1.83,1.51-1.95ZM5.53,39.15c4.53,6.13,9.56,11.84,14.82,17.34,5.42,5.67,11.15,11.03,17.07,16.17,6.97,6.05,14.07,11.94,21.4,17.55,6.11,4.68,12.32,9.21,18.9,13.21,3.8,2.31,7.68,4.48,11.93,5.91,2.52.84,4.81,2.15,6.98,3.67,2.69,1.89,5.16,4.05,7.48,6.37,6.39,6.42,12.71,12.89,19.04,19.37.97.99,1.83,2.1,2.73,3.16.17.2.25.48.36.72-.06.05-.12.1-.19.15-.55-.37-1.14-.7-1.65-1.11-3.76-3.02-7.5-6.06-11.25-9.09-.76-.62-1.49-1.27-2.27-1.87-.21-.16-.61-.29-.79-.19-.2.11-.33.49-.34.76-.04.77.35,1.33.94,1.83,4.82,4.05,9.62,8.11,14.42,12.17.54.46,1.12.89,1.34,1.67-.66.57-1.25.53-1.85.13-.31-.21-.62-.44-.91-.67-3.78-3-7.55-6-11.33-9-14.05-11.15-28.1-22.29-42.15-33.44-12.78-10.14-25.56-20.28-38.35-30.42-1.45-1.15-2.88-2.31-4.34-3.43-.9-.69-1.44-1.5-1.34-2.68.05-.52-.03-1.06.01-1.58.07-1.01-.4-1.69-1.15-2.31-6.72-5.53-13.42-11.08-20.13-16.62-.26-.22-.52-.44-.82-.6-.53-.3-.87-.13-.95.46-.05.33-.05.68-.05,1.02,0,10.57,0,21.13-.02,31.7,0,1.15.42,1.86,1.41,2.46,5.12,3.05,10.2,6.16,15.29,9.24,6.93,4.2,13.86,8.4,20.79,12.6,1.68,1.02,3.35,2.04,5.04,3.03,1.13.66,1.46.5,1.55-.81.09-1.2.05-2.41,0-3.62-.04-.87-.49-1.51-1.26-2-2.85-1.84-5.67-3.73-8.5-5.61-2.92-1.94-5.83-3.9-8.78-5.79-.95-.61-1.47-1.37-1.48-2.46-.02-2.23-.04-4.45.02-6.68.02-.51-.12-1.26.51-1.51.6-.24,1.04.31,1.49.64,11.84,8.71,23.67,17.44,35.53,26.13.98.72,1.42,1.56,1.39,2.77-.05,1.81.03,3.62-.03,5.43-.04,1.03.37,1.71,1.2,2.25,6.14,3.98,12.27,7.97,18.4,11.95.32.2.64.42.98.56.49.2.79.01.9-.52.05-.26.04-.53.04-.79,0-.91,0-1.81,0-2.72,0-.51.06-.98.69-1.36.41.25.91.49,1.35.82,3.74,2.74,7.47,5.49,11.21,8.24,5.52,4.07,11.05,8.14,16.57,12.21,1.91,1.41,3.82,2.83,5.73,4.24.64.47,1.09,1.04,1.06,1.88-.02.52.12,1.2-.46,1.39-.36.11-.87-.24-1.32-.39-.03-.01-.06-.04-.1-.06-4.24-2.81-8.48-5.63-12.73-8.44-1.04-.69-2.07-1.39-3.13-2.03-.75-.46-1.12-.27-1.25.57-.16,1.05.09,1.91,1.1,2.49,1.96,1.14,3.87,2.34,5.81,3.51,4.32,2.61,8.65,5.22,12.96,7.85.57.34,1.18.67,1.43,1.35-.99.87-1.31.93-2.31.39-1.03-.56-2.03-1.15-3.05-1.72-7.28-4.04-14.56-8.08-21.85-12.12-8.67-4.81-17.34-9.61-26-14.42-7.84-4.35-15.68-8.72-23.51-13.08-7.24-4.03-14.46-8.11-21.75-12.05-1.48-.8-1.92-1.78-1.87-3.33.08-2.29.01-2.28-1.89-3.4-6.14-3.61-12.28-7.22-18.42-10.83-.52-.31-1.03-.62-1.58-.88-.74-.35-1.05-.18-1.14.62-.05.45-.04.9-.04,1.36,0,4.53,0,9.06,0,13.58,0,5.89,0,11.77,0,17.66,0,1.48.24,1.82,1.52,2.29,6.33,2.33,12.65,4.65,18.98,6.97,5.94,2.18,11.88,4.36,17.82,6.53,1.49.54,2.97,1.09,4.47,1.6.79.27.99.12,1.19-.68.04-.15.11-.29.11-.44,0-1.21.03-2.42,0-3.62-.03-.9-.47-1.53-1.35-1.89-4.14-1.73-8.26-3.49-12.39-5.24-1.63-.69-3.26-1.38-4.9-2.05-.76-.31-1.3-.74-1.3-1.65,0-.3-.11-.59-.11-.89-.01-2.04-.04-4.08,0-6.11.05-2.2.66-2.15,2.2-1.38,7.24,3.65,14.49,7.26,21.74,10.88,4.45,2.22,8.9,4.44,13.38,6.61,1.18.57,1.68,1.36,1.63,2.65-.07,1.73-.02,3.47-.02,5.21,0,1.45.15,1.66,1.45,2.19,3.69,1.52,7.38,3.05,11.07,4.57,2.51,1.03,5.01,2.08,7.53,3.09,1.04.42,1.41.16,1.46-.93.02-.38,0-.75,0-1.13,0-.79-.03-1.59.01-2.38.06-1.04.52-1.32,1.49-.94.11.04.21.09.31.14,1.25.61,2.51,1.22,3.75,1.84,4.65,2.32,9.31,4.65,13.96,6.98,5.23,2.61,10.44,5.25,15.68,7.83,1.07.53,1.51,1.27,1.4,2.43-.09.92-.48,1.21-1.34.94-.18-.06-.36-.13-.53-.2-4.16-1.77-8.31-3.54-12.48-5.31-1.18-.5-2.37-.96-3.55-1.46-.42-.18-.74-.11-.96.28-.57,1-.02,2.49,1.06,2.9,2.47.92,4.94,1.83,7.42,2.74,3.78,1.39,7.57,2.77,11.35,4.17.52.19,1.06.38,1.35.92-.86,1.16-1.42,1.26-2.63.88-3.19-1.02-6.39-2.02-9.58-3.04-4.66-1.48-9.32-2.98-13.99-4.47-4.7-1.5-9.41-2.98-14.11-4.47-4.49-1.43-8.97-2.87-13.45-4.29-5.85-1.86-11.7-3.7-17.56-5.55-4.45-1.41-8.9-2.83-13.35-4.24-3.77-1.19-7.54-2.38-11.31-3.57-1.04-.33-2.08-.67-3.12-1.01-.82-.26-1.24-.8-1.21-1.68.02-.56,0-1.13-.02-1.7-.03-1.38-.19-1.59-1.48-2.05-1.95-.68-3.91-1.36-5.86-2.05-4.73-1.66-9.45-3.32-14.18-4.97-1.52-.53-1.76-.33-1.76,1.32,0,6.83,0,13.66,0,20.49,0,2.96.86,5.64,2.53,8.06,1.49,2.17,3.44,3.9,5.62,5.35,5.25,3.51,11.06,5.83,17.01,7.76,3.72,1.21,7.52,2.21,11.33,3.05,3.89.86,7.82,1.54,11.77,2.08,4.8.66,9.63,1.13,14.45,1.63,1.72.18,3.46.19,5.18.31,3.6.26,7.19.59,10.79.8,3.68.21,7.37.32,11.05.46,4.33.16,8.65.33,12.98.45,3.8.11,7.61.15,11.42.24,2.41.06,4.82.19,7.23.21,3.24.03,6.47.17,9.7.45,2.66.23,5.33.44,7.99.5,1.91.04,3.83-.13,5.75-.28.94-.07,1.23-.49,1.23-1.42,0-.56-.05-1.13-.07-1.69-.07-2.85.32-5.69-.31-8.54-.21-.96-.45-1.78-1.11-2.49-.49-.52-.92-1.09-1.41-1.62-3.13-3.37-6.26-6.73-9.41-10.08-3.69-3.93-7.39-7.85-11.09-11.77-2.74-2.9-5.48-5.81-8.25-8.69-4.2-4.38-8.4-8.77-12.66-13.1-3.76-3.82-7.57-7.58-11.43-11.3-2.66-2.56-5.4-5.04-8.16-7.49-3.67-3.25-7.53-6.26-11.65-8.93-2.55-1.65-5.26-2.91-8.26-3.54-1.32-.28-2.62-.69-3.88-1.19-3.07-1.23-5.81-3.03-8.39-5.08-5.07-4.04-9.83-8.44-14.55-12.87-2.83-2.66-5.51-5.47-8.18-8.29-1.9-1.99-3.65-4.12-5.05-6.51-.5-.84-.92-1.71-1.05-2.72-.16-1.29.75-1.68,1.65-1.35.21.08.42.18.61.3,1.52.91,3.09,1.75,4.54,2.75,4.85,3.34,9.38,7.09,13.85,10.91.33.28.71.51,1.22.88.16-.49.35-.82.37-1.15.04-.94.04-1.89,0-2.83-.04-.97-.36-1.81-1.09-2.52-1.08-1.05-2.1-2.17-3.15-3.25-2.55-2.63-5.09-5.25-7.65-7.87-4.21-4.32-8.42-8.65-12.63-12.97-2.32-2.37-4.66-4.73-6.98-7.1-1.71-1.76-3.39-3.55-5.09-5.31-1.79-1.84-3.58-3.67-5.39-5.49-.27-.27-.64-.44-1.14-.78-.12.6-.25.98-.26,1.36-.03,1.24.02,2.49-.02,3.74-.02.85.26,1.54.86,2.13.81.79,1.64,1.56,2.44,2.36,1.12,1.12,2.22,2.26,3.31,3.4.21.22.32.52.48.79-.07.08-.13.16-.2.24-.5-.21-1.01-.39-1.5-.63-1.59-.78-3.18-1.56-4.91-1.98-1.96-.47-3.06.25-3.36,2.23-.05.36-.02.75.03,1.12.22,1.86.79,3.62,1.7,5.23,1.17,2.06,2.37,4.12,3.78,6.03ZM123.2,171.3c-1.29.55-2.65.83-4.05.9-.38.02-.75,0-1.13,0,0,0,0,.02,0,.03-2.82-.15-5.63-.3-8.45-.44-1.95-.1-3.91-.14-5.86-.28-2.25-.15-4.49-.38-6.74-.56-2.47-.2-4.95-.35-7.42-.57-2.43-.22-4.86-.51-7.28-.77-3.25-.35-6.5-.66-9.75-1.04-2.09-.25-4.17-.6-6.25-.89-4.47-.62-8.91-1.45-13.31-2.45-4.04-.92-8.04-1.98-11.92-3.46-2.92-1.12-5.8-2.35-8.39-4.15-1.84-1.28-3.34-2.85-4.04-5.01-.31-.95-.47-1.97-.54-2.97-.09-1.35-.03-2.71-.02-4.07.01-1.47.43-1.8,1.89-1.43,3.03.77,6.04,1.58,9.06,2.36,4.37,1.14,8.74,2.26,13.11,3.4,3.1.81,6.19,1.63,9.28,2.44,4.84,1.27,9.68,2.53,14.53,3.79,6.23,1.62,12.46,3.23,18.68,4.84,5.86,1.52,11.73,3.05,17.59,4.58,3.6.94,7.2,1.9,10.81,2.85.7.18,1.28.47,1.37,1.29.07.64-.37,1.29-1.18,1.64Z"/></g></svg>