<svg width="200" height="52" viewBox="0 0 200 52" fill="none" xmlns="http://www.w3.org/2000/svg">
<path fill-rule="evenodd" clip-rule="evenodd" d="M7.52049 0H16.6569L9.13646 16.4394H0L7.52049 0ZM0.310764 51.4936L23.8356 0H32.9721L9.44722 51.4936H0.310764ZM49.0242 48.4306V50.2994H47.7425L49.0134 48.4306H49.0242ZM49.972 50.2994H49.455V47.779H49.0888L47.3493 50.2617V50.7033H49.0242V51.5973H49.455V50.7033H49.972V50.2994ZM44.7659 49.1307C44.7551 48.9369 44.7749 48.7573 44.8251 48.5922C44.8754 48.427 44.9526 48.2852 45.0567 48.1667C45.1644 48.0447 45.2973 47.9495 45.4552 47.8813C45.6132 47.8131 45.7927 47.779 45.9938 47.779C46.1589 47.779 46.3133 47.8041 46.4569 47.8544C46.6041 47.901 46.7316 47.9711 46.8393 48.0644C46.947 48.1542 47.0314 48.2673 47.0924 48.4037C47.1571 48.5401 47.1894 48.6981 47.1894 48.8776C47.1894 49.0464 47.1624 49.1954 47.1086 49.3246C47.0583 49.4539 46.9901 49.5705 46.9039 49.6747C46.8178 49.7752 46.719 49.8667 46.6077 49.9493C46.4964 50.0319 46.3815 50.1109 46.2631 50.1863L45.9076 50.4017C45.7891 50.4699 45.6796 50.5435 45.5791 50.6225C45.4822 50.7015 45.3978 50.7877 45.326 50.881C45.2578 50.9708 45.2129 51.0749 45.1914 51.1934H47.1517V51.5973H44.6582C44.6762 51.3711 44.7156 51.179 44.7767 51.021C44.8413 50.8595 44.9221 50.7194 45.019 50.601C45.116 50.4825 45.2255 50.3784 45.3475 50.2886C45.4696 50.1988 45.5971 50.1145 45.7299 50.0355C45.8915 49.935 46.0333 49.8434 46.1554 49.7608C46.2774 49.6747 46.378 49.5885 46.4569 49.5023C46.5395 49.4162 46.6006 49.3228 46.64 49.2223C46.6831 49.1217 46.7047 49.0051 46.7047 48.8722C46.7047 48.7681 46.6849 48.6748 46.6454 48.5922C46.6059 48.506 46.5521 48.4324 46.4839 48.3714C46.4192 48.3103 46.342 48.2637 46.2523 48.2314C46.1625 48.199 46.0674 48.1829 45.9669 48.1829C45.834 48.1829 45.7191 48.2116 45.6222 48.2691C45.5288 48.3229 45.4517 48.3947 45.3906 48.4845C45.3296 48.5742 45.2847 48.6766 45.256 48.7914C45.2309 48.9027 45.2201 49.0158 45.2237 49.1307H44.7659ZM43.8061 49.1417H44.4039V48.5439H44.0861C44.0861 48.4829 44.0897 48.4219 44.0969 48.3608C44.1077 48.2962 44.1256 48.2388 44.1507 48.1885C44.1759 48.1382 44.2082 48.0987 44.2477 48.07C44.2872 48.0377 44.3374 48.0215 44.3985 48.0215V47.7523C44.2979 47.7523 44.21 47.7738 44.1346 47.8169C44.0592 47.86 43.9964 47.9174 43.9461 47.9892C43.8994 48.061 43.8635 48.1454 43.8384 48.2423C43.8168 48.3357 43.8061 48.4362 43.8061 48.5439V49.1417ZM39.7455 49.4056H40.7688C41.0596 49.4056 41.2678 49.3553 41.3935 49.2548C41.5227 49.1507 41.5874 48.9963 41.5874 48.7917C41.5874 48.6552 41.5658 48.5475 41.5227 48.4685C41.4796 48.3895 41.4204 48.3285 41.345 48.2854C41.2696 48.2423 41.1817 48.2154 41.0811 48.2046C40.9842 48.1903 40.8801 48.1831 40.7688 48.1831H39.7455V49.4056ZM39.2339 47.7523H40.6287C40.7113 47.7523 40.7993 47.7541 40.8926 47.7576C40.9896 47.7576 41.0847 47.763 41.1781 47.7738C41.2714 47.781 41.3576 47.7936 41.4366 47.8115C41.5191 47.8295 41.5892 47.8564 41.6466 47.8923C41.7723 47.9677 41.8782 48.0718 41.9643 48.2046C42.0541 48.3375 42.099 48.5008 42.099 48.6947C42.099 48.8994 42.0487 49.0771 41.9482 49.2279C41.8512 49.3751 41.7112 49.4846 41.5281 49.5564V49.5672C41.7651 49.6174 41.9464 49.7251 42.072 49.8903C42.1977 50.0554 42.2605 50.2565 42.2605 50.4935C42.2605 50.6335 42.2354 50.7699 42.1851 50.9028C42.1349 51.0356 42.0595 51.1541 41.959 51.2582C41.862 51.3587 41.7399 51.4413 41.5927 51.5059C41.4491 51.567 41.2822 51.5975 41.0919 51.5975H39.2339V47.7523ZM39.7455 51.1666H41.0273C41.2535 51.1666 41.4294 51.1056 41.555 50.9835C41.6843 50.8615 41.7489 50.6927 41.7489 50.4773C41.7489 50.3516 41.7256 50.2475 41.6789 50.1649C41.6322 50.0824 41.5694 50.0177 41.4904 49.9711C41.415 49.9208 41.3271 49.8867 41.2265 49.8687C41.126 49.8472 41.0219 49.8364 40.9142 49.8364H39.7455V51.1666ZM38.3475 51.3174C38.6096 51.0697 38.7407 50.6999 38.7407 50.208V47.7523H38.229V50.208C38.229 50.5527 38.1429 50.8148 37.9705 50.9943C37.8018 51.1702 37.5541 51.2582 37.2274 51.2582C36.8827 51.2582 36.6188 51.1702 36.4357 50.9943C36.2526 50.8148 36.161 50.5527 36.161 50.208V47.7523H35.6494V50.208C35.6494 50.7214 35.7876 51.0966 36.0641 51.3336C36.3441 51.567 36.7319 51.6836 37.2274 51.6836C37.712 51.6836 38.0854 51.5616 38.3475 51.3174ZM33.0011 47.7523H33.5127V51.1666H35.5484V51.5975H33.0011V47.7523ZM31.7589 48.2958C31.9563 48.4322 32.0838 48.6369 32.1412 48.9098H32.6529C32.6241 48.7051 32.5631 48.5256 32.4698 48.3712C32.3764 48.2132 32.2597 48.0822 32.1197 47.9781C31.9797 47.874 31.8199 47.795 31.6404 47.7411C31.4609 47.6873 31.2706 47.6603 31.0695 47.6603C30.7751 47.6603 30.513 47.7142 30.2833 47.8219C30.0571 47.926 29.8668 48.0696 29.7124 48.2527C29.5616 48.4358 29.4467 48.6513 29.3677 48.899C29.2887 49.1431 29.2493 49.4052 29.2493 49.6853C29.2493 49.9653 29.2852 50.2274 29.357 50.4715C29.4324 50.7157 29.5437 50.9275 29.6909 51.107C29.8381 51.2865 30.023 51.4284 30.2456 51.5325C30.4682 51.633 30.7285 51.6833 31.0265 51.6833C31.5183 51.6833 31.9061 51.5486 32.1897 51.2794C32.4733 51.0101 32.6403 50.6331 32.6906 50.1484H32.1789C32.1682 50.3064 32.1359 50.4536 32.082 50.59C32.0281 50.7265 31.9528 50.8449 31.8558 50.9455C31.7625 51.0424 31.6494 51.1196 31.5165 51.177C31.3873 51.2309 31.2383 51.2578 31.0695 51.2578C30.8398 51.2578 30.6423 51.2147 30.4771 51.1286C30.312 51.0424 30.1756 50.9275 30.0678 50.7839C29.9637 50.6367 29.8865 50.4662 29.8363 50.2723C29.786 50.0748 29.7609 49.8666 29.7609 49.6476C29.7609 49.4465 29.786 49.2526 29.8363 49.0659C29.8865 48.8792 29.9637 48.7141 30.0678 48.5705C30.1756 48.4233 30.3102 48.3066 30.4718 48.2204C30.6369 48.1343 30.8344 48.0912 31.0642 48.0912C31.3334 48.0912 31.565 48.1594 31.7589 48.2958ZM25.305 51.1666H26.1559C26.2133 51.1666 26.2852 51.1631 26.3713 51.1559C26.4575 51.1451 26.549 51.1236 26.646 51.0912C26.7429 51.0553 26.8381 51.0051 26.9314 50.9405C27.0283 50.8758 27.1145 50.7879 27.1899 50.6766C27.2653 50.5653 27.3263 50.427 27.373 50.2619C27.4233 50.0931 27.4484 49.8903 27.4484 49.6533C27.4484 49.4235 27.4251 49.2189 27.3784 49.0394C27.3353 48.8563 27.2617 48.7019 27.1576 48.5762C27.0571 48.447 26.926 48.35 26.7645 48.2854C26.6029 48.2172 26.4036 48.1831 26.1667 48.1831H25.305V51.1666ZM24.7934 47.7523H26.1128C26.7052 47.7523 27.1612 47.9031 27.4807 48.2046C27.8003 48.5062 27.96 48.9658 27.96 49.5833C27.96 49.9064 27.9241 50.1937 27.8523 50.445C27.7805 50.6927 27.6692 50.9028 27.5184 51.0751C27.3676 51.2438 27.1755 51.3731 26.9422 51.4628C26.7088 51.5526 26.4324 51.5975 26.1128 51.5975H24.7934V47.7523ZM24.4791 47.7523H21.8241V51.5975H24.4953V51.1666H22.3357V49.8364H24.3337V49.4056H22.3357V48.1831H24.4791V47.7523ZM18.8548 47.7523H21.5099V48.1831H19.3665V49.4056H21.3645V49.8364H19.3665V51.1666H21.526V51.5975H18.8548V47.7523ZM17.6086 48.2797C17.7809 48.4017 17.8815 48.601 17.9102 48.8774H18.3949C18.3877 48.6656 18.3464 48.4843 18.271 48.3335C18.1992 48.1791 18.0987 48.0517 17.9694 47.9511C17.8438 47.8506 17.6966 47.777 17.5278 47.7303C17.3591 47.6837 17.176 47.6603 16.9785 47.6603C16.8026 47.6603 16.6302 47.6837 16.4615 47.7303C16.2964 47.7734 16.1474 47.8416 16.0145 47.935C15.8853 48.0247 15.7811 48.1414 15.7022 48.285C15.6232 48.4251 15.5837 48.592 15.5837 48.7859C15.5837 48.9618 15.6178 49.109 15.686 49.2275C15.7578 49.3424 15.8512 49.4375 15.966 49.5129C16.0845 49.5847 16.2174 49.644 16.3646 49.6907C16.5118 49.7337 16.6608 49.7732 16.8116 49.8091C16.9659 49.8414 17.1167 49.8738 17.2639 49.9061C17.4111 49.9384 17.5422 49.9815 17.6571 50.0353C17.7756 50.0856 17.8689 50.152 17.9371 50.2346C18.0089 50.3172 18.0448 50.4249 18.0448 50.5577C18.0448 50.6977 18.0161 50.8126 17.9587 50.9024C17.9012 50.9921 17.8258 51.0639 17.7325 51.1178C17.6391 51.1681 17.5332 51.204 17.4147 51.2255C17.2998 51.247 17.1849 51.2578 17.0701 51.2578C16.9264 51.2578 16.7864 51.2399 16.65 51.204C16.5136 51.1681 16.3933 51.1124 16.2892 51.037C16.1886 50.9616 16.1061 50.8665 16.0414 50.7516C15.9804 50.6331 15.9499 50.4931 15.9499 50.3315H15.4652C15.4652 50.5649 15.5065 50.7677 15.5891 50.9401C15.6752 51.1088 15.7901 51.2488 15.9337 51.3601C16.0809 51.4678 16.2497 51.5486 16.44 51.6025C16.6338 51.6563 16.8385 51.6833 17.0539 51.6833C17.2298 51.6833 17.4058 51.6617 17.5817 51.6186C17.7612 51.5792 17.9228 51.5145 18.0664 51.4248C18.21 51.3314 18.3267 51.2129 18.4164 51.0693C18.5098 50.9221 18.5564 50.7462 18.5564 50.5415C18.5564 50.3513 18.5205 50.1933 18.4487 50.0676C18.3805 49.942 18.2872 49.8379 18.1687 49.7553C18.0538 49.6727 17.9228 49.6081 17.7756 49.5614C17.6284 49.5111 17.4776 49.4681 17.3232 49.4321C17.1724 49.3962 17.0234 49.3639 16.8762 49.3352C16.729 49.3029 16.5961 49.2634 16.4777 49.2167C16.3628 49.1701 16.2694 49.1108 16.1976 49.039C16.1294 48.9636 16.0953 48.8667 16.0953 48.7482C16.0953 48.6225 16.1186 48.5184 16.1653 48.4358C16.2156 48.3497 16.2802 48.2815 16.3592 48.2312C16.4418 48.1809 16.5351 48.145 16.6392 48.1235C16.7433 48.1019 16.8493 48.0912 16.957 48.0912C17.2226 48.0912 17.4399 48.154 17.6086 48.2797Z" fill="black"/>
<path fill-rule="evenodd" clip-rule="evenodd" d="M115.074 30.2773C121.526 33.0921 129.814 34.8082 138.747 35.2132C140.139 35.3495 141.558 35.4297 143.005 35.4418C144.942 35.4538 146.835 35.3455 148.663 35.129C156.983 34.5997 164.67 32.9237 170.733 30.2773C178.307 26.9733 182.477 22.5305 182.477 17.767C182.477 13.0035 178.307 8.5607 170.733 5.25671C164.51 2.54214 156.578 0.854055 148.01 0.37289C146.462 0.204483 144.87 0.10424 143.246 0.0962207H143.21C141.414 0.0841916 139.653 0.180425 137.949 0.364871C129.32 0.834006 121.333 2.53011 115.074 5.25671C107.5 8.5607 103.329 13.0035 103.329 17.767C103.329 22.5305 107.5 26.9733 115.074 30.2773ZM124.645 7.38185C123.999 7.87504 122.841 8.88148 121.935 10.333C120.659 10.1084 119.501 10.1606 118.47 10.2327C119.681 8.8053 121.245 7.4861 123.137 6.29522V6.30324C123.506 6.4917 124.216 6.92074 124.645 7.38185ZM133.783 8.39631C133.146 9.23032 132.797 10.6137 132.652 11.3474C131.269 11.3194 129.449 11.4557 128.442 11.5359C129.028 8.97771 130.644 7.16533 131.281 6.52778V6.5358C132.693 7.25354 133.446 7.99133 133.787 8.3923L133.783 8.39631ZM142.556 15.2729L142.541 15.2811C142.071 15.5366 141.126 16.0497 140.114 16.6924C139.521 15.4253 139 14.1783 138.651 13.2641C139.601 13.0836 141.301 13.0315 142.564 13.0315L142.548 15.2729H142.556ZM127.985 17.4342C127.376 17.9915 126.746 18.6652 126.153 19.4551C125.399 18.8817 124.637 18.2161 124.24 17.767L124.246 17.7568L124.246 17.7566L124.247 17.7564C124.485 17.3666 124.736 16.9572 125.022 16.536C125.768 15.4213 126.55 14.4269 127.139 13.7092V13.7172C127.175 14.9642 127.464 16.2032 127.985 17.4302V17.4342ZM136.899 22.2057C135.912 22.1416 134.144 22.0092 132.785 21.7206C133.198 20.9828 133.972 19.6556 135.002 18.0517C135.74 18.609 136.385 19.2185 136.726 19.7999L136.726 19.8496C136.726 20.2869 136.725 21.3075 136.899 22.2057ZM126.85 24.0382H126.858C127.235 25.1689 128.286 26.3357 128.871 26.9171C128.378 27.4103 127.568 27.8594 127.047 28.112C124.737 26.444 123.51 24.9163 122.909 24.0221C124.344 24.1023 126.06 24.0662 126.85 24.0382ZM122.444 22.8713C122.392 21.8048 122.813 20.4174 123.683 18.7694C124.392 19.4871 125.379 20.249 125.856 20.6018C126.169 21.1833 126.457 22.2097 126.63 22.9355C125.66 22.9636 123.791 22.9876 122.444 22.8713ZM128.001 23.9219C128.851 23.7695 130.395 23.4287 131.662 22.8553C132.051 23.8297 132.917 25.7824 134.108 27.3502C131.927 27.5547 130.211 26.5963 129.958 26.444C129.473 25.9949 128.414 24.8722 128.001 23.9219ZM132.861 22.8433C134.425 23.14 136.317 23.2643 137.151 23.3084C137.26 23.99 137.492 25.3012 137.745 26.1633C137.456 26.5402 136.369 26.9452 135.355 27.1336C134.232 25.8305 133.334 23.966 132.857 22.8433H132.861ZM134.717 16.4919C133.847 15.9185 133.029 15.4614 132.572 15.2168C132.805 14.05 133.246 12.9754 133.478 12.4702C135.066 12.4982 136.353 12.8631 137.071 13.1237C136.217 14.2705 135.419 15.4213 134.717 16.4879V16.4919ZM134.108 17.4061C133.057 19.0381 132.268 20.4014 131.834 21.1672C130.768 20.0285 129.93 18.8777 129.336 17.7309C130.495 16.8087 131.502 16.3034 131.923 16.123C132.46 16.3997 133.278 16.8568 134.104 17.4061H134.108ZM131.45 15.1326C130.972 15.3411 129.998 15.8343 128.871 16.7004C128.406 15.5055 128.19 14.3146 128.234 13.1197C128.234 12.9674 128.25 12.815 128.27 12.6706C129.096 12.5985 130.872 12.4461 132.276 12.4541C132.007 13.0997 131.65 14.074 131.45 15.1326ZM128.494 18.4647C129.124 19.6315 129.974 20.7783 131.045 21.921C129.894 22.4142 128.478 22.7109 127.733 22.8433H127.725C127.572 22.1897 127.283 21.067 126.915 20.2771C127.416 19.5754 127.957 18.9739 128.494 18.4647ZM123.474 16.957C122.821 16.4277 122.111 15.1607 121.75 14.3267L121.742 14.3186C121.814 13.2521 122.139 12.2977 122.576 11.4758C123.394 11.4838 125.279 11.6121 126.886 12.3378C126.149 13.1919 124.705 14.9482 123.474 16.961V16.957ZM122.893 17.8993C122.131 19.2706 121.538 20.7181 121.377 22.0253C120.463 21.0189 119.152 19.3588 118.683 17.7469C119.372 16.965 120.154 16.1591 120.992 15.3411C121.377 16.123 122.071 17.3059 122.897 17.8993H122.893ZM117.408 17.5424C116.662 18.4206 116.124 19.1383 115.748 19.6876C115.603 18.9859 115.523 18.2802 115.523 17.5625C115.531 15.8503 115.988 14.1783 116.85 12.5905C116.822 14.1623 116.894 16.3596 117.408 17.5424ZM116.169 21.087C116.385 20.7181 116.906 19.9042 117.873 18.7093C118.61 20.5417 120.098 22.2699 120.944 23.16C120.066 23.4648 118.683 23.9139 117.748 24.0742C117.059 23.1039 116.525 22.1095 116.161 21.079L116.169 21.087ZM120.639 14.1582V14.1663C119.777 14.9842 118.967 15.7902 118.25 16.5881C117.901 15.2048 117.925 12.7388 117.997 11.3675C118.091 11.3675 118.19 11.357 118.289 11.3466L118.358 11.3394L118.439 11.334C119.375 11.2714 120.337 11.2071 121.385 11.3474C121 12.1734 120.72 13.1157 120.639 14.1542V14.1582ZM121.654 24.0742C122.083 24.8642 123.169 26.5162 125.515 28.3807C124.116 28.4497 122.56 28.2952 122.033 28.2429L121.967 28.2363C120.591 27.2419 119.424 26.1713 118.482 25.0526C119.597 24.792 120.952 24.3269 121.65 24.0742H121.654ZM124.625 29.4833C125.379 29.4833 126.153 29.4473 126.814 29.331C129.04 30.8667 132.131 32.4625 136.393 33.7978V33.8058C131.726 33.072 127.424 31.5884 123.859 29.4633C124.1 29.4713 124.36 29.4793 124.621 29.4793L124.625 29.4833ZM139.81 33.6213C134.471 32.2867 130.707 30.5193 128.085 28.8119C128.621 28.5152 129.285 28.0869 129.761 27.5827C130.595 28.0118 132.544 28.7856 134.89 28.3446C135.491 29.2147 137.304 31.7007 139.81 33.6213ZM136.073 28.104C136.871 27.9155 137.969 27.5547 138.535 26.9211C139.26 27.2339 140.752 27.7993 142.476 27.8795L142.448 34.0183C139.465 32.4585 137.051 29.4432 136.073 28.104ZM138.795 25.8345H138.787C138.591 25.1248 138.39 24.0582 138.274 23.3766C138.398 23.3766 138.535 23.3766 138.659 23.3846C140.355 23.3926 141.722 23.1159 142.512 22.8994L142.496 26.7848C140.8 26.6846 139.317 26.0751 138.795 25.8345ZM138.049 22.2699L138.041 22.2619C137.845 21.5 137.817 20.4054 137.833 19.848C138.254 19.3548 138.936 18.7975 139.681 18.2882C140.391 19.6957 141.181 21.0509 141.963 21.913C141.109 22.1175 139.718 22.3541 138.049 22.2739V22.2699ZM138.382 12.1855C138.222 10.3089 138.932 8.79327 139.272 8.19181C140.824 8.48853 142.091 9.18622 142.597 9.49096L142.58 11.9128V11.9208C141.594 11.9208 139.617 11.9489 138.386 12.1815L138.382 12.1855ZM139.188 17.2978C138.507 17.775 137.849 18.2762 137.348 18.7694C136.891 18.196 136.269 17.6307 135.608 17.1375C136.265 16.1511 136.991 15.0925 137.773 14.0139C138.098 14.8199 138.599 16.0348 139.192 17.2978H139.188ZM137.288 12.0331C136.514 11.7725 135.287 11.4517 133.787 11.3875C133.984 10.4613 134.361 9.31453 134.83 8.89351C135.09 8.75718 136.474 8.08756 138.106 8.07553C137.701 8.90955 137.199 10.317 137.288 12.0331ZM123.214 10.4092C124.263 10.4813 125.878 10.6936 127.333 11.3582C127.847 9.05524 129.092 7.31695 129.946 6.34735C128.025 6.46645 125.927 7.8335 125.73 7.96177L125.716 7.97128L125.7 7.9793C125.684 7.98732 124.336 8.86544 123.214 10.4092ZM114.043 17.771C114.043 22.3541 116.954 26.5322 121.71 29.6638C115.956 26.6525 112.367 22.4383 112.367 17.771C112.367 13.1037 115.956 8.8895 121.71 5.87821C116.954 9.00578 114.043 13.1839 114.043 17.771ZM140.6 17.6667C141.658 16.9931 142.673 16.4358 143.122 16.2032C143.563 16.4438 144.577 17.0212 145.628 17.7028C144.774 19.3628 143.852 20.8865 143.086 21.5C142.332 20.8825 141.426 19.3468 140.6 17.6667ZM164 28.5531C163.603 28.5892 161.979 28.7135 160.516 28.6052C162.878 26.7728 163.992 25.1408 164.441 24.3509C165.131 24.6196 166.442 25.1208 167.549 25.4175C166.579 26.5202 165.396 27.5707 164.012 28.5411C164.012 28.5411 164.008 28.5491 164.004 28.5491L164 28.5531ZM159.112 13.9257C159.698 14.6514 160.46 15.6579 161.198 16.7886C161.474 17.2096 161.727 17.6226 161.959 18.0276C161.554 18.4687 160.785 19.1142 160.019 19.6876L160.027 19.6796C159.441 18.8737 158.824 18.2 158.214 17.6347C158.752 16.4157 159.056 15.1767 159.112 13.9297V13.9257ZM169.369 12.8832C170.223 14.4991 170.672 16.1872 170.66 17.9153C170.66 18.6331 170.572 19.3428 170.408 20.0405V20.0325C170.039 19.4831 169.518 18.7574 168.772 17.8712C169.293 16.6884 169.373 14.471 169.365 12.8832H169.369ZM168.311 24.4872C169.036 23.5096 169.601 22.488 169.998 21.4383C169.781 21.0686 169.28 20.2433 168.319 19.0421C167.553 20.8705 166.037 22.5866 165.175 23.4648C166.021 23.7855 167.368 24.2828 168.311 24.4872ZM167.978 16.9129C167.26 16.107 166.47 15.289 165.616 14.463C165.552 13.4205 165.283 12.4702 164.906 11.6361C166.129 11.4758 167.216 11.5479 168.267 11.6201C168.331 13.0115 168.339 15.5256 167.978 16.9129ZM165.219 15.6298C166.053 16.4558 166.819 17.2618 167.501 18.0597C167.016 19.6676 165.676 21.3076 164.754 22.306C164.602 20.9948 164.028 19.5513 163.291 18.1599C164.117 17.5785 164.826 16.3997 165.219 15.6298ZM163.712 23.148C162.356 23.2482 160.496 23.1921 159.525 23.156C159.706 22.4303 160.003 21.4158 160.323 20.8304C160.801 20.4896 161.807 19.7357 162.525 19.026C163.367 20.678 163.772 22.0774 163.712 23.144V23.148ZM162.749 17.2056C161.546 15.1807 160.123 13.4044 159.393 12.5463C161.009 11.8366 162.906 11.7484 163.712 11.7484C164.141 12.5824 164.449 13.5327 164.502 14.6033C164.125 15.4253 163.403 16.6844 162.749 17.2096V17.2056ZM159.257 20.4856C158.872 21.2675 158.567 22.3862 158.415 23.0438C157.677 22.8994 156.262 22.5866 155.119 22.0734C156.205 20.9507 157.068 19.8119 157.705 18.6531C158.234 19.1664 158.764 19.7758 159.257 20.4856ZM148.984 23.3926C149.838 23.3565 151.723 23.2563 153.286 22.9796C152.793 24.0903 151.875 25.9508 150.728 27.2339C149.714 27.0294 148.635 26.6244 148.358 26.2395C148.61 25.4085 148.842 24.1715 148.974 23.4728L148.988 23.3966L148.984 23.3926ZM149.453 19.8841H149.461C149.81 19.3107 150.468 18.7093 151.201 18.1599C152.208 19.7758 152.962 21.1231 153.367 21.8569C152.019 22.1255 150.251 22.2418 149.253 22.2859C149.441 21.3517 149.457 20.2851 149.449 19.8801L149.453 19.8841ZM154.473 22.9956C155.732 23.5891 157.276 23.9459 158.118 24.1103C157.697 25.0606 156.61 26.1753 156.125 26.6124C155.865 26.7648 154.16 27.707 151.967 27.4665C153.17 25.9227 154.068 23.958 154.473 22.9956ZM157.364 16.8768C156.25 15.9987 155.271 15.4935 154.806 15.281C154.626 14.2224 154.277 13.236 154.016 12.5905C155.428 12.5985 157.204 12.7709 158.022 12.8591C158.025 12.9166 158.03 12.9729 158.034 13.029L158.034 13.0296L158.034 13.0303C158.042 13.1224 158.05 13.2137 158.05 13.3082C158.078 14.5031 157.853 15.694 157.368 16.8808L157.364 16.8768ZM154.301 16.2674C154.714 16.4558 155.72 16.9691 156.859 17.9113C156.25 19.0581 155.408 20.1848 154.325 21.3116C153.904 20.5497 153.13 19.1744 152.1 17.5264C152.925 16.9891 153.751 16.54 154.301 16.2714V16.2674ZM151.526 16.6002C150.836 15.5256 150.067 14.3708 149.225 13.208C149.942 12.9553 151.233 12.6185 152.821 12.6105C153.046 13.1237 153.475 14.2064 153.691 15.3652C153.234 15.5977 152.408 16.0388 151.526 16.6042V16.6002ZM149.012 12.1133C149.128 10.4012 148.635 8.98172 148.25 8.1477C149.866 8.17577 151.249 8.86544 151.518 9.00177C151.975 9.43081 152.336 10.5896 152.525 11.5159C151.025 11.56 149.794 11.8647 149.012 12.1173V12.1133ZM148.503 14.0861C149.277 15.1647 149.994 16.2313 150.632 17.2337C149.966 17.7269 149.329 18.2762 148.872 18.8496L148.864 18.8416C148.37 18.3404 147.725 17.8271 147.039 17.35C147.649 16.0949 148.17 14.892 148.503 14.0821V14.0861ZM148.374 19.9282C148.374 20.4976 148.338 21.5722 148.134 22.334C146.462 22.3982 145.07 22.1456 144.22 21.9291C145.002 21.087 145.82 19.7317 146.546 18.3404C147.284 18.8697 147.965 19.427 148.378 19.9282H148.374ZM147.476 23.4367H147.873C147.749 24.1184 147.54 25.1849 147.324 25.8866H147.332C146.811 26.1192 145.303 26.7206 143.615 26.7928L143.643 22.9074C144.433 23.132 145.788 23.4287 147.476 23.4367ZM147.557 26.9813C148.114 27.6188 149.208 27.9957 149.998 28.1922C149 29.5194 146.55 32.4986 143.551 34.0263L143.595 27.8875C145.319 27.8353 146.819 27.286 147.557 26.9813ZM151.169 28.4609V28.4528C153.511 28.93 155.46 28.1762 156.306 27.7632C156.771 28.2844 157.444 28.7215 157.986 29.0302C155.444 30.6181 151.662 32.3783 146.177 33.6775C148.699 31.7849 150.56 29.327 151.169 28.4649V28.4609ZM157.192 27.0976C157.785 26.5242 158.844 25.3654 159.241 24.2427C160.039 24.2787 161.747 24.3309 163.19 24.2707C162.669 25.0526 161.655 26.3076 159.866 27.699C159.606 27.9035 159.317 28.112 159.012 28.3285C158.499 28.0759 157.685 27.6108 157.188 27.0976H157.192ZM168.928 25.5378C169.008 25.4736 169.073 25.3934 169.109 25.2972V25.2892C169.971 24.1504 170.636 22.9555 171.093 21.7005C171.13 21.6363 171.158 21.5762 171.166 21.504C171.563 20.3452 171.775 19.1423 171.783 17.9153C171.811 13.4084 169.069 9.27443 164.55 6.1228C170.039 9.11404 173.439 13.236 173.439 17.775C173.439 22.0654 170.404 25.9829 165.44 28.922C166.799 27.8835 167.978 26.7527 168.932 25.5378H168.928ZM167.741 10.4894C166.727 10.4252 165.596 10.4092 164.337 10.6137C163.447 9.15013 162.308 8.13567 161.671 7.63446C162.092 7.22948 162.793 6.84455 163.279 6.62803C165.083 7.80287 166.575 9.10602 167.741 10.4854V10.4894ZM163.038 10.6578C161.991 10.7099 160.376 10.8984 158.916 11.5479C158.431 9.23433 157.212 7.49011 156.366 6.51175C158.334 6.66162 160.48 8.12274 160.573 8.18583L160.576 8.1878C160.604 8.20384 161.931 9.09399 163.038 10.6538V10.6578ZM157.837 11.7364C156.831 11.6361 155.011 11.4758 153.627 11.4958V11.4878C153.483 10.742 153.162 9.36264 152.533 8.5166C152.881 8.12365 153.647 7.39388 155.067 6.69619C155.696 7.33373 157.284 9.17419 157.841 11.7404L157.837 11.7364ZM147.737 7.05306C149.435 6.95295 150.941 7.51668 151.66 7.84966C152.037 7.41245 152.803 6.68343 154.12 5.95841C152.372 4.73946 147.825 1.76025 144.621 1.30314C145.52 2.37774 146.875 4.31443 147.737 7.05306ZM147.897 12.2577C146.674 11.997 144.694 11.9449 143.711 11.9329L143.727 9.511C144.228 9.20627 145.504 8.52462 147.059 8.24394C147.392 8.85341 148.074 10.3811 147.893 12.2536L147.897 12.2577ZM147.629 13.3042C147.26 14.2104 146.731 15.4494 146.121 16.7124C145.115 16.0588 144.164 15.5175 143.695 15.2689L143.711 13.0275C144.978 13.0355 146.674 13.1157 147.625 13.3042H147.629ZM159.213 29.5475C159.938 29.6838 160.801 29.7359 161.602 29.744H162.088C158.748 31.6325 154.622 33.0359 150.035 33.7577C154.072 32.5026 157.047 30.999 159.213 29.5475ZM174.442 17.771C174.442 13.3002 171.418 9.2183 166.454 6.11879C172.425 9.11003 176.122 13.228 176.122 17.771C176.122 22.314 172.425 26.432 166.458 29.4232C171.422 26.3237 174.446 22.2418 174.446 17.771H174.442ZM153.018 2.3617C153.439 2.46195 153.856 2.56219 154.269 2.67446H154.273C157.164 3.46437 159.838 4.56303 162.196 5.93836C161.739 6.19097 161.173 6.54783 160.768 6.9889V6.99692C159.79 6.39546 157.376 5.09632 155.299 5.45318C154.541 4.90385 151.839 2.99524 148.944 1.62392C150.343 1.80836 151.707 2.05697 153.018 2.3617ZM146.642 7.21344C145.657 4.2048 144.035 2.24485 143.324 1.48557C142.681 2.08529 140.823 4.00519 139.73 7.16934C141.345 7.51818 142.629 8.2279 143.178 8.56872C143.723 8.23592 145.018 7.54625 146.642 7.21344ZM138.607 6.99692C136.911 6.87262 135.391 7.42596 134.673 7.74272C134.304 7.30166 133.559 6.56788 132.259 5.82208C134.048 4.65525 138.607 1.84846 141.823 1.41541C140.88 2.45794 139.489 4.31443 138.607 6.99692ZM131.065 5.30082C128.992 4.91588 126.574 6.17092 125.579 6.76436C125.194 6.31527 124.653 5.93034 124.232 5.66169C127.059 4.06583 130.339 2.87895 133.875 2.12914L133.876 2.12911L133.876 2.1291L133.876 2.12908L133.876 2.12906L133.876 2.12905L133.876 2.12903L133.876 2.12902L133.876 2.129L133.876 2.12899L133.876 2.12897L133.876 2.12895L133.876 2.12894L133.876 2.12892L133.877 2.12891L133.877 2.12889L133.877 2.12888L133.877 2.12887L133.877 2.12885L133.877 2.12884L133.877 2.12882C134.109 2.08082 134.341 2.03281 134.573 1.9888C134.622 1.97836 134.671 1.97094 134.717 1.96392L134.737 1.96073C135.748 1.77629 136.786 1.62793 137.841 1.51165C134.786 2.8148 131.863 4.76351 131.061 5.30482L131.065 5.30082ZM111.365 17.771C111.365 22.2418 114.388 26.3197 119.352 29.4232C113.382 26.432 109.685 22.314 109.685 17.771C109.685 13.228 113.382 9.11003 119.352 6.11879C114.388 9.2183 111.361 13.3002 111.361 17.771H111.365ZM177.12 17.771C177.12 13.4124 173.996 9.42279 168.844 6.35136C175.007 9.32255 178.8 13.3483 178.8 17.771C178.8 22.1937 175.011 26.2194 168.844 29.1906C173.996 26.1192 177.12 22.1295 177.12 17.771ZM108.686 17.771C108.686 22.1295 111.81 26.1192 116.962 29.1906C110.8 26.2194 107.006 22.1937 107.006 17.771C107.006 13.3483 110.8 9.32255 116.962 6.35136C111.81 9.42279 108.682 13.4124 108.682 17.771H108.686ZM181.479 17.771C181.479 21.9531 177.838 25.7784 171.843 28.6934C177 25.614 179.799 21.8048 179.799 17.771C179.799 13.7372 177 9.92801 171.843 6.84856C177.834 9.76361 181.475 13.5889 181.475 17.771H181.479ZM113.963 6.84856C108.807 9.92801 106.008 13.7372 106.008 17.771C106.008 21.8048 108.807 25.614 113.963 28.6934C107.969 25.7784 104.328 21.9531 104.328 17.771C104.328 13.5889 107.969 9.76361 113.959 6.84856H113.963ZM199.999 47.9799H85.374V51.5887H199.999V47.9799ZM89.7811 43.7294C89.6447 44.6797 89.1074 45.5738 87.8885 45.5738L87.8925 45.5779C86.3889 45.5779 85.8395 44.2747 85.8395 42.6107C85.8395 41.0268 86.5212 39.6756 87.9326 39.6756C89.1836 39.6756 89.6969 40.5978 89.761 41.516H88.911C88.8027 40.9747 88.5902 40.4976 87.9005 40.4976C87.0344 40.4976 86.7257 41.4719 86.7257 42.6027C86.7257 43.7334 87.0023 44.7559 87.9085 44.7559C88.5862 44.7559 88.8187 44.2346 88.931 43.7294H89.7811ZM91.9948 45.5747C93.4985 45.5747 94.1681 44.2435 94.1681 42.5915C94.1681 40.9395 93.4945 39.6724 92.059 39.6724C90.5433 39.6724 89.8817 41.14 89.8817 42.5835C89.8817 44.2435 90.5393 45.5747 91.9908 45.5747H91.9948ZM92.0229 40.4904C92.9331 40.4904 93.2859 41.4487 93.2859 42.5915C93.2859 43.8425 92.9371 44.7567 92.0349 44.7567C91.1929 44.7567 90.7799 43.7984 90.7799 42.5835C90.7799 41.3685 91.1528 40.4904 92.0229 40.4904ZM98.2011 43.4287C98.2011 44.6316 97.7681 45.5739 96.3406 45.5739C94.9613 45.5739 94.5042 44.7118 94.5042 43.4487V39.7518H95.3703V43.4046C95.3703 44.1424 95.5747 44.7559 96.3607 44.7559C97.1466 44.7559 97.327 44.1665 97.327 43.4006V39.7518H98.2011V43.4287ZM99.6125 43.0357H100.342C101.036 43.0357 101.256 43.2964 101.256 44.0061V44.1464C101.256 44.816 101.277 45.2531 101.345 45.4897H102.183C102.135 45.1609 102.115 44.6717 102.115 44.1584V44.0261C102.115 43.2883 101.926 42.8312 101.433 42.6227C101.834 42.4543 102.207 42.0774 102.207 41.2795C102.207 40.2771 101.565 39.7518 100.663 39.7518H98.7624V45.4937H99.6125V43.0397V43.0357ZM99.6125 40.5617H100.551C101.012 40.5617 101.349 40.7983 101.349 41.3597C101.349 42.0534 100.944 42.2258 100.41 42.2258H99.6125V40.5658V40.5617ZM104.38 45.4905H103.514V40.5947H102.15V39.7486H105.743V40.5947H104.38V45.4905ZM108.943 40.5947V39.7486H105.856V45.4905H108.963L109.067 44.6525H106.698V42.9163H108.847V42.0703H106.698V40.5947H108.943ZM112.563 43.8545C112.563 44.7968 112.022 45.5627 110.815 45.5627V45.5547C109.769 45.5547 109.107 44.9211 109.043 43.8144H109.897C109.977 44.4119 110.29 44.7607 110.855 44.7607C111.421 44.7607 111.681 44.452 111.681 43.9668C111.681 43.4095 111.417 43.1729 110.659 42.9123C109.564 42.5474 109.175 42.0943 109.175 41.2683C109.175 40.2578 109.853 39.6724 110.775 39.6724C111.91 39.6724 112.387 40.3902 112.443 41.2763H111.593C111.529 40.7992 111.316 40.4583 110.767 40.4583C110.282 40.4583 110.041 40.7069 110.041 41.1721C110.041 41.6372 110.29 41.7936 111.016 42.0422C112.247 42.4712 112.563 43.0406 112.563 43.8545ZM114.645 45.4905V43.2692C114.645 43.197 114.653 43.1529 114.681 43.1048L116.257 39.7486H115.354C115.197 40.1228 115.026 40.5219 114.853 40.9232L114.852 40.9236L114.852 40.9242L114.852 40.9251L114.851 40.926C114.645 41.4054 114.437 41.8879 114.252 42.3349C114.173 42.1488 114.053 41.868 113.914 41.5437L113.914 41.5431L113.914 41.5422L113.914 41.542L113.913 41.541L113.913 41.541L113.913 41.5398C113.675 40.9844 113.383 40.302 113.153 39.7486H112.179L113.743 43.1168C113.771 43.1689 113.783 43.2291 113.783 43.2932V45.4905H114.645ZM119.276 45.5747C117.825 45.5747 117.167 44.2435 117.167 42.5835H117.163C117.163 41.14 117.825 39.6724 119.34 39.6724C120.776 39.6724 121.449 40.9395 121.449 42.5915C121.449 44.2435 120.728 45.5747 119.276 45.5747ZM119.316 44.7567C120.218 44.7567 120.567 43.8425 120.567 42.5915C120.567 41.4487 120.174 40.4904 119.304 40.4904C118.434 40.4904 118.061 41.3685 118.061 42.5835C118.061 43.7984 118.474 44.7567 119.316 44.7567ZM124.866 40.5947V39.7486H121.823V45.4905H122.673V43.0366H124.73V42.2026H122.673V40.5947H124.866ZM128.222 40.5947V45.4905H127.356V40.5947H125.993V39.7486H129.585V40.5947H128.222ZM133.382 45.4905V39.7486H132.515V42.0662H130.559V39.7486H129.697V45.4905H130.559V42.9163H132.515V45.4905H133.382ZM137.078 39.7486V40.5947H134.837V42.0703H136.986V42.9163H134.837V44.6525H137.207L137.099 45.4905H133.991V39.7486H137.078ZM140.15 44.764C139.609 44.764 139.272 44.4152 139.192 43.8178H138.338C138.402 44.9244 139.064 45.558 140.11 45.558C141.317 45.558 141.859 44.7921 141.859 43.8498C141.859 43.0359 141.542 42.4665 140.311 42.0374C139.585 41.7888 139.336 41.6325 139.336 41.1673C139.336 40.7022 139.577 40.4536 140.062 40.4536C140.612 40.4536 140.824 40.7944 140.888 41.2716H141.738C141.682 40.3854 141.205 39.6677 140.07 39.6677C139.148 39.6677 138.47 40.2531 138.47 41.2636C138.47 42.0896 138.859 42.5427 139.954 42.9075C140.712 43.1682 140.976 43.4048 140.976 43.9621C140.976 44.4473 140.716 44.756 140.15 44.756V44.764ZM145.246 39.7486V40.5947H143.001V42.0703H145.15V42.9163H143.001V44.6525H145.37L145.266 45.4905H142.159V39.7486H145.246ZM148.667 40.5947V39.7486H145.579V45.4905H148.687L148.795 44.6525H146.421V42.9163H148.571V42.0703H146.421V40.5947H148.667ZM149 45.4905V39.7486H150.664C152.063 39.7486 152.925 40.7671 152.925 42.4913C152.925 44.3638 152.079 45.4905 150.612 45.4905H149ZM150.595 44.6846C151.545 44.6846 152.03 43.8755 152.031 42.5135C152.03 41.3317 151.537 40.5706 150.604 40.5706H149.87V44.6846H150.595ZM156.318 40.4944C157.007 40.4944 157.22 40.9716 157.328 41.5129H158.178C158.114 40.5947 157.601 39.6724 156.35 39.6724C154.938 39.6724 154.257 41.0237 154.257 42.6075C154.257 44.2716 154.806 45.5747 156.31 45.5747C157.528 45.5747 158.066 44.6805 158.202 43.7302H157.352C157.24 44.2355 157.007 44.7567 156.33 44.7567C155.419 44.7567 155.147 43.7343 155.147 42.6035C155.147 41.4728 155.455 40.4984 156.322 40.4984L156.318 40.4944ZM158.435 45.4905V39.7486H159.297V44.6525H161.538L161.434 45.4905H158.435ZM163.302 45.5739C164.73 45.5739 165.163 44.6316 165.163 43.4287V39.7518H164.288V43.4006C164.288 44.1665 164.108 44.7559 163.322 44.7559C162.536 44.7559 162.332 44.1424 162.332 43.4046V39.7518H161.466V43.4487C161.466 44.7118 161.923 45.5739 163.302 45.5739ZM167.557 39.7518C168.563 39.7518 169.064 40.3693 169.064 41.1953L169.06 41.1993C169.06 41.9331 168.703 42.2458 168.431 42.3701C168.784 42.5345 169.225 42.9355 169.225 43.7695C169.225 44.8722 168.527 45.4937 167.513 45.4937H165.724V39.7518H167.557ZM167.444 40.5297H166.57H166.566V42.0453H167.392C167.97 42.0453 168.218 41.7847 168.218 41.2915C168.218 40.7983 167.938 40.5297 167.444 40.5297ZM166.57 44.7158H167.448C167.954 44.7158 168.347 44.4311 168.347 43.7735C168.347 43.1721 168.034 42.8272 167.376 42.8272H166.57V44.7158ZM173.483 45.4905H173.49L173.492 45.4945L173.483 45.4905ZM173.49 45.4905H174.542V39.7486H173.748V41.6933C173.748 42.6276 173.756 43.5619 173.804 44.2716H173.792C173.712 44.0069 173.467 43.4456 171.848 39.7486H170.737V45.4905H171.531V43.5418C171.531 42.5153 171.531 41.533 171.495 40.8032H171.503C171.587 41.0277 171.751 41.4525 173.49 45.4905ZM178.242 39.7486V40.5947H175.997V42.0703H178.146V42.9163H175.997V44.6525H178.367L178.263 45.4905H175.155V39.7486H178.242ZM181.787 39.7479H178.25V40.594H179.61V45.4898H180.48V40.594H181.843V40.0286L182.958 45.4858H183.86C183.921 45.1927 183.995 44.8433 184.075 44.4683C184.32 43.3146 184.617 41.9178 184.738 41.1674H184.746C184.838 41.7598 185.048 42.775 185.253 43.7699L185.253 43.77L185.253 43.7704L185.254 43.7725C185.38 44.3862 185.505 44.992 185.6 45.4858H186.506L187.757 39.7439H186.911C186.854 40.0648 186.764 40.5262 186.662 41.0445L186.661 41.0486L186.661 41.0501L186.661 41.0502L186.66 41.0511C186.447 42.1379 186.184 43.4724 186.081 44.2829H186.073C185.945 43.3657 185.483 41.1908 185.222 39.9621L185.221 39.9619L185.175 39.7439H184.385C184.281 40.272 184.145 40.9226 184.006 41.5792L184.006 41.58L184.006 41.5802L184.006 41.5805C183.781 42.6487 183.553 43.7327 183.459 44.331H183.451C183.343 43.3086 183.034 41.4881 182.705 39.7439H181.783L181.787 39.7479ZM191.891 42.5915C191.891 44.2435 191.222 45.5747 189.718 45.5747H189.714C188.262 45.5747 187.605 44.2435 187.605 42.5835C187.605 41.14 188.266 39.6724 189.782 39.6724C191.218 39.6724 191.891 40.9395 191.891 42.5915ZM191.009 42.5915C191.009 41.4487 190.656 40.4904 189.746 40.4904C188.876 40.4904 188.503 41.3685 188.503 42.5835C188.503 43.7984 188.916 44.7567 189.758 44.7567C190.66 44.7567 191.009 43.8425 191.009 42.5915ZM193.11 43.0357H193.84C194.534 43.0357 194.754 43.2964 194.754 44.0061V44.1464C194.754 44.816 194.774 45.2531 194.843 45.4897H195.681C195.632 45.1609 195.612 44.6717 195.612 44.1584V44.0261C195.612 43.2883 195.424 42.8312 194.931 42.6227C195.332 42.4543 195.705 42.0774 195.705 41.2795C195.705 40.2771 195.063 39.7518 194.161 39.7518H192.26V45.4937H193.11V43.0397V43.0357ZM193.11 40.5617H194.049C194.51 40.5617 194.847 40.7983 194.847 41.3597C194.847 42.0534 194.442 42.2258 193.908 42.2258H193.11V40.5658V40.5617ZM197.553 42.7512L196.939 43.5251L196.947 43.5211V45.4858H196.093V39.7439H196.939V42.4745C197.165 42.1479 197.444 41.7492 197.732 41.337C198.12 40.7826 198.525 40.2039 198.84 39.7439H199.874L198.15 42.0776L199.975 45.4858H198.94L197.553 42.7512Z" fill="black"/>
</svg>
