<svg width="24" height="24" viewBox="0 0 24 24" fill="none" xmlns="http://www.w3.org/2000/svg">
<path d="M5.43195 2.82837H18.3314V21.1716H16.4379V12.7692H16.4193C16.21 10.447 14.2584 8.62719 11.8817 8.62719C9.50495 8.62719 7.55328 10.447 7.34402 12.7692H7.32544V21.1716H5.43195V2.82837Z" fill="black"/>
<path d="M2 5.43192L2.76923 8.03547H3.42012V18.568C3.09332 18.568 2.8284 18.8329 2.8284 19.1597V19.8698H2.71006C2.38326 19.8698 2.11834 20.1347 2.11834 20.4615V21.1716H8.74556V20.4615C8.74556 20.1347 8.48064 19.8698 8.15385 19.8698H8.0355V19.1597C8.0355 18.8329 7.77058 18.568 7.44379 18.568H6.73373V5.43192H2Z" fill="black"/>
<path d="M16.5562 18.568C16.2294 18.568 15.9645 18.8329 15.9645 19.1597V19.8698H15.8462C15.5194 19.8698 15.2544 20.1347 15.2544 20.4615V21.1716H21.8817V20.4615C21.8817 20.1347 21.6167 19.8698 21.2899 19.8698H21.1716V19.1597C21.1716 18.8329 20.9067 18.568 20.5799 18.568V8.03547H21.2308L22 5.43192H17.2663V18.568H16.5562Z" fill="black"/>
</svg>
