<svg width="157" height="77" viewBox="0 0 157 77" fill="none" xmlns="http://www.w3.org/2000/svg">
<path fill-rule="evenodd" clip-rule="evenodd" d="M18.8893 11.3389H25.0834L25.0803 14.3844C25.0803 14.4004 25.0866 14.4157 25.0979 14.427C25.1092 14.4383 25.1245 14.4446 25.1405 14.4446L28.1389 14.4477C28.1682 14.4477 28.1829 14.4624 28.1829 14.4918V17.515C28.1829 17.5398 28.1707 17.5526 28.1463 17.5534C27.3519 17.5741 26.5388 17.5694 25.7072 17.5392C25.5185 17.5321 25.3358 17.5414 25.1591 17.5671C25.1376 17.5702 25.1179 17.581 25.1037 17.5976C25.0895 17.6141 25.0816 17.6352 25.0815 17.6571L25.084 20.6238C25.084 20.6569 25.1006 20.6737 25.1337 20.6741L28.1426 20.6753C28.148 20.6753 28.1533 20.6764 28.1583 20.6784C28.1632 20.6804 28.1678 20.6834 28.1716 20.6871C28.1754 20.6909 28.1784 20.6953 28.1804 20.7002C28.1825 20.7051 28.1836 20.7104 28.1836 20.7157V29.9578C28.1836 29.9888 28.1991 30.0043 28.2301 30.0043L31.2372 30.0062L31.2408 30.0063L31.2449 30.0069C31.2477 30.0074 31.2504 30.0082 31.2531 30.0093C31.2581 30.0114 31.2627 30.0145 31.2666 30.0184C31.2704 30.0222 31.2735 30.0268 31.2756 30.0318C31.2768 30.0348 31.2777 30.0378 31.2782 30.0409L31.2786 30.0445L31.2787 30.0478L31.2763 33.0598C31.2763 33.0748 31.2821 33.0891 31.2926 33.0997C31.3031 33.1103 31.3173 33.1163 31.3321 33.1163L34.3323 33.115C34.3437 33.115 34.3546 33.1196 34.3626 33.1277C34.3707 33.1359 34.3752 33.1469 34.3752 33.1585L34.3758 36.1885C34.3758 36.2141 34.3888 36.227 34.4149 36.227H37.4232C37.4604 36.227 37.479 36.2458 37.479 36.2834L37.4784 39.2998C37.4784 39.3081 37.4817 39.316 37.4877 39.322C37.4936 39.3279 37.5016 39.3313 37.5101 39.3314L40.501 39.3383C40.5206 39.3383 40.5394 39.3304 40.5532 39.3165C40.5671 39.3025 40.5748 39.2835 40.5748 39.2638L40.5779 33.1535C40.5779 33.1295 40.5899 33.1175 40.6139 33.1175L43.6452 33.1138C43.6483 33.1138 43.6514 33.1144 43.6542 33.1156C43.6571 33.1168 43.6597 33.1185 43.6619 33.1207C43.6641 33.1229 43.6658 33.1255 43.667 33.1283C43.6675 33.1295 43.6679 33.1307 43.6682 33.132C43.6686 33.1337 43.6688 33.1355 43.6688 33.1374V54.8744C43.6688 54.8926 43.6597 54.9017 43.6415 54.9017H28.2189C28.2094 54.9017 28.2002 54.8979 28.1935 54.8912C28.1867 54.8844 28.1829 54.8753 28.1829 54.8657V39.3662C28.1829 39.3596 28.1803 39.3533 28.1757 39.3486C28.171 39.344 28.1647 39.3414 28.1581 39.3414L25.1269 39.3426C25.1153 39.3426 25.1043 39.338 25.0961 39.3297C25.088 39.3214 25.0834 39.3102 25.0834 39.2986V36.2667C25.0834 36.2402 25.07 36.227 25.0431 36.227H18.9203C18.8934 36.227 18.8802 36.2404 18.8806 36.2673C18.8872 37.1685 18.8885 38.153 18.8843 39.221C18.8843 39.252 18.881 39.2832 18.8744 39.3147C18.8729 39.3217 18.869 39.328 18.8635 39.3325C18.8579 39.3371 18.8511 39.3395 18.844 39.3395L15.8307 39.3364C15.8192 39.3364 15.8082 39.341 15.8 39.3491C15.7919 39.3573 15.7873 39.3683 15.7873 39.3799V54.8607C15.7873 54.8885 15.7736 54.9023 15.7463 54.9023C10.6359 54.9011 5.52774 54.9013 0.421859 54.9029C0.412342 54.9029 0.403032 54.9046 0.39393 54.9079C0.387309 54.91 0.380896 54.9123 0.374689 54.9147C0.365862 54.9181 0.356123 54.9181 0.347165 54.915C0.338208 54.9118 0.330598 54.9056 0.325658 54.8974L0.301453 54.857V33.1169L3.3594 33.115C3.38505 33.115 3.39788 33.1276 3.39788 33.1529V39.3134C3.39788 39.3279 3.40512 39.3352 3.4196 39.3352H6.45955C6.48189 39.3352 6.49306 39.3238 6.49306 39.301V36.258C6.49306 36.2373 6.5032 36.227 6.52347 36.227H9.55721C9.56775 36.227 9.57785 36.2228 9.5853 36.2153C9.59275 36.2079 9.59694 36.1978 9.59694 36.1872L9.59756 33.151C9.59756 33.1287 9.60873 33.1175 9.63107 33.1175L12.6294 33.115C12.6471 33.1148 12.664 33.1078 12.6764 33.0953C12.6889 33.0829 12.6958 33.0661 12.6958 33.0486L12.694 30.0384C12.694 30.034 12.6948 30.0297 12.6965 30.0256C12.6982 30.0216 12.7007 30.0179 12.7038 30.0147C12.7069 30.0116 12.7106 30.0092 12.7147 30.0075C12.7187 30.0058 12.7231 30.0049 12.7275 30.0049H15.7401C15.7526 30.0049 15.7646 30 15.7735 29.9913C15.7823 29.9826 15.7873 29.9707 15.7873 29.9584L15.7916 20.7306C15.7916 20.6954 15.8092 20.6778 15.8444 20.6778L18.831 20.6735C18.8385 20.6735 18.846 20.672 18.853 20.669C18.8599 20.6661 18.8663 20.6619 18.8716 20.6565C18.8769 20.6511 18.8811 20.6448 18.8839 20.6378C18.8867 20.6308 18.8882 20.6233 18.8881 20.6157C18.8848 19.782 18.8868 18.868 18.8943 17.8737C18.8951 17.8042 18.8918 17.7295 18.8843 17.6496C18.8822 17.6274 18.8724 17.6067 18.8566 17.5911C18.8408 17.5755 18.8201 17.5662 18.7981 17.5646C18.6214 17.5518 18.4555 17.5466 18.3003 17.5491C17.4897 17.5623 16.6643 17.5644 15.8239 17.5553C15.8053 17.5553 15.796 17.546 15.796 17.5274L15.7892 14.5154C15.7892 14.4727 15.8105 14.4514 15.8531 14.4514L18.7857 14.4539C18.8122 14.4539 18.8376 14.4434 18.8563 14.4246C18.8751 14.4059 18.8856 14.3805 18.8856 14.354L18.8893 11.3389ZM25.0891 14.5406C25.0891 14.5297 25.087 14.5189 25.0828 14.5088C25.0786 14.4987 25.0725 14.4895 25.0648 14.4818C25.0571 14.474 25.048 14.4679 25.0379 14.4637C25.0278 14.4595 25.017 14.4573 25.0061 14.4573L18.9684 14.4468C18.9574 14.4468 18.9466 14.4489 18.9365 14.4531C18.9264 14.4572 18.9173 14.4633 18.9095 14.471C18.9018 14.4787 18.8956 14.4879 18.8914 14.498C18.8873 14.5081 18.8851 14.5189 18.8851 14.5298L18.8799 17.4742C18.8799 17.4851 18.882 17.4959 18.8862 17.506C18.8904 17.5161 18.8965 17.5253 18.9042 17.533C18.9119 17.5408 18.921 17.5469 18.9311 17.5511C18.9412 17.5553 18.952 17.5575 18.9629 17.5575L25.0006 17.568C25.0115 17.568 25.0224 17.5659 25.0325 17.5617C25.0426 17.5576 25.0517 17.5515 25.0595 17.5438C25.0672 17.5361 25.0734 17.5269 25.0775 17.5168C25.0817 17.5067 25.0839 17.4959 25.0839 17.485L25.0891 14.5406ZM9.59756 44.0459C9.59756 44.0378 9.59435 44.0301 9.58865 44.0244C9.58294 44.0187 9.57521 44.0155 9.56714 44.0155H6.52347C6.51541 44.0155 6.50767 44.0187 6.50197 44.0244C6.49627 44.0301 6.49306 44.0378 6.49306 44.0459V47.0921C6.49306 47.1001 6.49627 47.1079 6.50197 47.1136C6.50767 47.1193 6.51541 47.1225 6.52347 47.1225H9.56714C9.57521 47.1225 9.58294 47.1193 9.58865 47.1136C9.59435 47.1079 9.59756 47.1001 9.59756 47.0921V44.0459ZM37.4772 44.0558C37.4772 44.045 37.4729 44.0346 37.4652 44.0269C37.4575 44.0192 37.4471 44.0149 37.4362 44.0149H34.4161C34.4053 44.0149 34.3948 44.0192 34.3872 44.0269C34.3795 44.0346 34.3752 44.045 34.3752 44.0558V47.0821C34.3752 47.093 34.3795 47.1034 34.3872 47.1111C34.3948 47.1188 34.4053 47.1231 34.4161 47.1231H37.4362C37.4471 47.1231 37.4575 47.1188 37.4652 47.1111C37.4729 47.1034 37.4772 47.093 37.4772 47.0821V44.0558ZM111.322 28.758C113.513 28.758 115.289 26.9818 115.289 24.7908C115.289 22.5997 113.513 20.8236 111.322 20.8236C109.131 20.8236 107.354 22.5997 107.354 24.7908C107.354 26.9818 109.131 28.758 111.322 28.758ZM66.0395 43.4352L71.8184 43.4358C71.8214 43.4358 71.8244 43.4362 71.8273 43.437L71.8312 43.4384C71.8353 43.44 71.839 43.4425 71.8421 43.4456C71.8452 43.4487 71.8477 43.4524 71.8493 43.4565C71.851 43.4606 71.8519 43.4649 71.8519 43.4693C71.8556 44.5414 71.856 45.6217 71.8531 46.7104C71.8526 46.801 71.811 46.8368 71.7568 46.8833L71.7565 46.8836C71.7459 46.8927 71.7348 46.9022 71.7234 46.9127C70.5771 47.9585 69.2923 48.5208 67.7959 48.6964C67.1567 48.7718 66.5182 48.8042 65.8806 48.7939C61.8954 48.7281 58.6687 45.8086 57.8829 41.9065C57.1568 38.2974 58.4043 34.3718 61.5491 32.297C62.9787 31.3532 64.5888 30.9094 66.3796 30.9657C66.8857 30.9814 67.3687 31.0154 67.8288 31.0675C69.5749 31.2644 71.0827 31.9159 72.3521 33.0219C72.6178 33.2536 72.8818 33.4944 73.1441 33.7444C73.1496 33.7498 73.1562 33.7541 73.1635 33.7569C73.1707 33.7597 73.1784 33.761 73.1862 33.7608C73.194 33.7606 73.2016 33.7588 73.2087 33.7555C73.2157 33.7523 73.222 33.7476 73.2272 33.7419L77.3844 29.177C77.3955 29.1647 77.4019 29.1488 77.4022 29.1322C77.4025 29.1155 77.3969 29.0993 77.3862 29.0864C76.0431 27.4659 74.2073 26.3071 72.233 25.5691C68.4259 24.146 64.1304 24.0101 60.3351 25.4934C58.0461 26.3884 56.0725 27.7714 54.4141 29.6425C53.2258 30.9831 52.3037 32.4884 51.6479 34.1583C50.6991 36.5756 50.3739 39.0923 50.6722 41.7085C51.3953 48.0566 56.0197 53.347 62.2355 54.9023C64.0884 55.3657 65.9961 55.4789 67.9585 55.2418C71.0283 54.8713 73.874 53.5543 76.2337 51.5099C77.2809 50.6025 78.1562 49.6103 78.8597 48.5332C78.8725 48.5134 78.8789 48.4918 78.8789 48.4687V36.8178C78.8789 36.7959 78.8679 36.7849 78.846 36.7849H66.0426C66.0299 36.7849 66.0178 36.79 66.0088 36.7991C65.9998 36.8082 65.9948 36.8205 65.9948 36.8333V43.3911C65.9948 43.4205 66.0097 43.4352 66.0395 43.4352ZM127.256 25.0968V54.6969C127.256 54.7077 127.251 54.7181 127.243 54.7258C127.236 54.7335 127.225 54.7378 127.215 54.7378H120.233C120.222 54.7378 120.212 54.7335 120.204 54.7258C120.196 54.7181 120.192 54.7077 120.192 54.6969V25.0974C120.192 25.0866 120.196 25.0761 120.204 25.0685C120.212 25.0608 120.222 25.0565 120.233 25.0565L127.215 25.0558C127.225 25.0558 127.236 25.0602 127.243 25.0678C127.251 25.0755 127.256 25.0859 127.256 25.0968ZM149.395 35.1399C149.39 35.1469 149.384 35.1524 149.376 35.1557C149.297 35.1892 149.2 35.1632 149.156 35.085C147.568 32.225 144.101 30.8254 140.925 30.9694C139.211 31.0468 137.63 31.5392 136.18 32.4466C134.591 33.4421 133.306 34.887 132.397 36.5621C130.896 39.3259 130.463 42.619 130.993 45.6975C131.647 49.4927 133.926 53.0466 137.522 54.5827C138.608 55.0461 139.73 55.3018 140.888 55.3498C141.936 55.3933 142.942 55.3171 143.906 55.1214C146.207 54.6547 148.024 53.3935 149.342 51.4993C149.388 51.4329 149.457 51.395 149.538 51.4012C149.558 51.4027 149.577 51.4116 149.591 51.4264C149.604 51.4411 149.612 51.4605 149.612 51.4807V54.705C149.612 54.7265 149.623 54.7372 149.644 54.7372L156.519 54.7385C156.541 54.7385 156.551 54.7279 156.551 54.7068V25.1024C156.551 25.0899 156.546 25.0779 156.538 25.0691C156.529 25.0602 156.517 25.0552 156.504 25.0552L149.446 25.0571C149.425 25.0571 149.414 25.0675 149.414 25.0881C149.405 25.3844 149.401 25.6838 149.401 25.9862C149.4 29.0804 149.4 32.1238 149.402 35.1166C149.402 35.1249 149.399 35.133 149.395 35.1399ZM141.902 48.5239C139.199 47.8319 138.252 45.204 138.404 42.673C138.471 41.5614 138.748 40.497 139.356 39.5872C140.41 38.0107 142.275 37.449 144.083 37.6507C145.967 37.8609 147.291 38.808 148.055 40.4921C148.282 40.994 148.437 41.5867 148.519 42.2702C148.785 44.4847 148.135 46.8997 146.075 48.0683C144.84 48.7697 143.242 48.8671 141.902 48.5239ZM95.8369 31.6497C95.8324 31.6435 95.8297 31.6389 95.8289 31.636C95.8276 31.63 95.8277 31.6237 95.8291 31.6177C95.8305 31.6117 95.8332 31.6061 95.8371 31.6013C95.841 31.5965 95.8458 31.5926 95.8514 31.5899C95.8547 31.5883 95.8583 31.5871 95.8619 31.5865C95.8643 31.586 95.8668 31.5858 95.8692 31.5857C98.2252 31.5853 100.583 31.5853 102.942 31.5857C102.955 31.5857 102.968 31.5908 102.977 31.5999C102.986 31.609 102.991 31.6213 102.991 31.6342C102.987 36.2005 102.988 40.7941 102.992 45.4151C102.993 45.8566 102.976 46.2625 102.941 46.6328C102.544 50.8563 99.6217 54.1284 95.4906 55.0625C91.5929 55.9438 87.2676 54.9241 84.6919 51.7091C83.2694 49.934 82.6152 47.7524 82.6165 45.4666C82.6194 40.8643 82.6194 36.2506 82.6165 31.6255C82.6165 31.599 82.6299 31.5857 82.6568 31.5857C85.0343 31.5849 87.3795 31.5849 89.6925 31.5857C89.7068 31.5857 89.7205 31.5913 89.7307 31.6013C89.7409 31.6113 89.7468 31.6249 89.7471 31.6391C89.7471 31.6428 89.7444 31.6522 89.7391 31.6671C89.7345 31.6803 89.7322 31.6942 89.7322 31.7086C89.7376 36.4715 89.7368 41.1314 89.7297 45.6882C89.7289 46.2261 89.7589 46.6123 89.8197 46.8469C90.2436 48.4767 91.871 48.8231 93.373 48.6847C94.5671 48.5748 95.5626 47.9436 95.7817 46.6967C95.8227 46.4658 95.8431 46.1969 95.8431 45.8899C95.8469 41.1477 95.8462 36.4051 95.8413 31.6621C95.8413 31.6575 95.8398 31.6534 95.8369 31.6497ZM107.745 31.5857H114.851C114.865 31.5857 114.875 31.5965 114.875 31.6099V54.6311C114.875 54.6383 114.872 54.6448 114.867 54.6492C114.863 54.653 114.857 54.6553 114.851 54.6553H107.745C107.731 54.6553 107.721 54.6445 107.721 54.6311V31.6099C107.721 31.5965 107.731 31.5857 107.745 31.5857Z" fill="black"/>
</svg>
