<svg width="117" height="77" viewBox="0 0 117 77" fill="none" xmlns="http://www.w3.org/2000/svg">
<path fill-rule="evenodd" clip-rule="evenodd" d="M6.71046 31.4975C6.69723 31.4768 6.69045 31.4527 6.69097 31.4282L6.67482 18.2271C6.67482 18.037 6.57975 17.9419 6.3896 17.9419L0.712013 17.9473C0.493162 17.9473 0.383744 18.0567 0.383744 18.2756L0.378357 58.2177C0.378357 58.476 0.507516 58.6052 0.765832 58.6052H6.30349C6.53311 58.6052 6.6497 58.4904 6.65329 58.2608C6.71787 53.7008 6.71249 48.9596 6.63715 44.0372C6.55104 38.7902 7.30446 34.1136 13.2404 33.3548C18.4928 32.6821 21.9478 36.0294 21.9693 41.368C21.9944 46.7101 21.998 52.3554 21.9801 58.3038C21.9801 58.5047 22.0823 58.6052 22.2868 58.6052H27.916C28.1384 58.6052 28.2496 58.4922 28.2496 58.2661C28.2137 53.2254 28.2155 47.6913 28.255 41.6639C28.2729 39.0844 27.9518 36.9174 27.2917 35.163C25.166 29.4962 19.7682 27.2198 13.9077 27.9893C11.303 28.3302 8.96737 29.5069 6.90084 31.5196C6.88322 31.5367 6.86093 31.5482 6.83679 31.5525C6.81265 31.5569 6.78774 31.554 6.76525 31.5442C6.74276 31.5344 6.72369 31.5181 6.71046 31.4975ZM81.0645 50.5275C81.0645 44.9594 81.0627 39.3643 81.0591 33.7423C81.0591 33.5378 81.1596 33.4356 81.3605 33.4356L88.3243 33.4463C88.414 33.4463 88.4588 33.4033 88.4588 33.3172L88.4642 28.5276C88.4642 28.3948 88.3978 28.3285 88.2651 28.3285H81.3336C81.1542 28.3285 81.0645 28.237 81.0645 28.054L81.0591 21.0579C81.0591 20.8821 80.9712 20.7942 80.7954 20.7942H74.9941C74.8004 20.7942 74.7035 20.8911 74.7035 21.0848L74.725 28.0648C74.725 28.1333 74.6983 28.199 74.6509 28.2474C74.6035 28.2959 74.5391 28.3231 74.4721 28.3231H71.7221C71.3131 28.3231 71.1086 28.5258 71.1086 28.9312L71.114 32.8006C71.114 33.3531 71.3866 33.5809 71.932 33.484C72.628 33.3584 73.4585 33.3638 74.4236 33.5002C74.5029 33.5106 74.5757 33.5492 74.6282 33.6087C74.6807 33.6682 74.7094 33.7444 74.7089 33.8231V50.5006C74.7036 58.9961 81.6227 58.7838 87.8372 58.5932C88.0001 58.5882 88.1625 58.5832 88.3243 58.5784C88.414 58.5748 88.4588 58.5264 88.4588 58.4331V53.5035C88.4588 53.4103 88.4122 53.3654 88.3189 53.369C86.8192 53.412 85.2855 53.3995 83.7176 53.3313C81.9489 53.2524 81.0645 52.3178 81.0645 50.5275ZM59.1022 32.1224L59.07 28.6297C59.07 28.4252 59.1722 28.323 59.3767 28.323L65.0489 28.3284C65.1545 28.3284 65.2558 28.3703 65.3305 28.445C65.4052 28.5197 65.4471 28.621 65.4471 28.7266L65.4418 58.2069C65.4418 58.4688 65.3108 58.5998 65.0489 58.5998L59.4521 58.6052C59.2081 58.6052 59.0879 58.4832 59.0915 58.2392L59.113 54.8381C59.1166 54.4004 58.9677 54.3394 58.6663 54.6551C50.6585 63.0396 37.2261 59.0465 34.6537 47.729C32.8885 39.9849 35.7731 31.4551 43.7001 28.6674C49.0602 26.7838 54.7701 28.027 58.7309 32.2731C58.9821 32.5386 59.1058 32.4883 59.1022 32.1224ZM50.0069 53.7066C52.4758 53.6679 54.8267 52.5507 56.5422 50.6009C58.2578 48.6511 59.1976 46.0284 59.1549 43.3098C59.1122 40.5911 58.0905 37.9993 56.3145 36.1043C54.5385 34.2094 52.1538 33.1666 49.6849 33.2054C47.216 33.2441 44.8652 34.3613 43.1496 36.3111C41.434 38.2609 40.4942 40.8836 40.5369 43.6022C40.5796 46.3209 41.6013 48.9128 43.3773 50.8077C45.1533 52.7026 47.538 53.7454 50.0069 53.7066ZM100.088 38.279C98.7323 36.6538 99.6417 34.2805 101.59 33.6024C105.007 32.4238 109.382 33.0427 110.254 37.2403C110.301 37.4592 110.435 37.5686 110.658 37.5686L116.335 37.5632C116.368 37.5634 116.4 37.5568 116.429 37.5438C116.459 37.5309 116.485 37.5119 116.507 37.488C116.529 37.4642 116.546 37.4361 116.556 37.4055C116.566 37.3749 116.57 37.3425 116.567 37.3103C116.104 31.8534 112.154 28.5491 106.934 27.9571C101.961 27.392 95.8639 28.7267 93.7489 33.5593C92.8197 35.6797 92.8412 37.8449 93.8135 40.0549C94.9705 42.7027 98.3609 44.2579 101.1 45.0221C103.447 45.6715 105.651 46.3514 107.714 47.0618C109.031 47.5138 109.903 48.0699 110.33 48.73C111.616 50.7212 109.996 52.9223 107.935 53.4712C104.367 54.4184 100.11 53.6703 99.0982 49.6288C99.048 49.4207 98.9152 49.3166 98.7 49.3166H92.9148C92.869 49.3163 92.8237 49.3257 92.7818 49.3443C92.74 49.3628 92.7026 49.39 92.672 49.4241C92.6415 49.4582 92.6185 49.4984 92.6047 49.542C92.5909 49.5857 92.5865 49.6317 92.5918 49.6772C93.2592 55.2041 97.8981 58.4061 103.177 58.9874C108.172 59.5309 114.35 58.164 116.319 53.2398C117.977 49.1068 116.362 45.1567 112.396 43.2193C110.204 42.1456 107.914 41.4779 105.601 40.8032C104.599 40.5107 103.591 40.2169 102.585 39.8881C101.531 39.5437 100.698 39.0073 100.088 38.279Z" fill="black"/>
</svg>
