<svg width="319" height="77" viewBox="0 0 319 77" fill="none" xmlns="http://www.w3.org/2000/svg">
<path fill-rule="evenodd" clip-rule="evenodd" d="M194.714 62.3585V42.9067H190.137V35.2497H194.714V25.8639C194.714 22.3235 195.735 19.4333 197.772 17.1857C199.813 14.9426 202.768 13.8218 206.643 13.8218C207.797 13.8218 209.088 13.9983 210.509 14.3452C211.932 14.6952 213.178 15.2639 214.253 16.0407L210.604 22.2783C210.193 21.7428 209.71 21.3853 209.153 21.1997C208.597 21.0142 208.073 20.9237 207.575 20.9237C206.338 20.9237 205.329 21.3355 204.545 22.1591C203.762 22.9827 203.37 24.2996 203.37 26.1113V35.2512H211.532V42.9082H203.37V62.36H194.714V62.3585ZM75.4885 25.9261C75.4885 28.5252 73.3781 30.6325 70.776 30.6325C68.1739 30.6325 66.0635 28.5252 66.0635 25.9261C66.0635 23.327 68.1739 21.2196 70.776 21.2196C73.3781 21.2196 75.4885 23.327 75.4885 25.9261ZM24.0251 33.201L12.4113 36.1531L13.2501 39.4205L24.8638 36.4684L24.0251 33.201ZM35.5906 33.2403L34.7534 36.5077L46.3671 39.4583L47.2043 36.1909L35.5906 33.2403ZM21.3868 54.4848C24.2529 55.3929 27.2502 55.9118 30.1163 55.9118C32.9824 55.9118 35.9783 55.5226 38.8444 54.4848L37.802 51.2431C32.5918 52.9296 27.6409 52.9296 22.4292 51.2431L21.3868 54.4848ZM66.2476 35.3739H74.9048V62.359H66.2476V35.3739ZM88.4806 35.372L89.0875 39.6685C90.0317 38.0211 91.3559 36.6795 93.0558 35.648C94.7875 34.5981 96.91 34.0717 99.4246 34.0717C101.939 34.0717 104.111 34.8244 105.822 36.3283C107.533 37.8308 108.408 39.7782 108.453 42.1661V62.3586H99.7957V45.3762C99.7549 44.183 99.4321 43.2266 98.8393 42.5025C98.2419 41.7815 97.2403 41.424 95.842 41.424C94.5236 41.424 93.3681 41.8569 92.3785 42.7213C91.3889 43.5856 90.6272 44.7592 90.0901 46.2405C89.5546 47.7218 89.2861 49.431 89.2861 51.3663V62.3586H80.629V35.3735H88.4776L88.4806 35.372ZM124.572 23.5164H115.915V35.2493H111.71V41.9801H115.915V62.3581H124.572V41.9801H131.127V35.2493H124.572V23.5164ZM148.652 63.0978C145.353 63.0978 142.564 62.4808 140.276 61.2454C137.988 60.0099 136.244 58.3023 135.049 56.1196C133.854 53.9383 133.255 51.4267 133.255 48.5862C133.255 45.7458 133.957 43.4197 135.357 41.237C136.758 39.0557 138.635 37.3134 140.983 36.0176C143.334 34.7203 145.951 34.0702 148.837 34.0702C152.712 34.0702 155.895 35.194 158.388 37.4371C160.883 39.6802 162.503 42.9249 163.244 47.1607L143.466 53.4346C143.966 54.0312 144.558 54.514 145.243 54.8826C146.316 55.4589 147.511 55.747 148.829 55.747C149.778 55.747 150.692 55.5826 151.579 55.2522C152.464 54.9233 153.344 54.4904 154.208 53.9549L158.041 60.3765C156.599 61.2001 155.045 61.8578 153.371 62.3526C151.706 62.8459 150.131 63.0933 148.646 63.0933L148.652 63.0978ZM141.781 48.09C141.781 48.2749 141.785 48.4566 141.792 48.6349L153.663 44.6349C153.324 43.6379 152.755 42.7596 151.961 42.0063C151.116 41.2038 149.846 40.7995 148.155 40.7995C146.877 40.7995 145.752 41.0997 144.783 41.697C143.813 42.2944 143.073 43.1376 142.557 44.2283C142.041 45.3189 141.781 46.6041 141.781 48.09ZM175.629 41.5651L174.957 35.3725V35.3695V35.365H167.166V62.3516H175.761V51.7923C175.761 50.228 176.153 48.7044 176.936 47.2231C177.721 45.7418 178.832 44.5471 180.276 43.642C181.718 42.7354 183.45 42.4065 185.47 42.6539L185.903 34.0089C185.201 34.0089 184.184 34.3181 182.843 34.9351C181.499 35.552 180.152 36.4285 178.792 37.5613C177.461 38.6737 176.407 40.0055 175.629 41.5651ZM220.513 61.5897C222.554 62.5943 224.829 63.1011 227.344 63.1011V63.0966C228.952 63.0966 230.346 62.8628 231.519 62.3891C232.694 61.9155 233.684 61.3604 234.488 60.7223C235.287 60.0842 235.898 59.5291 236.31 59.0554L236.372 58.9846V62.3575H245.029V35.3724H236.99L236.43 38.1276C235.541 37.118 234.441 36.1883 233.124 35.3437C231.743 34.4597 229.715 34.0147 227.036 34.0147C224.767 34.0147 222.624 34.6242 220.604 35.8385C218.584 37.0528 216.956 38.7694 215.719 40.9929C214.483 43.2164 213.864 45.8502 213.864 48.8973C213.864 52.1496 214.461 54.8257 215.658 56.9254C216.852 59.0252 218.472 60.5805 220.513 61.5897ZM232.599 55.5995C231.776 55.9042 230.848 56.0611 229.818 56.0611V56.0581C228.54 56.0581 227.356 55.7277 226.264 55.0776C225.169 54.4199 224.294 53.5133 223.634 52.3608C222.975 51.2083 222.645 49.911 222.645 48.4705C222.645 47.0299 222.954 45.7537 223.571 44.6419C224.191 43.5272 225.027 42.6538 226.078 42.0157C227.13 41.3776 228.271 41.0563 229.508 41.0563C230.622 41.0563 231.631 41.2298 232.539 41.5797C233.446 41.9297 234.228 42.4245 234.888 43.0626C235.547 43.7006 236.042 44.4715 236.372 45.3766V51.9837C235.919 52.8948 235.382 53.643 234.764 54.2404C234.146 54.8377 233.424 55.2903 232.599 55.5995ZM274.489 59.9496C273.292 60.8969 271.796 61.6587 270.002 62.235C268.209 62.8112 266.448 63.0993 264.714 63.0993C261.623 63.0993 258.935 62.5306 256.643 61.4038C254.355 60.2709 252.582 58.6448 251.324 56.5254C250.068 54.4045 249.44 51.8446 249.44 48.8352C249.44 45.8258 250.121 43.2689 251.481 41.1495C252.842 39.0301 254.623 37.4115 256.832 36.3043C259.037 35.1925 261.354 34.6374 263.79 34.6374C266.227 34.6374 268.334 34.9663 270.131 35.6255C271.924 36.2847 273.457 37.149 274.736 38.2185L270.53 43.7757C269.953 43.3232 269.158 42.8616 268.151 42.3849C267.142 41.9113 265.955 41.6729 264.599 41.6729C263.403 41.6729 262.311 41.9822 261.321 42.5991C260.331 43.2161 259.549 44.0608 258.971 45.1304C258.395 46.2014 258.106 47.4353 258.106 48.8352C258.106 50.1521 258.416 51.3664 259.034 52.4781C259.651 53.5899 260.505 54.4663 261.597 55.1044C262.689 55.7425 263.98 56.0638 265.463 56.0638C266.412 56.0638 267.29 55.9325 268.094 55.6595C268.898 55.3925 269.587 55.0094 270.168 54.5191L274.489 59.9496ZM283.698 61.2454C285.986 62.4808 288.777 63.0978 292.074 63.0978V63.0933C293.559 63.0933 295.136 62.8459 296.799 62.3526C298.472 61.8578 300.027 61.2001 301.469 60.3765L297.636 53.9549C296.77 54.4904 295.892 54.9233 295.005 55.2522C294.12 55.5826 293.204 55.747 292.255 55.747C290.937 55.747 289.741 55.4589 288.67 54.8826C287.983 54.5139 287.39 54.031 286.89 53.4342L306.667 47.1607C305.925 42.9249 304.305 39.6802 301.811 37.4371C299.318 35.194 296.135 34.0702 292.26 34.0702C289.374 34.0702 286.757 34.7203 284.407 36.0176C282.058 37.3134 280.181 39.0557 278.78 41.237C277.379 43.4197 276.679 45.7458 276.679 48.5862C276.679 51.4267 277.275 53.9383 278.471 56.1196C279.665 58.3023 281.409 60.0099 283.698 61.2454ZM285.219 48.634C285.211 48.4559 285.208 48.2746 285.208 48.09C285.208 46.6041 285.467 45.3189 285.981 44.2283C286.497 43.1376 287.24 42.2944 288.208 41.697C289.176 41.0997 290.302 40.7995 291.579 40.7995C293.27 40.7995 294.539 41.2038 295.385 42.0063C296.178 42.7595 296.748 43.6377 297.088 44.6345L285.219 48.634Z" fill="black"/>
</svg>
