<svg width="209" height="77" viewBox="0 0 209 77" fill="none" xmlns="http://www.w3.org/2000/svg">
<path fill-rule="evenodd" clip-rule="evenodd" d="M39.961 51.5044L39.9564 48.9772C39.9564 48.9448 39.9693 48.9137 39.9922 48.8907C40.0152 48.8678 40.0463 48.8549 40.0787 48.8549L42.6081 48.8572C42.6406 48.8572 42.6717 48.8443 42.6946 48.8214C42.7176 48.7985 42.7305 48.7673 42.7305 48.7349L42.7282 29.4134C42.7282 29.3809 42.7153 29.3498 42.6923 29.3269C42.6694 29.3039 42.6383 29.291 42.6058 29.291L40.0856 29.2864C40.0532 29.2864 40.0221 29.2735 39.9991 29.2506C39.9762 29.2277 39.9633 29.1966 39.9633 29.1641L39.9541 26.6416C39.9541 26.6092 39.9412 26.5781 39.9183 26.5551C39.8953 26.5322 39.8642 26.5193 39.8318 26.5193H23.2543C23.2219 26.5193 23.1907 26.5322 23.1678 26.5551C23.1449 26.5781 23.132 26.6092 23.132 26.6416L23.1204 29.1664C23.1204 29.1989 23.1076 29.23 23.0846 29.2529C23.0617 29.2759 23.0306 29.2887 22.9981 29.2887L20.4779 29.291C20.4455 29.291 20.4144 29.3039 20.3914 29.3269C20.3685 29.3498 20.3556 29.3809 20.3556 29.4134L20.3533 48.7372C20.3533 48.7696 20.3662 48.8008 20.3891 48.8237C20.4121 48.8466 20.4432 48.8595 20.4756 48.8595L23.0027 48.8549C23.0352 48.8549 23.0663 48.8678 23.0892 48.8907C23.1122 48.9137 23.1251 48.9448 23.1251 48.9772L23.1204 51.5044C23.1204 51.5368 23.1333 51.5679 23.1563 51.5908C23.1792 51.6138 23.2103 51.6267 23.2428 51.6267H39.8387C39.8711 51.6267 39.9022 51.6138 39.9252 51.5908C39.9481 51.5679 39.961 51.5368 39.961 51.5044ZM34.1939 35.0641C34.1983 35.0747 34.2006 35.0861 34.2006 35.0977V43.046C34.2006 43.0575 34.1983 43.0689 34.1939 43.0795C34.1895 43.0902 34.183 43.0999 34.1749 43.108C34.1667 43.1161 34.1571 43.1226 34.1464 43.127C34.1358 43.1314 34.1244 43.1337 34.1129 43.1337H28.9709C28.9594 43.1337 28.948 43.1314 28.9373 43.127C28.9267 43.1226 28.917 43.1161 28.9089 43.108C28.9007 43.0999 28.8943 43.0902 28.8899 43.0795C28.8855 43.0689 28.8832 43.0575 28.8832 43.046V35.0977C28.8832 35.0861 28.8855 35.0747 28.8899 35.0641C28.8943 35.0535 28.9007 35.0438 28.9089 35.0356C28.917 35.0275 28.9267 35.021 28.9373 35.0166C28.948 35.0122 28.9594 35.01 28.9709 35.01H34.1129C34.1244 35.01 34.1358 35.0122 34.1464 35.0166C34.1571 35.021 34.1667 35.0275 34.1749 35.0356C34.183 35.0438 34.1895 35.0535 34.1939 35.0641ZM12.2688 57.0295L12.2619 54.5301C12.2619 54.4939 12.2762 54.4593 12.3018 54.4338C12.3273 54.4082 12.3619 54.3939 12.3981 54.3939L14.8998 54.3985C14.9359 54.3985 14.9705 54.3842 14.9961 54.3586C15.0216 54.3331 15.036 54.2985 15.036 54.2623L15.0337 26.6555C15.0337 26.6376 15.0301 26.6199 15.0233 26.6034C15.0164 26.5869 15.0064 26.5719 14.9938 26.5592C14.9811 26.5466 14.9661 26.5366 14.9496 26.5297C14.9331 26.5229 14.9154 26.5194 14.8975 26.5194H6.64453C6.60841 26.5194 6.57378 26.5337 6.54824 26.5592C6.52271 26.5848 6.50836 26.6194 6.50836 26.6555L6.50605 48.5388C6.50605 48.5749 6.49171 48.6096 6.46617 48.6351C6.44064 48.6606 6.406 48.675 6.36989 48.675H1.10793C1.07182 48.675 1.03719 48.6893 1.01165 48.7149C0.986114 48.7404 0.971768 48.775 0.971768 48.8111L0.964844 57.0295C0.964844 57.0656 0.97919 57.1002 1.00473 57.1258C1.03026 57.1513 1.0649 57.1656 1.10101 57.1656H12.1327C12.1688 57.1656 12.2034 57.1513 12.2289 57.1258C12.2545 57.1002 12.2688 57.0656 12.2688 57.0295ZM56.5754 46.2009L56.5777 51.5113C56.5777 51.5419 56.5656 51.5712 56.5439 51.5929C56.5223 51.6145 56.4929 51.6267 56.4623 51.6267H48.1632C48.1326 51.6267 48.1033 51.6145 48.0816 51.5929C48.06 51.5712 48.0478 51.5419 48.0478 51.5113L48.0501 26.6347C48.0501 26.6041 48.0623 26.5747 48.0839 26.5531C48.1056 26.5314 48.1349 26.5193 48.1655 26.5193H56.4577C56.4883 26.5193 56.5177 26.5314 56.5393 26.5531C56.561 26.5747 56.5731 26.6041 56.5731 26.6347L56.58 31.9428C56.58 31.9734 56.5922 32.0028 56.6138 32.0244C56.6355 32.046 56.6648 32.0582 56.6954 32.0582H59.0079C59.0385 32.0582 59.0679 32.046 59.0895 32.0244C59.1112 32.0028 59.1233 31.9734 59.1233 31.9428L59.1349 29.4064C59.1349 29.3758 59.147 29.3465 59.1687 29.3248C59.1903 29.3032 59.2196 29.291 59.2502 29.291L61.7774 29.2887C61.808 29.2887 61.8373 29.2766 61.859 29.2549C61.8806 29.2333 61.8928 29.2039 61.8928 29.1733L61.9043 26.6347C61.9043 26.6041 61.9165 26.5747 61.9381 26.5531C61.9597 26.5314 61.9891 26.5193 62.0197 26.5193H70.305C70.3356 26.5193 70.3649 26.5314 70.3866 26.5531C70.4082 26.5747 70.4204 26.6041 70.4204 26.6347L70.4273 32.1251C70.4273 32.1557 70.4151 32.1851 70.3935 32.2067C70.3719 32.2284 70.3425 32.2405 70.3119 32.2405L67.7663 32.2382C67.7357 32.2382 67.7064 32.2504 67.6847 32.272C67.6631 32.2936 67.6509 32.323 67.6509 32.3536L67.6555 34.8946C67.6555 34.9252 67.6434 34.9545 67.6217 34.9762C67.6001 34.9978 67.5707 35.01 67.5401 35.01L64.9992 35.0077C64.9686 35.0077 64.9392 35.0198 64.9176 35.0415C64.8959 35.0631 64.8838 35.0924 64.8838 35.123L64.8861 37.664C64.8861 37.6946 64.8739 37.724 64.8523 37.7456C64.8306 37.7673 64.8013 37.7794 64.7707 37.7794L62.2297 37.7771C62.1991 37.7771 62.1698 37.7893 62.1481 37.8109C62.1265 37.8325 62.1143 37.8619 62.1143 37.8925L62.1166 40.2488C62.1166 40.2794 62.1288 40.3088 62.1504 40.3304C62.1721 40.3521 62.2014 40.3642 62.232 40.3642L64.7638 40.3689C64.7944 40.3689 64.8237 40.381 64.8454 40.4026C64.867 40.4243 64.8792 40.4536 64.8792 40.4842L64.8884 43.0183C64.8884 43.0489 64.9005 43.0782 64.9222 43.0999C64.9438 43.1215 64.9732 43.1337 65.0038 43.1337L67.5332 43.1383C67.5638 43.1383 67.5932 43.1505 67.6148 43.1721C67.6365 43.1937 67.6486 43.2231 67.6486 43.2537L67.6578 45.7877C67.6578 45.8183 67.67 45.8477 67.6916 45.8693C67.7133 45.891 67.7426 45.9031 67.7732 45.9031L70.305 45.9078C70.3356 45.9078 70.3649 45.9199 70.3866 45.9416C70.4082 45.9632 70.4204 45.9925 70.4204 46.0231L70.4273 51.5113C70.4273 51.5419 70.4151 51.5712 70.3935 51.5929C70.3719 51.6145 70.3425 51.6267 70.3119 51.6267H62.0105C61.9799 51.6267 61.9505 51.6145 61.9289 51.5929C61.9072 51.5712 61.8951 51.5419 61.8951 51.5113L61.8974 48.9703C61.8974 48.9397 61.8852 48.9103 61.8636 48.8887C61.8419 48.8671 61.8126 48.8549 61.782 48.8549L59.241 48.8595C59.2104 48.8595 59.1811 48.8474 59.1594 48.8257C59.1378 48.8041 59.1256 48.7747 59.1256 48.7441L59.1279 46.2032C59.1279 46.1726 59.1158 46.1432 59.0941 46.1216C59.0725 46.0999 59.0431 46.0878 59.0125 46.0878L56.6908 46.0855C56.6602 46.0855 56.6309 46.0976 56.6092 46.1193C56.5876 46.1409 56.5754 46.1702 56.5754 46.2009ZM84.2722 43.0044L84.2676 40.6804C84.2676 40.6455 84.2815 40.6121 84.3062 40.5874C84.3308 40.5627 84.3643 40.5489 84.3992 40.5489H95.2231C95.258 40.5489 95.2915 40.535 95.3161 40.5103C95.3408 40.4857 95.3547 40.4522 95.3547 40.4173L95.3454 37.7286C95.3454 37.6938 95.3316 37.6603 95.3069 37.6356C95.2822 37.611 95.2488 37.5971 95.2139 37.5971H84.4038C84.3689 37.5971 84.3354 37.5832 84.3108 37.5586C84.2861 37.5339 84.2722 37.5004 84.2722 37.4655L84.2676 35.1415C84.2676 35.1066 84.2815 35.0732 84.3062 35.0485C84.3308 35.0238 84.3643 35.01 84.3992 35.01H97.9879C98.0228 35.01 98.0563 34.9961 98.081 34.9714C98.1056 34.9468 98.1195 34.9133 98.1195 34.8784L98.1172 26.6508C98.1172 26.6159 98.1033 26.5825 98.0787 26.5578C98.054 26.5331 98.0205 26.5193 97.9856 26.5193H75.8762C75.8589 26.5193 75.8418 26.5227 75.8259 26.5293C75.8099 26.5359 75.7954 26.5456 75.7832 26.5578C75.771 26.57 75.7613 26.5845 75.7547 26.6005C75.748 26.6165 75.7446 26.6336 75.7446 26.6508L75.7423 51.4951C75.7423 51.53 75.7562 51.5635 75.7809 51.5881C75.8055 51.6128 75.839 51.6267 75.8739 51.6267H97.9879C98.0228 51.6267 98.0563 51.6128 98.081 51.5881C98.1056 51.5635 98.1195 51.53 98.1195 51.4951L98.1172 43.2675C98.1172 43.2327 98.1033 43.1992 98.0787 43.1745C98.054 43.1499 98.0205 43.136 97.9856 43.136H84.4038C84.3689 43.136 84.3354 43.1221 84.3108 43.0975C84.2861 43.0728 84.2722 43.0393 84.2722 43.0044ZM111.964 46.2009L111.967 51.5113C111.967 51.5419 111.955 51.5712 111.933 51.5929C111.911 51.6145 111.882 51.6267 111.851 51.6267H103.552C103.522 51.6267 103.492 51.6145 103.471 51.5929C103.449 51.5712 103.437 51.5419 103.437 51.5113L103.439 26.6347C103.439 26.6041 103.451 26.5747 103.473 26.5531C103.495 26.5314 103.524 26.5193 103.555 26.5193H122.92C122.951 26.5193 122.98 26.5314 123.002 26.5531C123.023 26.5747 123.035 26.6041 123.035 26.6347L123.047 29.171C123.047 29.2016 123.059 29.231 123.081 29.2526C123.102 29.2743 123.132 29.2864 123.162 29.2864L125.696 29.291C125.727 29.291 125.756 29.3032 125.778 29.3248C125.8 29.3465 125.812 29.3758 125.812 29.4064L125.814 43.2029C125.814 43.2335 125.802 43.2629 125.78 43.2845C125.759 43.3062 125.729 43.3183 125.699 43.3183L123.158 43.316C123.127 43.316 123.098 43.3282 123.076 43.3498C123.054 43.3714 123.042 43.4008 123.042 43.4314L123.045 45.7877C123.045 45.8183 123.057 45.8477 123.078 45.8693C123.1 45.891 123.129 45.9031 123.16 45.9031L125.694 45.9078C125.725 45.9078 125.754 45.9199 125.776 45.9416C125.797 45.9632 125.809 45.9925 125.809 46.0231L125.816 51.5113C125.816 51.5419 125.804 51.5712 125.783 51.5929C125.761 51.6145 125.732 51.6267 125.701 51.6267H117.4C117.369 51.6267 117.34 51.6145 117.318 51.5929C117.296 51.5712 117.284 51.5419 117.284 51.5113L117.286 48.9703C117.286 48.9397 117.274 48.9103 117.253 48.8887C117.231 48.8671 117.202 48.8549 117.171 48.8549L114.63 48.8572C114.599 48.8572 114.57 48.8451 114.548 48.8234C114.527 48.8018 114.515 48.7724 114.515 48.7418L114.517 46.2032C114.517 46.1726 114.505 46.1432 114.483 46.1216C114.462 46.0999 114.432 46.0878 114.402 46.0878L112.08 46.0855C112.049 46.0855 112.02 46.0976 111.998 46.1193C111.977 46.1409 111.964 46.1702 111.964 46.2009ZM117.286 35.0977C117.286 35.0744 117.277 35.0521 117.261 35.0356C117.244 35.0192 117.222 35.01 117.199 35.01H112.052C112.029 35.01 112.007 35.0192 111.99 35.0356C111.974 35.0521 111.964 35.0744 111.964 35.0977V37.5071C111.964 37.5303 111.974 37.5526 111.99 37.5691C112.007 37.5855 112.029 37.5948 112.052 37.5948H117.199C117.222 37.5948 117.244 37.5855 117.261 37.5691C117.277 37.5526 117.286 37.5303 117.286 37.5071V35.0977ZM139.661 51.4928L139.659 43.4522C139.659 43.4167 139.673 43.3826 139.698 43.3575C139.723 43.3324 139.757 43.3183 139.793 43.3183H144.847C144.883 43.3183 144.917 43.3324 144.942 43.3575C144.967 43.3826 144.981 43.4167 144.981 43.4522L144.979 51.4951C144.979 51.5306 144.993 51.5647 145.018 51.5898C145.043 51.6149 145.077 51.629 145.112 51.629L153.375 51.6244C153.392 51.6244 153.41 51.6209 153.426 51.6142C153.442 51.6074 153.457 51.5976 153.469 51.5852C153.482 51.5727 153.492 51.558 153.498 51.5417C153.505 51.5255 153.508 51.5081 153.508 51.4905L153.506 29.4226C153.506 29.3871 153.492 29.353 153.467 29.3279C153.442 29.3028 153.408 29.2887 153.372 29.2887H148.103C148.068 29.2887 148.034 29.2746 148.009 29.2495C147.984 29.2244 147.97 29.1904 147.97 29.1549L147.963 26.6531C147.963 26.6356 147.959 26.6182 147.952 26.6019C147.946 26.5857 147.936 26.5709 147.923 26.5585C147.911 26.5461 147.896 26.5362 147.88 26.5295C147.864 26.5227 147.846 26.5193 147.829 26.5193H136.811C136.793 26.5193 136.776 26.5227 136.76 26.5295C136.744 26.5362 136.729 26.5461 136.716 26.5585C136.704 26.5709 136.694 26.5857 136.687 26.6019C136.681 26.6182 136.677 26.6356 136.677 26.6531L136.67 29.1549C136.67 29.1904 136.656 29.2244 136.631 29.2495C136.606 29.2746 136.572 29.2887 136.536 29.2887H131.267C131.232 29.2887 131.198 29.3028 131.173 29.3279C131.148 29.353 131.134 29.3871 131.134 29.4226L131.131 51.4928C131.131 51.5104 131.135 51.5278 131.142 51.544C131.148 51.5603 131.158 51.575 131.171 51.5875C131.183 51.5999 131.198 51.6098 131.214 51.6165C131.23 51.6232 131.248 51.6267 131.265 51.6267H139.527C139.563 51.6267 139.597 51.6126 139.622 51.5875C139.647 51.5624 139.661 51.5283 139.661 51.4928ZM144.954 35.035C144.97 35.051 144.979 35.0727 144.979 35.0954V40.2788C144.979 40.3015 144.97 40.3232 144.954 40.3392C144.938 40.3552 144.916 40.3642 144.893 40.3642H139.747C139.724 40.3642 139.702 40.3552 139.686 40.3392C139.67 40.3232 139.661 40.3015 139.661 40.2788V35.0954C139.661 35.0727 139.67 35.051 139.686 35.035C139.702 35.019 139.724 35.01 139.747 35.01H144.893C144.916 35.01 144.938 35.019 144.954 35.035ZM167.353 35.1438L167.356 43.0021C167.356 43.0376 167.37 43.0717 167.395 43.0968C167.42 43.1219 167.454 43.136 167.49 43.136H181.067C181.102 43.136 181.136 43.1501 181.161 43.1752C181.187 43.2003 181.201 43.2344 181.201 43.2698L181.203 51.4928C181.203 51.5283 181.189 51.5624 181.164 51.5875C181.139 51.6126 181.105 51.6267 181.069 51.6267H164.496C164.461 51.6267 164.427 51.6126 164.402 51.5875C164.377 51.5624 164.362 51.5283 164.362 51.4928L164.369 48.9888C164.369 48.9533 164.355 48.9192 164.33 48.8941C164.305 48.869 164.271 48.8549 164.236 48.8549L158.96 48.8595C158.924 48.8595 158.89 48.8454 158.865 48.8203C158.84 48.7952 158.826 48.7612 158.826 48.7257L158.828 29.4226C158.828 29.3871 158.842 29.353 158.867 29.3279C158.892 29.3028 158.927 29.2887 158.962 29.2887H164.231C164.266 29.2887 164.3 29.2746 164.326 29.2495C164.351 29.2244 164.365 29.1904 164.365 29.1549L164.372 26.6531C164.372 26.6176 164.386 26.5836 164.411 26.5585C164.436 26.5334 164.47 26.5193 164.506 26.5193H181.067C181.102 26.5193 181.136 26.5334 181.161 26.5585C181.187 26.5836 181.201 26.6176 181.201 26.6531L181.203 34.8761C181.203 34.9116 181.189 34.9457 181.164 34.9708C181.139 34.9959 181.105 35.01 181.069 35.01H167.487C167.452 35.01 167.418 35.0241 167.393 35.0492C167.368 35.0743 167.353 35.1083 167.353 35.1438ZM195.05 37.4655L195.046 35.1415C195.046 35.1066 195.06 35.0732 195.084 35.0485C195.109 35.0238 195.142 35.01 195.177 35.01H208.766C208.801 35.01 208.834 34.9961 208.859 34.9714C208.884 34.9468 208.898 34.9133 208.898 34.8784L208.895 26.6508C208.895 26.6159 208.881 26.5825 208.857 26.5578C208.832 26.5331 208.799 26.5193 208.764 26.5193H186.654C186.619 26.5193 186.586 26.5331 186.561 26.5578C186.537 26.5825 186.523 26.6159 186.523 26.6508L186.52 51.4951C186.52 51.5124 186.524 51.5295 186.53 51.5455C186.537 51.5614 186.547 51.5759 186.559 51.5881C186.571 51.6004 186.586 51.61 186.602 51.6167C186.618 51.6233 186.635 51.6267 186.652 51.6267H208.766C208.801 51.6267 208.834 51.6128 208.859 51.5881C208.884 51.5635 208.898 51.53 208.898 51.4951L208.895 43.2675C208.895 43.2327 208.881 43.1992 208.857 43.1745C208.832 43.1499 208.799 43.136 208.764 43.136H195.182C195.147 43.136 195.113 43.1221 195.089 43.0975C195.064 43.0728 195.05 43.0393 195.05 43.0044L195.046 40.6804C195.046 40.6455 195.06 40.6121 195.084 40.5874C195.109 40.5627 195.142 40.5489 195.177 40.5489H206.001C206.036 40.5489 206.07 40.535 206.094 40.5103C206.119 40.4857 206.133 40.4522 206.133 40.4173L206.123 37.7286C206.123 37.7114 206.12 37.6943 206.113 37.6783C206.107 37.6623 206.097 37.6478 206.085 37.6356C206.073 37.6234 206.058 37.6137 206.042 37.6071C206.026 37.6005 206.009 37.5971 205.992 37.5971H195.182C195.147 37.5971 195.113 37.5832 195.089 37.5586C195.064 37.5339 195.05 37.5004 195.05 37.4655Z" fill="black"/>
</svg>
