<svg width="129" height="77" viewBox="0 0 129 77" fill="none" xmlns="http://www.w3.org/2000/svg">
<path fill-rule="evenodd" clip-rule="evenodd" d="M103.333 63.7503C100.718 63.1731 100.054 57.9824 99.704 55.2454L99.6852 55.0985C99.218 51.4198 100.602 47.9486 103.091 45.2713C104.699 43.5444 106.721 42.2834 108.744 41.092C108.944 40.9719 109.24 40.8211 109.586 40.6442C111.184 39.8291 113.865 38.4605 113.326 36.9997C112.773 35.5137 110.387 36.2741 108.503 37.8805C108.196 38.1424 107.831 38.5047 107.426 38.908C105.506 40.8172 102.663 43.645 100.55 41.092C99.4441 39.7609 99.5988 37.3026 99.7127 35.4942C99.7288 35.2384 99.744 34.9955 99.7548 34.7708C99.7858 34.1356 99.8295 33.5005 99.8731 32.8657V32.8656V32.8654C99.9991 31.0317 100.125 29.2007 99.9449 27.38C99.5647 23.5634 98.3372 19.6264 95.1217 17.2596C94.4818 16.7938 94.7067 15.775 95.5019 15.6184C96.9717 15.3253 98.7 14.9973 99.0975 14.9277C111.389 12.4752 123.388 7.63995 127.417 5.42981C127.815 5.20491 128.264 5.6373 128.057 6.05095C125.464 11.1968 122.421 17.4832 122.922 22.613C123.112 24.6504 122.542 25.2555 121.452 24.8927C119.135 24.1324 116.939 23.546 114.519 23.1832C111.511 22.7348 109.038 24.3064 108.589 27.38C108.364 28.9168 108.122 31.1108 109.089 32.4575C109.957 33.6732 111.312 33.396 112.621 33.1281C113.19 33.0115 113.751 32.8968 114.259 32.9073C116.162 32.9595 117.51 34.6864 117.544 36.499C117.562 37.7774 117.026 39.0036 116.214 40.005C115.252 41.2031 113.893 41.9929 112.542 42.7781C110.953 43.7017 109.375 44.6189 108.468 46.1869C106.913 48.8643 109.593 51.6099 112.099 52.3689C115.072 53.2672 118.686 52.6969 121.192 50.8669C121.867 50.3837 122.904 50.5564 122.904 51.8509C122.918 55.7773 125.4 62.8653 127.009 67.4629C127.538 68.9723 127.973 70.2132 128.195 70.9858C128.298 71.3486 127.935 71.6591 127.59 71.5213C124.945 70.3298 114.986 66.3406 103.333 63.7503ZM60.4074 20.0253C59.8429 19.1141 59.2657 18.1826 57.9027 18.1633L57.9053 18.1619C57.673 18.1587 57.3286 18.1589 56.8868 18.1591H56.8867H56.8867C52.9894 18.1615 41.5091 18.1686 32.476 15.8313C25.5082 14.0388 30.2511 24.1391 32.8026 28.8619C33.4411 30.052 35.1587 30.5513 35.9431 29.4656C40.67 23.0025 55.4208 19.6237 61.7005 29.6557C62.6121 31.1109 63.1128 32.8003 63.343 34.4923C63.7125 37.2098 63.4327 40.0143 62.5679 42.6154C61.2574 46.5604 58.398 50.3582 54.3994 51.8468C50.4449 53.3194 45.9831 53.0784 42.6418 50.2699C37.8829 46.27 37.3929 37.7333 41.7302 33.1885C44.0943 30.7106 48.1732 30.1858 51.1946 31.7989C54.216 33.412 56.0325 36.9354 55.8157 40.353C55.6109 43.5926 53.3579 46.8523 50.1518 47.369C49.1076 47.5363 47.9296 47.369 47.2027 46.6006C46.3071 45.6555 46.3914 44.1147 46.9443 42.9353C47.3026 42.1711 47.8199 41.5018 48.3379 40.8318L48.3379 40.8317C48.6193 40.4678 48.9008 40.1036 49.1571 39.7239C49.8854 38.6449 50.4235 37.2995 50.0447 36.0532C49.6216 34.661 48.0755 33.7936 46.6257 33.906C45.1759 34.0184 43.8787 34.9649 43.0769 36.1777C42.275 37.3906 41.9109 38.8443 41.7355 40.2874C41.429 42.8122 41.7248 45.9647 43.5508 47.8964C45.2589 49.7036 48.1531 50.4439 50.5587 50.1909C57.4783 49.464 61.6897 41.7024 61.0298 35.2674C60.8022 33.0546 60.0151 30.8632 58.5666 29.1738C55.9884 26.1672 51.6591 25.1565 47.7247 25.6129C43.1987 26.139 38.7717 28.5486 36.4706 32.4803C35.081 34.8524 34.5215 37.6235 34.2992 40.3637C34.077 43.0986 34.1734 45.8844 34.8909 48.5336C35.6085 51.1829 36.9752 53.6955 39.0247 55.5202C41.9912 58.1614 46.1076 59.1506 50.0768 59.2711C52.4636 59.3434 54.9254 59.1185 57.0566 58.0422C62.6522 55.2176 64.837 47.7559 65.6388 42.0317C66.5705 35.3785 65.2627 29.9489 62.9896 24.8298L62.8657 24.5518C62.2695 23.2122 61.6717 21.8691 60.8303 20.6759C60.6826 20.4693 60.5454 20.2479 60.4074 20.0253ZM62.4876 18.8607C70.0765 26.5634 72.2599 47.8965 62.3189 58.31L62.3203 58.3087C62.0432 58.5858 62.2507 59.069 62.6482 59.0342H67.5237C71.5705 59.0864 75.6159 59.3274 79.6266 59.7598C83.1927 60.3295 81.4544 57.9416 80.8045 57.0488C80.7123 56.9222 80.642 56.8256 80.6118 56.7719C80.2363 56.1419 79.8009 55.5712 79.3655 55.0006L79.3655 55.0006L79.3651 55.0001L79.365 54.9999C79.1798 54.7572 78.9946 54.5145 78.814 54.2672C75.3562 49.5002 72.4179 44.768 71.5705 38.914C71.0685 35.4428 71.6227 32.2648 74.4058 29.8994C77.2759 27.4644 81.1487 26.0307 84.8661 25.7027C87.1138 25.5126 91.0387 25.4443 91.8165 28.1899C92.9745 32.2314 88.0816 32.9395 85.1941 33.2501C84.5143 33.3229 83.6876 33.3449 82.7924 33.3688C79.2257 33.4638 74.5709 33.5878 73.7833 37.0666C73.4714 38.4147 73.7485 39.831 74.1983 41.1429C75.2358 44.1295 76.7043 46.7546 78.399 49.4145C78.5354 49.628 78.6711 49.8412 78.8065 50.054C80.6982 53.026 82.5412 55.9216 85.332 58.2738C87.008 59.6902 89.5849 61.2109 91.5555 61.1413C95.2033 61.0208 97.1217 57.5148 97.6237 53.3703C98.3318 47.515 97.052 41.9367 93.6465 37.6369C93.2476 37.1363 92.8165 36.9984 92.3145 37.2741C91.9585 37.4671 91.5962 37.6474 91.2342 37.8277L91.234 37.8278C90.5587 38.164 89.8843 38.4997 89.2543 38.9153C87.751 39.9167 86.2985 41.005 84.8635 42.0933C83.913 42.8176 83.9652 43.2848 84.8983 44.096C84.9549 44.1465 85.0132 44.1952 85.0715 44.2439C85.1923 44.3447 85.3129 44.4454 85.4177 44.5619C86.8005 46.029 87.7336 47.7399 87.4056 49.95C87.2503 51.0383 86.506 51.7974 85.5555 51.8148C83.9304 51.867 82.7377 50.9165 81.8381 49.3971C80.4204 46.9795 80.5583 43.2326 82.0282 40.7279C83.5154 38.2059 85.6934 36.8243 88.1486 35.7708C89.8085 35.0801 91.3814 34.2688 92.8861 33.3184C94.5113 32.2648 95.5996 30.5031 95.8767 28.1551C96.3613 24.0093 95.1846 20.8835 92.4015 19.0187C89.8768 17.3092 87.0241 16.9639 84.0335 17.1713C83.001 17.2465 81.9864 17.3241 80.9825 17.4008C76.6743 17.7302 72.5623 18.0447 68.0752 18.087C68.0536 18.087 67.9541 18.0886 67.7948 18.0912C66.9399 18.1051 64.3603 18.1471 62.8156 18.1178C62.418 18.1178 62.2105 18.585 62.4876 18.8607ZM13.8792 10.1621C12.1844 9.557 3.10823 6.13804 1.43088 5.46468C1.17118 5.41247 0.410814 5.46468 0.790996 6.10323C10.3692 21.5769 6.35852 59.2939 0.843204 70.0716C0.687918 70.3996 0.999828 70.7449 1.34521 70.6245C8.79757 67.844 25.2913 62.9043 29.2846 62.0235C34.662 60.8321 37.8427 59.5376 36.8052 57.9138C34.575 54.373 32.6902 51.2994 31.7049 47.1375C30.6848 42.8203 30.3207 38.3304 30.978 33.9262C30.985 33.8813 30.9921 33.8363 30.9992 33.7913C31.131 32.9538 31.265 32.1022 31.1507 31.2662C30.8053 28.9182 28.2284 27.2944 25.8777 27.6224C23.5256 27.9503 21.606 29.9021 20.8978 32.1645C20.2071 34.3572 20.5524 36.8445 21.8148 38.7614C22.4395 39.7139 23.2454 40.6177 24.0601 41.5313C25.8606 43.5503 27.7038 45.6172 27.7277 48.3637C27.7625 52.1106 23.0772 54.7532 19.6716 54.3904C10.1108 53.3891 12.254 41.1095 15.3664 35.3933C16.0175 34.1889 16.6834 33.0256 17.3416 31.8755C18.099 30.5521 18.8464 29.2463 19.5498 27.9155C21.3128 24.5474 22.1428 20.7483 22.0049 16.3615C21.9366 14.0817 21.1749 12.3548 19.3945 11.8194C18.85 11.6594 18.3261 11.5103 17.812 11.3639C16.4973 10.9897 15.2467 10.6336 13.8792 10.1621Z" fill="black"/>
</svg>
