<svg width="247" height="77" viewBox="0 0 247 77" fill="none" xmlns="http://www.w3.org/2000/svg">
<path fill-rule="evenodd" clip-rule="evenodd" d="M49.0349 15.8226H43.2009C43.1851 15.8226 43.17 15.8163 43.1588 15.8051C43.1477 15.794 43.1414 15.7788 43.1414 15.7631L43.1425 12.2678C43.1425 12.252 43.1487 12.2369 43.1599 12.2257C43.1711 12.2145 43.1862 12.2083 43.202 12.2083H52.7555C52.7713 12.2083 52.7864 12.2145 52.7976 12.2257C52.8088 12.2369 52.815 12.252 52.815 12.2678V21.7161C52.815 21.7319 52.8088 21.747 52.7976 21.7582C52.7864 21.7693 52.7713 21.7756 52.7555 21.7756H49.1539C49.1382 21.7756 49.123 21.7693 49.1119 21.7582C49.1007 21.747 49.0944 21.7319 49.0944 21.7161V15.8821C49.0944 15.8663 49.0881 15.8512 49.077 15.84C49.0658 15.8289 49.0507 15.8226 49.0349 15.8226ZM15.6629 49.2839L0.263734 49.2881C0.250201 49.2881 0.237222 49.2828 0.227653 49.2732C0.218084 49.2636 0.212708 49.2506 0.212708 49.2371V12.2657C0.212708 12.2274 0.231842 12.2083 0.270112 12.2083H39.257C39.2726 12.2083 39.2804 12.2157 39.2804 12.2306V15.7195C39.2804 15.7258 39.2792 15.732 39.2767 15.7378C39.2743 15.7436 39.2706 15.7489 39.2661 15.7533C39.2616 15.7578 39.2562 15.7613 39.2502 15.7637C39.2443 15.7661 39.2379 15.7674 39.2315 15.7674H3.85787C3.8359 15.7674 3.82491 15.7783 3.82491 15.8003L3.82385 45.8173C3.82385 45.8244 3.82665 45.8311 3.83163 45.8361C3.83662 45.8411 3.84338 45.8439 3.85042 45.8439C11.797 45.8467 19.7032 45.8457 27.5689 45.8407C28.4321 45.8407 29.3509 45.7394 30.3254 45.5367C33.2966 44.9212 35.6789 43.0619 36.3496 39.9887C36.6111 38.7938 36.6505 37.5586 36.4676 36.2829C35.8171 31.7427 31.7552 29.7814 27.5679 29.7771C24.8841 29.7743 22.2162 29.7739 19.5643 29.7761C19.5458 29.7761 19.5366 29.7856 19.5366 29.8048V42.3678C19.5366 42.3796 19.5319 42.391 19.5235 42.3993C19.5152 42.4077 19.5038 42.4124 19.492 42.4124L15.7894 42.4135C15.777 42.4135 15.7651 42.4084 15.7563 42.3995C15.7476 42.3905 15.7426 42.3783 15.7426 42.3656V26.351C15.7426 26.3439 15.7454 26.3372 15.7504 26.3322C15.7554 26.3272 15.7622 26.3244 15.7692 26.3244C19.903 26.3138 24.0584 26.3162 28.2355 26.3318C29.5395 26.3368 30.9427 26.549 32.4451 26.9686C33.8455 27.3591 35.1548 28.0058 36.373 28.9086C38.4917 30.4787 39.8226 32.6622 40.2669 35.3017C40.6057 37.3187 40.5504 39.2495 40.1011 41.0942C38.8839 46.0873 34.4861 48.7226 29.6238 49.1946C28.9824 49.2562 28.29 49.2867 27.5466 49.286C24.9089 49.281 22.2566 49.281 19.5898 49.286C19.5543 49.286 19.5366 49.3037 19.5366 49.3392V61.0868C19.5366 61.1123 19.5494 61.1251 19.5749 61.1251H49.1189C49.1243 61.1251 49.1297 61.124 49.1347 61.1219C49.1397 61.1198 49.1443 61.1168 49.1482 61.1129C49.152 61.1091 49.1551 61.1045 49.1572 61.0995C49.1592 61.0944 49.1603 61.0891 49.1603 61.0836V25.6898C49.1603 25.6793 49.1646 25.6693 49.1721 25.6619C49.1797 25.6546 49.19 25.6504 49.2007 25.6504H52.6832C52.7406 25.6504 52.7693 25.6791 52.7693 25.7365L52.7683 64.6756C52.7683 64.686 52.7641 64.6961 52.7567 64.7034C52.7494 64.7108 52.7394 64.7149 52.7289 64.7149H15.7915C15.7786 64.7149 15.7661 64.7098 15.757 64.7006C15.7478 64.6915 15.7426 64.679 15.7426 64.666V49.3625C15.7426 49.3101 15.7161 49.2839 15.6629 49.2839ZM83.1361 47.82H90.6581C90.6647 47.82 90.6711 47.822 90.6765 47.8256C90.682 47.8291 90.6863 47.8342 90.689 47.8402L92.0826 51.0952C92.0853 51.1012 92.0896 51.1063 92.0951 51.1098C92.1005 51.1134 92.1069 51.1154 92.1134 51.1154H97.4063C97.412 51.1154 97.4175 51.1139 97.4225 51.1112C97.4274 51.1085 97.4316 51.1046 97.4347 51.0998L97.4368 51.096C97.4376 51.0943 97.4382 51.0925 97.4388 51.0907L97.4393 51.0885C97.4396 51.087 97.4399 51.0855 97.44 51.084C97.4404 51.0784 97.4394 51.0727 97.4371 51.0676L86.9184 27.1885C86.9156 27.1827 86.9113 27.1777 86.9058 27.1742C86.9004 27.1708 86.894 27.1689 86.8876 27.1689C86.8811 27.1689 86.8747 27.1708 86.8693 27.1742C86.8638 27.1777 86.8595 27.1827 86.8567 27.1885L76.3369 51.0676C76.3346 51.0727 76.3336 51.0784 76.3341 51.084C76.3343 51.0866 76.3347 51.0891 76.3355 51.0915C76.3359 51.0929 76.3365 51.0944 76.3372 51.0958C76.3378 51.0972 76.3386 51.0985 76.3394 51.0998C76.3424 51.1046 76.3466 51.1085 76.3516 51.1112C76.3565 51.1139 76.3621 51.1154 76.3677 51.1154H81.6787C81.6852 51.1154 81.6916 51.1134 81.697 51.1098C81.7025 51.1063 81.7068 51.1012 81.7095 51.0952L83.1053 47.8402C83.1079 47.8342 83.1122 47.8291 83.1177 47.8256C83.1232 47.822 83.1296 47.82 83.1361 47.82ZM84.6509 43.271C84.6502 43.2653 84.651 43.2596 84.653 43.2542L86.8557 37.9614C86.8585 37.9553 86.863 37.9501 86.8686 37.9465C86.8743 37.9428 86.8808 37.9409 86.8876 37.9409C86.8943 37.9409 86.9008 37.9428 86.9065 37.9465C86.9122 37.9501 86.9166 37.9553 86.9194 37.9614L89.1221 43.2542C89.1241 43.2596 89.1249 43.2653 89.1242 43.271L89.1236 43.2746L89.1225 43.2787L89.1212 43.2817C89.1204 43.2835 89.1194 43.2853 89.1183 43.2869L89.117 43.2886C89.1159 43.2901 89.1146 43.2915 89.1132 43.2928C89.1109 43.2949 89.1084 43.2967 89.1056 43.2981C89.1005 43.3008 89.0948 43.3021 89.0891 43.3021H84.686C84.684 43.3021 84.6821 43.3019 84.6801 43.3016C84.6764 43.301 84.6729 43.2999 84.6695 43.2981C84.6644 43.2955 84.6601 43.2916 84.6568 43.2869C84.6536 43.2822 84.6515 43.2767 84.6509 43.271ZM125.454 47.8412L124.062 51.0941C124.059 51.1006 124.055 51.106 124.049 51.1098C124.043 51.1136 124.036 51.1155 124.029 51.1154H118.721C118.715 51.1155 118.71 51.1142 118.704 51.1115C118.699 51.1088 118.695 51.1048 118.692 51.0999C118.688 51.0951 118.686 51.0895 118.686 51.0836C118.685 51.0778 118.686 51.0719 118.688 51.0665L129.206 27.1917C129.209 27.1856 129.213 27.1804 129.219 27.1768C129.225 27.1732 129.231 27.1713 129.238 27.1713C129.245 27.1713 129.251 27.1732 129.257 27.1768C129.263 27.1804 129.267 27.1856 129.27 27.1917L139.789 51.0665C139.791 51.0719 139.792 51.0778 139.791 51.0836C139.791 51.0895 139.789 51.0951 139.785 51.0999C139.782 51.1048 139.778 51.1088 139.773 51.1115C139.767 51.1142 139.762 51.1155 139.756 51.1154H134.466C134.459 51.1155 134.452 51.1136 134.446 51.1098C134.443 51.1079 134.441 51.1055 134.438 51.1028C134.436 51.1002 134.434 51.0973 134.433 51.0941L133.04 47.8412C133.038 47.8348 133.033 47.8294 133.027 47.8256C133.021 47.8218 133.014 47.8198 133.007 47.82H125.486C125.48 47.8198 125.473 47.8218 125.467 47.8256C125.461 47.8294 125.456 47.8348 125.454 47.8412ZM127.005 43.2532C127.003 43.2567 127.002 43.2604 127.002 43.2642C127.002 43.2661 127.002 43.2681 127.002 43.27C127.002 43.2758 127.004 43.2813 127.007 43.2862C127.009 43.2885 127.011 43.2907 127.013 43.2926C127.015 43.2946 127.017 43.2963 127.02 43.2978C127.025 43.3005 127.031 43.302 127.036 43.3021H131.44C131.445 43.302 131.451 43.3005 131.456 43.2978C131.461 43.295 131.465 43.291 131.469 43.2862C131.47 43.2838 131.471 43.2812 131.472 43.2786L131.473 43.2758L131.474 43.2728L131.474 43.27C131.475 43.2643 131.474 43.2585 131.471 43.2532L129.27 37.9614C129.269 37.9595 129.268 37.9578 129.267 37.9561C129.264 37.9523 129.261 37.949 129.257 37.9465C129.253 37.9442 129.25 37.9426 129.246 37.9417L129.242 37.9411L129.238 37.9409C129.231 37.9409 129.225 37.9428 129.219 37.9465C129.213 37.9501 129.209 37.9553 129.206 37.9614L127.005 43.2532ZM193.653 47.8201H201.177C201.183 47.8202 201.19 47.8222 201.195 47.8258C201.2 47.8294 201.204 47.8344 201.207 47.8403L202.601 51.0953L202.603 51.0989C202.604 51.1002 202.605 51.1015 202.606 51.1027C202.608 51.1054 202.61 51.1079 202.613 51.1099C202.619 51.1134 202.625 51.1154 202.631 51.1155H207.927C207.93 51.1156 207.932 51.1153 207.934 51.1148C207.937 51.1142 207.94 51.1132 207.943 51.1118C207.948 51.1092 207.952 51.1055 207.955 51.101C207.958 51.0965 207.96 51.0912 207.96 51.0858C207.961 51.0838 207.961 51.0818 207.96 51.0798L207.96 51.0761L207.959 51.0729L207.958 51.0698L197.436 27.1865C197.433 27.1809 197.429 27.1762 197.424 27.1728C197.42 27.1706 197.416 27.169 197.412 27.1683C197.41 27.1679 197.408 27.1677 197.406 27.1677C197.4 27.1677 197.394 27.1695 197.389 27.1728C197.387 27.1742 197.385 27.1758 197.383 27.1776C197.38 27.1802 197.378 27.1832 197.377 27.1865L186.855 51.0698C186.853 51.0749 186.852 51.0804 186.852 51.0858C186.853 51.0912 186.855 51.0965 186.858 51.101L186.859 51.1031L186.861 51.1055L186.863 51.1075C186.865 51.1092 186.867 51.1106 186.87 51.1118C186.875 51.1143 186.88 51.1156 186.885 51.1155H192.199C192.205 51.1154 192.211 51.1134 192.216 51.1099C192.222 51.1063 192.226 51.1012 192.228 51.0953L193.623 47.8403C193.625 47.8344 193.63 47.8294 193.635 47.8258C193.64 47.8222 193.646 47.8202 193.653 47.8201ZM195.168 43.2718C195.168 43.2663 195.169 43.2606 195.171 43.2554L197.374 37.9594C197.377 37.9529 197.381 37.9473 197.387 37.9433C197.393 37.9393 197.399 37.9372 197.406 37.9372C197.409 37.9372 197.412 37.9375 197.414 37.9381C197.416 37.9385 197.417 37.9389 197.419 37.9395C197.421 37.9404 197.424 37.9417 197.426 37.9433L197.427 37.9444L197.43 37.947C197.432 37.9485 197.433 37.9502 197.434 37.952L197.436 37.9541C197.437 37.9557 197.438 37.9575 197.438 37.9594L199.642 43.2554C199.644 43.2606 199.645 43.2663 199.644 43.2718C199.644 43.274 199.644 43.2761 199.643 43.2782C199.642 43.2802 199.641 43.2821 199.64 43.284L199.638 43.2874C199.635 43.292 199.631 43.2958 199.626 43.2983C199.621 43.3009 199.616 43.3023 199.61 43.3022H195.203L195.201 43.3022L195.197 43.3018L195.193 43.3009L195.19 43.2998L195.187 43.2983C195.182 43.2958 195.177 43.292 195.174 43.2874C195.171 43.2827 195.169 43.2774 195.168 43.2718ZM158.966 42.1064H152.714C152.679 42.1064 152.661 42.0887 152.661 42.0532V37.6416C152.661 37.6062 152.679 37.5885 152.714 37.5885H164.621C164.658 37.5885 164.681 37.6062 164.69 37.6416C164.733 37.799 164.761 37.9598 164.776 38.1243C165.072 41.3325 164.302 44.2335 162.466 46.8273C161.68 47.9393 160.646 48.913 159.475 49.6688C154.315 52.9983 146.923 52.0012 143.152 46.8954C141.573 44.758 140.767 42.307 140.733 39.5423C140.733 39.4988 140.719 39.4573 140.697 39.419C140.681 39.3892 140.673 39.355 140.674 39.3202C140.695 38.8489 140.712 38.5197 140.727 38.3326C140.963 35.4482 142.03 32.983 143.928 30.937C146.471 28.1955 150.03 26.9974 153.741 27.26C157.21 27.5045 160.303 29.2447 162.389 32.0192C162.393 32.0253 162.397 32.0322 162.399 32.0395C162.4 32.0469 162.401 32.0545 162.4 32.0621C162.399 32.0696 162.396 32.0768 162.392 32.0833C162.388 32.0898 162.383 32.0955 162.377 32.1L158.298 35.2062C158.268 35.2289 158.243 35.2246 158.222 35.1935C156.737 32.9366 154.349 31.8523 151.657 32.252C150.144 32.4763 148.821 33.2151 147.82 34.3547C146.739 35.5836 146.142 37.0534 146.03 38.7642C145.873 41.1284 146.554 43.3214 148.284 44.9436C149.799 46.3639 151.729 46.8178 153.768 46.6009C154.525 46.5201 155.229 46.3401 155.88 46.0609C157.506 45.3646 158.638 43.9125 159.035 42.1925C159.048 42.1351 159.025 42.1064 158.966 42.1064ZM66.4219 51.0888V43.9346C66.4219 43.8829 66.4478 43.857 66.4995 43.857C67.6951 43.8634 68.9162 43.863 70.1627 43.8559C71.8218 43.8453 73.3171 43.3588 74.6488 42.3964C76.4251 41.1122 77.6625 39.2232 77.9814 37.0535C78.1231 36.0855 78.1192 35.178 77.9697 34.3311C77.3595 30.8911 74.6605 28.1804 71.2013 27.6605C70.718 27.5875 70.0426 27.5535 69.1752 27.5585C66.5828 27.5734 63.9918 27.5755 61.4022 27.5649C61.3973 27.5647 61.3924 27.5656 61.3878 27.5674C61.3833 27.5692 61.3791 27.5719 61.3756 27.5754C61.3721 27.5789 61.3694 27.5831 61.3676 27.5877C61.3657 27.5922 61.3649 27.5971 61.365 27.6021L61.3905 51.058C61.3905 51.0963 61.4097 51.1154 61.448 51.1154H66.3953C66.4024 51.1154 66.4091 51.1126 66.4141 51.1076C66.4191 51.1026 66.4219 51.0959 66.4219 51.0888ZM66.4219 39.101V32.3081C66.4219 32.2901 66.4291 32.2728 66.4418 32.26C66.4546 32.2473 66.4719 32.2401 66.4899 32.2401H69.4069C70.3069 32.2401 71.1699 32.5985 71.8063 33.2364C72.4426 33.8744 72.8001 34.7396 72.8001 35.6418V35.7673C72.8001 36.6695 72.4426 37.5347 71.8063 38.1726C71.1699 38.8106 70.3069 39.169 69.4069 39.169H66.4899C66.4719 39.169 66.4546 39.1618 66.4418 39.1491C66.4291 39.1363 66.4219 39.119 66.4219 39.101ZM215.274 43.9358V51.0624C215.274 51.0978 215.256 51.1155 215.221 51.1155H210.282C210.249 51.1155 210.233 51.0992 210.233 51.0666L210.204 27.5979C210.204 27.5952 210.205 27.5924 210.205 27.5897L210.207 27.5861C210.208 27.5824 210.21 27.579 210.213 27.5761C210.215 27.5746 210.216 27.5733 210.218 27.5721C210.22 27.5711 210.221 27.5702 210.223 27.5694C210.227 27.5679 210.231 27.5671 210.235 27.5671L218.968 27.5714C219.75 27.5714 220.525 27.6996 221.293 27.9562C224.573 29.0532 226.838 32.0202 226.914 35.5037C226.964 37.7475 226.241 39.6765 224.744 41.2909C223.535 42.5949 222.068 43.4085 220.343 43.7317C219.826 43.8288 219.15 43.8734 218.316 43.8656C217.265 43.8557 216.275 43.8546 215.346 43.8624C215.298 43.8631 215.274 43.8876 215.274 43.9358ZM215.247 32.3051V39.1021C215.247 39.1188 215.254 39.1347 215.266 39.1465C215.277 39.1582 215.293 39.1649 215.31 39.1649H218.322C219.198 39.1649 220.038 38.8054 220.658 38.1657C221.277 37.526 221.626 36.6583 221.626 35.7536V35.6536C221.626 34.7489 221.277 33.8812 220.658 33.2415C220.038 32.6017 219.198 32.2423 218.322 32.2423H215.31C215.293 32.2423 215.277 32.249 215.266 32.2607C215.254 32.2725 215.247 32.2884 215.247 32.3051ZM241.556 27.6203L241.557 36.8464C241.557 36.8599 241.552 36.8729 241.543 36.8824C241.533 36.892 241.52 36.8974 241.506 36.8974H235.018C235.004 36.8974 234.991 36.892 234.982 36.8824C234.972 36.8729 234.967 36.8599 234.967 36.8464V27.6213C234.967 27.6078 234.961 27.5948 234.952 27.5852C234.942 27.5757 234.929 27.5703 234.916 27.5703L229.968 27.5671C229.955 27.5671 229.942 27.5725 229.932 27.582C229.923 27.5916 229.917 27.6046 229.917 27.6181V51.0645C229.917 51.078 229.923 51.091 229.932 51.1006C229.942 51.1101 229.955 51.1155 229.968 51.1155H234.916C234.924 51.1155 234.931 51.1137 234.938 51.1102C234.941 51.1089 234.943 51.1074 234.946 51.1057C234.948 51.1042 234.95 51.1024 234.952 51.1006C234.961 51.091 234.967 51.078 234.967 51.0645V41.5992C234.967 41.5857 234.972 41.5727 234.982 41.5631C234.991 41.5536 235.004 41.5482 235.018 41.5482H241.506C241.52 41.5482 241.533 41.5536 241.543 41.5631C241.552 41.5727 241.557 41.5857 241.557 41.5992V51.0645C241.557 51.0712 241.559 51.0778 241.561 51.0839C241.563 51.0877 241.565 51.0914 241.567 51.0947C241.569 51.0968 241.571 51.0987 241.572 51.1006C241.582 51.1101 241.595 51.1155 241.608 51.1155L246.556 51.1145C246.569 51.1145 246.582 51.1091 246.592 51.0995C246.602 51.09 246.607 51.077 246.607 51.0634V27.6192C246.607 27.6057 246.602 27.5927 246.592 27.5831C246.582 27.5735 246.569 27.5682 246.556 27.5682L241.607 27.5692C241.594 27.5692 241.581 27.5746 241.571 27.5842C241.562 27.5937 241.556 27.6067 241.556 27.6203ZM104.744 44.8382V51.0623C104.744 51.0764 104.739 51.0899 104.729 51.0999C104.719 51.1098 104.705 51.1154 104.691 51.1154H99.7216C99.7146 51.1154 99.7078 51.1126 99.7028 51.1076C99.6979 51.1027 99.6951 51.0959 99.6951 51.0889V27.6978C99.6951 27.6845 99.7002 27.6718 99.7094 27.6624C99.7185 27.6531 99.731 27.6478 99.744 27.6478L108.417 27.6499C113.895 27.651 117.866 32.4963 116.978 37.854C116.838 38.7009 116.563 39.4443 116.153 40.0843C115.617 40.9198 114.881 41.7146 113.945 42.4687C113.913 42.4949 113.914 42.5201 113.946 42.5442C114.541 42.9913 115.071 43.4977 115.536 44.0632C116.604 45.358 117.044 47.0791 117.107 48.7449C117.138 49.5676 117.143 50.3362 117.121 51.0506C117.12 51.0938 117.098 51.1154 117.056 51.1154H112.109C112.1 51.1154 112.092 51.1118 112.086 51.1055C112.08 51.0991 112.076 51.0904 112.076 51.0814C112.081 50.4393 112.081 49.8228 112.074 49.2317C112.049 46.8037 110.39 44.7723 107.871 44.7659C106.88 44.7631 105.862 44.7627 104.818 44.7648C104.769 44.7648 104.744 44.7893 104.744 44.8382ZM104.73 32.373L104.757 40.2756C104.758 40.2881 104.763 40.3 104.772 40.3088C104.781 40.3175 104.793 40.3224 104.805 40.3224L107.851 40.3118C108.907 40.3081 109.918 39.8915 110.662 39.1536C111.407 38.4158 111.823 37.4172 111.819 36.3775V36.2201C111.817 35.7053 111.712 35.1958 111.511 34.7208C111.309 34.2459 111.014 33.8147 110.643 33.4519C110.272 33.0891 109.832 32.8019 109.348 32.6065C108.864 32.4112 108.346 32.3116 107.823 32.3135L104.777 32.3241C104.771 32.3241 104.765 32.3254 104.759 32.3278C104.756 32.3291 104.753 32.3306 104.75 32.3324C104.748 32.3342 104.745 32.3362 104.743 32.3385C104.739 32.343 104.735 32.3484 104.733 32.3544C104.731 32.3603 104.729 32.3666 104.73 32.373ZM172.912 51.0623V44.8382C172.912 44.7858 172.938 44.7599 172.99 44.7606C173.764 44.7677 174.637 44.767 175.61 44.7585C176.74 44.749 177.667 44.9169 178.475 45.543C179.616 46.4268 180.205 47.6511 180.24 49.2158C180.255 49.8494 180.255 50.4599 180.238 51.0475C180.237 51.0928 180.259 51.1155 180.304 51.1155H185.223C185.268 51.1155 185.29 51.0935 185.291 51.0496C185.351 48.4834 185.305 45.8046 183.483 43.7986C183.058 43.3316 182.608 42.9188 182.134 42.5602C182.086 42.5247 182.086 42.4882 182.133 42.4507C183.176 41.6183 184.212 40.5159 184.716 39.336C184.955 38.7754 185.115 38.1758 185.194 37.5373C185.439 35.587 185.11 33.7887 184.208 32.1424C182.885 29.7293 180.543 28.1262 177.856 27.7446C177.345 27.6716 176.668 27.6369 175.823 27.6404C173.153 27.6518 170.519 27.6539 167.922 27.6468C167.882 27.6468 167.862 27.6663 167.862 27.7053V51.0889C167.862 51.096 167.865 51.1027 167.87 51.1077C167.875 51.1127 167.882 51.1155 167.889 51.1155H172.859C172.894 51.1155 172.912 51.0978 172.912 51.0623ZM172.925 40.3001L172.897 32.3486C172.897 32.3424 172.899 32.3365 172.904 32.3321C172.908 32.3277 172.914 32.3252 172.92 32.3252L175.987 32.3135C176.511 32.3117 177.029 32.4111 177.513 32.6061C177.998 32.8011 178.438 33.0879 178.809 33.4501C179.181 33.8123 179.476 34.2427 179.678 34.7169C179.88 35.1912 179.985 35.6998 179.986 36.2138V36.3839C179.99 37.422 179.574 38.4189 178.829 39.1556C178.084 39.8922 177.072 40.3081 176.015 40.3118L172.948 40.3235C172.945 40.3235 172.942 40.3229 172.939 40.3217C172.936 40.3206 172.934 40.3188 172.931 40.3167C172.929 40.3145 172.928 40.3119 172.926 40.3091C172.925 40.3062 172.925 40.3032 172.925 40.3001Z" fill="black"/>
</svg>
