<svg width="190" height="77" viewBox="0 0 190 77" fill="none" xmlns="http://www.w3.org/2000/svg">
<path fill-rule="evenodd" clip-rule="evenodd" d="M101.813 41.3474C100.409 42.6202 98.8763 43.9649 97.2842 45.0223C96.8586 45.3042 96.5341 45.7006 96.3106 46.2113C96.0819 46.7301 95.7188 46.9841 95.2213 46.9735C95.099 46.9708 94.9846 47.0001 94.8782 47.0612L91.4267 48.9885C91.3176 49.0497 91.2019 49.0789 91.0796 49.0763C90.5715 49.0683 90.3174 49.3037 90.3174 49.7825C90.3176 49.8638 90.2911 49.9428 90.242 50.0071C90.1928 50.0714 90.124 50.1173 90.0461 50.1376C88.3969 50.5952 86.983 50.4023 85.8046 49.5591C84.4985 48.6254 83.2642 47.5467 82.1017 46.3231C82.054 46.2732 81.9891 46.2433 81.9202 46.2396C81.8512 46.2359 81.7834 46.2586 81.7307 46.3031C80.7996 47.0772 79.8447 47.7515 78.8657 48.3261C78.1475 48.7464 77.3468 49.3596 76.4637 50.1656C75.3145 51.2137 73.9924 52.2617 72.4975 53.3098C71.3762 54.0919 68.9343 55.0096 67.9687 53.4375C67.692 52.9853 67.3848 52.5783 67.0469 52.2165C66.9751 52.1394 66.9312 52.0476 66.9153 51.9412L66.6519 50.1536C66.628 49.9807 66.5535 49.9554 66.4285 50.0778C62.9251 53.4774 58.8352 56.1295 54.1588 58.0341C53.8715 58.1512 53.6055 58.3028 53.3607 58.489C53.0964 58.6913 52.8161 58.6963 52.52 58.7015C52.3021 58.7054 52.0756 58.7094 51.8405 58.7923C51.0797 59.0583 50.3362 59.1953 49.61 59.2033C49.1737 59.2059 48.796 59.0131 48.4768 58.6247C47.4394 57.3638 46.9965 56.1109 47.2039 54.3592C47.2385 54.0746 47.1295 54.0014 46.8768 54.1398L45.0054 55.1772C44.8298 55.273 44.6981 55.41 44.6103 55.5882C44.3603 56.0883 43.9693 56.3902 43.4372 56.4939C43.275 56.5259 43.138 56.603 43.0263 56.7254C41.9542 57.8772 40.8982 58.6992 39.8581 59.1913C39.4697 59.3775 39.1119 59.6063 38.7847 59.8776C38.2512 60.3265 37.6346 60.6605 37.0149 60.9962C36.5825 61.2305 36.1486 61.4655 35.7403 61.741C35.1391 62.1453 34.5472 62.4645 33.9646 62.6986C33.5234 62.8767 33.1123 63.0965 32.7046 63.3145L32.7045 63.3145C32.0431 63.6681 31.3907 64.017 30.6329 64.175C30.1168 64.2814 29.63 64.445 29.1725 64.6658C29.058 64.7205 28.9337 64.7518 28.807 64.7576C28.6803 64.7635 28.5538 64.7439 28.435 64.6999C28.3163 64.656 28.2076 64.5886 28.1157 64.5019C28.0237 64.4151 27.9502 64.3107 27.8996 64.1949C27.5432 63.3836 27.2612 62.6002 27.0537 61.8447C26.3599 59.3019 29.3289 55.3696 31.0225 53.1266L31.0227 53.1262C31.1601 52.9443 31.289 52.7736 31.407 52.6155C34.4594 48.5376 39.0481 45.4133 43.7245 43.0831C44.2462 42.8231 44.7898 42.6858 45.3265 42.5502C46.0663 42.3633 46.7931 42.1797 47.4314 41.6825C48.3212 40.9882 49.3985 40.9244 50.4799 40.8725C50.9906 40.8486 51.4362 41.0122 51.8165 41.3633C52.9737 42.4367 53.1852 43.7255 53.1572 45.2577C53.1572 45.2911 53.1665 45.3237 53.1841 45.3521C53.2016 45.3805 53.2267 45.4034 53.2565 45.4183C53.2863 45.4332 53.3197 45.4395 53.3529 45.4365C53.3861 45.4335 53.4179 45.4214 53.4445 45.4013C55.9186 43.5011 58.5665 41.9668 61.2386 40.4185C62.3202 39.7918 63.4057 39.1629 64.4853 38.5064C64.5704 38.4546 64.6704 38.4325 64.7699 38.4433C64.8693 38.4541 64.9628 38.4973 65.0359 38.5662C65.5626 39.061 65.8778 39.6236 65.9816 40.2541C65.9962 40.3422 66.0328 40.4253 66.0878 40.4957C66.1429 40.5661 66.2147 40.6216 66.2968 40.6571C67.4459 41.1545 68.1682 41.9765 68.4634 43.123C68.474 43.1654 68.4954 43.2044 68.5256 43.236C68.5558 43.2676 68.5937 43.2908 68.6356 43.3033C68.6775 43.3158 68.7219 43.3172 68.7645 43.3072C68.8071 43.2973 68.8464 43.2764 68.8784 43.2467C69.4025 42.7652 69.8932 42.2531 70.3508 41.7105C71.1815 40.7205 71.9961 39.7032 72.8124 38.6839C74.184 36.9711 75.5605 35.2523 77.0263 33.6464C82.4103 27.749 88.1521 22.1534 94.2517 16.8598C95.4408 15.8304 96.4144 17.614 96.5979 18.6315C96.7176 19.3018 96.7908 19.9655 96.8174 20.6225C96.8227 20.7502 96.7868 20.8633 96.7097 20.9617C94.8183 23.3531 92.8499 25.6182 90.8042 27.7569C90.4797 28.0948 90.0887 28.2623 89.6311 28.2597C89.5999 28.2593 89.5695 28.2496 89.5436 28.2321C89.5178 28.2145 89.4977 28.1897 89.4858 28.1609C89.4739 28.132 89.4707 28.1002 89.4767 28.0696C89.4827 28.0389 89.4975 28.0107 89.5194 27.9884C90.0594 27.4404 90.5289 26.8033 90.9279 26.0771C90.9386 26.0585 90.9359 26.0425 90.92 26.0292L90.8242 25.9454C90.6992 25.8417 90.5795 25.847 90.4651 25.9614L90.4456 25.9811C89.2844 27.1541 88.2508 28.1983 86.8779 29.349C86.0514 30.044 85.2774 30.8216 84.5011 31.6014L84.501 31.6015L84.501 31.6015C83.6059 32.5007 82.7078 33.403 81.7227 34.1851C81.0184 34.7419 80.483 35.5317 79.9442 36.3264L79.9441 36.3266C79.6221 36.8016 79.2988 37.2784 78.9376 37.7083C77.0728 39.9295 75.2334 42.1933 73.4192 44.4996C72.6105 45.5264 71.9056 46.6622 71.3044 47.9072C71.1076 48.3168 71.1874 48.382 71.5438 48.1027C74.1188 46.0996 76.7829 44.1684 79.5361 42.309C84.416 39.0051 88.5777 35.5138 92.7913 31.6393C93.6 30.8934 94.4644 30.3103 95.3496 29.7132C95.6481 29.5119 95.9489 29.3089 96.2508 29.0976C96.9557 28.6028 97.6181 28.6308 98.2379 29.1814C99.2274 30.0566 99.7142 31.1126 99.6983 32.3496C99.6956 32.4853 99.6384 32.5903 99.5267 32.6648C99.1563 32.9117 98.9471 33.2255 98.7338 33.5452C98.5749 33.7835 98.4137 34.0251 98.182 34.2449C97.4372 34.9578 96.7762 35.8928 96.1989 37.05C95.2785 38.8987 94.5576 40.6784 94.0363 42.3888C93.9831 42.5617 94.0283 42.595 94.1719 42.4885C99.4549 38.5436 104.891 34.5043 110.48 30.3705C111.888 29.333 113.313 29.3929 114.135 31.2004C114.19 31.3175 114.177 31.4265 114.095 31.5276C113.845 31.8362 113.718 32.1913 113.716 32.593C113.716 32.7448 113.68 32.8943 113.61 33.029C113.541 33.1637 113.44 33.2796 113.317 33.3671C111.045 34.9897 108.965 37.1417 107.076 39.8231C106.531 40.5919 106.154 41.4245 105.947 42.321C105.907 42.4939 105.961 42.5311 106.11 42.4327C110.002 39.8524 113.661 37.1657 117.087 34.3726C119.42 32.4706 121.939 30.4782 124.645 28.3954C125.389 27.8208 126.064 27.8939 126.668 28.6148L127.138 29.1694C127.697 29.8345 127.635 30.433 126.951 30.965C124.788 32.6528 122.179 35.1307 121.066 37.7802C120.948 38.0595 121.016 38.1167 121.269 37.9517C123.333 36.6164 125.336 35.2996 127.278 34.0015C129.779 32.333 132.179 30.3972 134.569 28.4705L134.569 28.4703C134.871 28.2269 135.172 27.9836 135.474 27.741C135.852 27.4377 136.76 26.8485 138.199 25.9733C138.259 25.9363 138.328 25.9144 138.399 25.9095C138.47 25.9046 138.541 25.9169 138.606 25.9454C139.082 26.1609 139.495 26.4734 139.843 26.8831C140.197 27.3016 140.107 27.9394 140.027 28.5081L140.027 28.5085C140.004 28.6716 139.981 28.829 139.971 28.9739C139.96 29.1362 139.907 29.2865 139.811 29.4248C139.665 29.6376 139.496 29.8251 139.304 29.9874C136.815 32.1062 134.369 34.2888 132.729 37.0619C132.521 37.4131 132.592 37.4836 132.94 37.2734C136.228 35.2784 139.464 33.1995 142.552 30.6298C145.88 27.8633 149.019 25.1141 151.969 22.3822C152.414 21.9702 152.867 21.5692 153.318 21.1691L153.318 21.169C154.274 20.3214 155.226 19.4775 156.099 18.5397C156.32 18.3029 156.272 18.2138 155.955 18.2724C153.45 18.7352 150.913 19.3244 148.346 20.04C148.069 20.1171 147.799 20.2328 147.536 20.3871C147.48 20.4203 147.414 20.4357 147.348 20.4314C147.282 20.4272 147.218 20.4034 147.165 20.3632C146.371 19.7407 145.437 18.9148 145.597 17.7856C145.772 16.5327 146.481 15.7705 147.724 15.4992C152.741 14.4059 157.539 13.4509 162.12 12.6343C162.481 12.5724 162.809 12.386 163.046 12.1076C164.666 10.2375 166.558 8.44862 168.724 6.74084C169.445 6.17424 170.192 6.13433 170.966 6.62113C171.248 6.7967 171.493 7.00684 171.7 7.25157C172.331 7.99108 172.256 8.65212 171.477 9.23468C170.932 9.64167 170.353 10.0766 169.741 10.5395C169.566 10.6725 169.446 10.8374 169.382 11.0342C169.375 11.0557 169.373 11.0789 169.378 11.1011C169.383 11.1234 169.394 11.1439 169.409 11.1604C169.425 11.1769 169.445 11.1887 169.467 11.1946C169.489 11.2005 169.512 11.2003 169.534 11.1938C171.799 10.578 174.07 10.25 176.358 9.91958L176.358 9.91956C177.154 9.80468 177.951 9.68952 178.751 9.56187C180.86 9.22138 183.193 8.93275 185.75 8.696C186.838 8.59226 187.73 8.70664 188.427 9.03916C190.362 9.96487 189.664 12.0477 188.323 13.0054C188.288 13.0308 188.247 13.0459 188.203 13.0489C188.16 13.0518 188.117 13.0426 188.079 13.0222C188.041 13.0019 188.009 12.9711 187.987 12.9336C187.965 12.896 187.955 12.8532 187.956 12.8098C187.988 11.8442 187.286 11.5968 186.496 11.7565C186.129 11.8321 185.749 11.827 185.373 11.8219C184.877 11.8152 184.388 11.8086 183.95 11.9879C183.083 12.3435 182.202 12.4122 181.306 12.4821C180.785 12.5227 180.258 12.5638 179.725 12.6622C177.192 13.1277 174.732 13.6159 172.343 14.1266C172.068 14.1854 171.817 14.2971 171.57 14.407C171.162 14.5879 170.767 14.7637 170.3 14.6892C170.132 14.6634 169.959 14.6957 169.809 14.781C169.016 15.2332 168.163 15.4407 167.247 15.4034C167.104 15.3955 166.968 15.4247 166.84 15.4912C166.416 15.703 165.968 15.871 165.521 16.0387C164.612 16.3796 163.707 16.719 163.006 17.4225C161.479 18.952 159.963 20.4909 158.457 22.039C158.276 22.2274 158.043 22.3753 157.811 22.522C157.518 22.7078 157.229 22.8914 157.053 23.1523C156.781 23.5513 156.495 23.941 156.195 24.3214C155.91 24.6779 155.584 25.0144 155.217 25.3309C153.935 26.4375 152.662 27.5734 151.399 28.7385C151.278 28.8482 151.19 28.9889 151.143 29.1455C150.994 29.6749 150.732 30.0659 150.357 30.3186C149.998 30.558 149.687 30.8985 149.423 31.3401C148.468 32.9468 147.654 34.5269 146.981 36.0804C146.825 36.4448 146.928 36.5499 147.293 36.3956C149.426 35.4965 151.703 34.6173 154.124 33.7581C155.492 33.2713 156.845 32.4493 157.823 31.3481C159.182 29.8132 160.712 28.2677 162.411 26.7115L162.553 26.582C165.354 24.0207 167.21 22.3238 170.671 22.1747C172.408 22.0976 173.398 22.8956 173.64 24.5688C173.799 25.6541 173.991 27.4537 173.5 28.3515C173.125 29.0324 172.55 29.5405 171.776 29.8757C170.585 30.3918 169.418 30.969 168.277 31.6074C166.459 32.6209 164.626 33.4169 162.716 34.2462L162.535 34.3247C162.513 34.3343 162.494 34.3489 162.479 34.3674C162.464 34.3858 162.453 34.4076 162.448 34.4312C162.442 34.4547 162.442 34.4792 162.448 34.503C162.453 34.5267 162.464 34.549 162.479 34.5681C162.548 34.6532 162.637 34.6865 162.747 34.6679C163.789 34.5029 164.831 34.2369 165.871 33.8698C172.138 31.6673 178.309 30.1257 184.385 29.2453C185.032 29.1495 185.686 29.0883 186.348 29.0617C186.777 29.0431 186.822 29.1654 186.484 29.4288C184.752 30.7815 182.773 31.8349 180.634 32.3815C179.23 32.7433 177.819 33.1516 176.401 33.6065C175.864 33.7793 175.344 34.0581 174.826 34.3362C174.113 34.7192 173.401 35.1008 172.65 35.2025C172.294 35.2504 171.933 35.2863 171.569 35.3103C170.693 35.3688 170.056 35.778 169.402 36.1982C169.031 36.4368 168.654 36.6789 168.225 36.8624C166.765 37.4876 165.355 37.969 163.995 38.3069C163.281 38.4861 162.709 38.8095 162.123 39.1409C161.887 39.2742 161.649 39.4088 161.398 39.5358C161.307 39.5802 161.206 39.5982 161.107 39.5877L159.371 39.3802C159.249 39.3669 159.138 39.3217 159.04 39.2446C158.292 38.6673 157.672 37.9464 157.18 37.0819C157.119 36.9728 157.026 36.9236 156.901 36.9343C156.05 37.0061 155.313 37.2628 154.69 37.7044C154.363 37.9368 154.02 38.0118 153.665 38.0893C153.496 38.1262 153.324 38.1637 153.15 38.2191C153.012 38.2643 152.907 38.3494 152.835 38.4745C152.63 38.8283 152.339 39.065 151.961 39.1847C150.764 39.5624 149.517 39.9269 148.218 40.278C147.756 40.4047 147.482 40.6902 147.179 41.0057C147.129 41.0578 147.078 41.1107 147.025 41.1638C146.914 41.2729 146.781 41.3367 146.626 41.3553L145.218 41.5229C145.042 41.5442 144.889 41.4963 144.759 41.3793C143.666 40.4004 142.898 39.2645 142.457 37.9717C142.412 37.844 142.394 37.7083 142.403 37.5727C142.412 37.4371 142.448 37.3041 142.509 37.1816L143.793 34.5641C143.921 34.3087 143.871 34.2675 143.642 34.4404C139.811 37.3346 135.947 40.2727 132.05 43.2546C131.344 43.7933 130.582 44.2003 129.74 43.6058C128.06 42.4167 127.673 40.9244 127.952 39.0331C127.979 38.8549 127.915 38.811 127.761 38.9014C124.728 40.6251 122.474 42.1148 120.998 43.3704C120.226 44.0247 119.37 44.6738 118.428 45.3176C117.183 46.1754 115.403 44.1804 115.164 43.115C115.135 42.974 115.14 42.8357 115.18 42.7C115.374 42.043 115.485 41.3926 115.511 40.7488C115.519 40.4988 115.429 40.4549 115.24 40.6172C112.197 43.2586 109.291 45.4918 106.521 47.3166C105.83 47.7715 105.094 48.0601 104.315 48.1825C104.15 48.2064 103.996 48.1758 103.852 48.0907C102.631 47.3685 101.123 46.2273 101.278 44.7031C101.387 43.6311 101.623 42.5497 101.985 41.4591C102.067 41.2064 102.01 41.1691 101.813 41.3474ZM163.213 30.566L170.045 26.8392C170.058 26.8316 170.068 26.819 170.073 26.8041C170.077 26.7892 170.076 26.7732 170.068 26.7594L170.053 26.7315C170.002 26.6368 169.862 26.5914 169.643 26.5979C169.423 26.6044 169.128 26.6627 168.773 26.7694C168.419 26.8762 168.012 27.0292 167.576 27.2199C167.14 27.4106 166.684 27.6351 166.234 27.8806L166.15 27.9285C165.242 28.4234 164.412 28.9737 163.843 29.4585C163.274 29.9433 163.011 30.323 163.114 30.5141L163.13 30.5421C163.133 30.5493 163.139 30.5557 163.145 30.5609C163.151 30.566 163.158 30.5699 163.166 30.5721C163.174 30.5744 163.182 30.575 163.191 30.5739C163.199 30.5729 163.206 30.5702 163.213 30.566ZM90.1219 43.5938C90.4688 42.523 90.858 41.4781 91.2397 40.4533C91.5606 39.5917 91.8762 38.7444 92.1569 37.9079C92.2447 37.6525 92.1875 37.6139 91.9853 37.7921C89.7535 39.75 87.4299 41.6533 85.0145 43.502C84.6528 43.7787 84.682 44.0048 85.1023 44.1804C85.8897 44.5129 86.7835 44.7416 87.7837 44.8667C89.018 45.0263 89.7974 44.602 90.1219 43.5938ZM64.9042 45.1899C65.0186 45.1553 65.0931 45.0795 65.1277 44.9624C65.1782 44.7922 65.1676 44.6286 65.0957 44.4716C65.0479 44.3652 64.9667 44.3014 64.8523 44.2801C63.9958 44.1205 63.3068 44.5062 62.7855 45.4373C62.5886 45.7831 62.6804 45.8961 63.0608 45.7764L64.9042 45.1899ZM49.0953 46.0717C49.1273 46.0262 49.1452 45.9723 49.1467 45.9168C49.1483 45.8612 49.1335 45.8064 49.1041 45.7591C49.0748 45.7119 49.0322 45.6744 48.9817 45.6512C48.9311 45.628 48.8749 45.6202 48.82 45.6288L47.7147 45.8083C47.6552 45.819 47.6007 45.8483 47.5591 45.8921L46.6373 46.8338C46.5973 46.8741 46.5702 46.9256 46.5598 46.9815C46.5494 47.0374 46.556 47.0951 46.5788 47.1472C46.6016 47.1993 46.6395 47.2433 46.6877 47.2735C46.7359 47.3037 46.792 47.3187 46.8488 47.3166L48.1097 47.2727C48.153 47.2709 48.1953 47.2591 48.2333 47.2384C48.2714 47.2176 48.3042 47.1884 48.3292 47.153L49.0953 46.0717ZM51.7128 53.7368C51.6862 53.8112 51.7128 53.8525 51.7926 53.8605C52.5348 53.9216 53.2889 53.8112 54.055 53.5293C56.6539 52.577 59.3087 51.1285 62.0193 49.184C62.035 49.1725 62.0474 49.157 62.0552 49.1392C62.0631 49.1214 62.0661 49.1019 62.0641 49.0825C62.0621 49.0632 62.0551 49.0447 62.0437 49.0289C62.0324 49.0131 62.0171 49.0006 61.9994 48.9925C61.7384 48.873 61.4673 48.7779 61.2033 48.6852C60.1798 48.3261 59.2626 48.0042 59.4497 46.4468C59.5109 45.9546 59.334 45.8456 58.919 46.1196C57.0436 47.3512 55.2281 48.8794 53.4725 50.7043C52.6305 51.5821 52.1437 52.6235 51.7128 53.7368ZM45.1809 50.5287L45.0694 50.4807C43.9641 50.006 43.0868 49.6291 43.1061 48.1426C43.1064 48.1101 43.0983 48.078 43.0825 48.0496C43.0667 48.0212 43.0438 47.9974 43.016 47.9805C42.9883 47.9636 42.9566 47.9542 42.9241 47.9533C42.8916 47.9523 42.8595 47.9598 42.8307 47.975C39.9658 49.5684 37.3416 51.5901 34.9582 54.04C34.3863 54.6279 33.833 55.3049 33.2983 56.071C32.8088 56.7733 32.3167 57.4981 31.8219 58.2456C31.6863 58.4558 31.6224 58.5954 31.6304 58.6646C31.665 58.9652 31.8259 59.0649 32.1132 58.9638C35.1349 57.8795 37.8846 56.1406 40.5486 54.4559L40.5487 54.4559C40.9627 54.194 41.3747 53.9335 41.7853 53.6769C42.9558 52.9454 44.1089 51.9984 45.2448 50.8359C45.3725 50.7029 45.3512 50.6005 45.1809 50.5287ZM23.2192 42.0658C23.1846 42.1828 23.2219 42.2174 23.3309 42.1695C25.6676 41.1999 27.8886 40.0295 30.1194 38.854L30.1194 38.854C31.4046 38.1768 32.693 37.4978 34.0085 36.8546C38.5121 34.6494 43.154 32.1848 47.9341 29.4609C50.3841 28.067 52.6146 26.5907 54.6256 25.0318C55.5779 24.2923 56.3786 23.4052 57.0277 22.3704C57.1276 22.2097 57.172 22.0205 57.154 21.8317C57.1359 21.6429 57.0565 21.4649 56.9279 21.325C56.3879 20.7371 55.8107 20.2969 55.1962 20.0043C52.1637 18.5705 48.8958 17.7645 45.3924 17.5862C39.7743 17.2989 34.4249 17.6807 29.3441 18.7314C29.0781 18.7846 28.8067 18.8458 28.5301 18.9149C26.4765 19.4124 24.6131 19.9856 22.9399 20.6347C22.7167 20.7224 22.4655 20.7687 22.2153 20.8148C21.8392 20.884 21.4654 20.9529 21.1922 21.1614C20.9874 21.3183 20.7559 21.4567 20.4979 21.5764C16.8616 23.2416 13.5896 25.0917 10.6822 27.1267C9.68196 27.8263 8.68576 28.7121 7.69354 29.7841C7.4262 30.0754 7.35837 30.3387 7.27857 30.7098C7.24132 30.8801 7.14024 30.9346 6.97531 30.8734C5.13586 30.2031 3.93881 29.2095 4.25004 27.1546C4.34315 26.5375 4.67832 25.9123 5.25556 25.2792C6.833 23.5475 8.48891 22.1669 10.2233 21.1375C13.3542 19.2754 16.6993 17.6235 20.2585 16.1817C22.5568 15.2507 25.1478 14.5511 28.0313 14.0829C33.9168 13.1332 39.886 12.9218 45.8473 13.4245C48.2786 13.6294 50.3924 14.4904 52.6309 15.4022C52.964 15.5379 53.2999 15.6747 53.6401 15.8106C57.319 17.279 60.2477 19.6013 60.4153 23.8747C60.4792 25.5506 58.4761 27.3222 57.1993 28.192C55.8479 29.1098 54.4767 30.0741 53.0854 31.0849C51.9017 31.9468 50.5756 32.7754 49.1073 33.5708C44.5824 36.0207 39.7969 38.4041 34.7507 40.7211C34.2821 40.9366 33.8112 41.1309 33.3416 41.3246L33.3416 41.3246C32.7157 41.5828 32.092 41.8401 31.4788 42.1456C30.3429 42.7122 29.2137 43.2096 28.0912 43.6379C27.8073 43.7478 27.5319 43.7719 27.2575 43.796C26.934 43.8243 26.6121 43.8526 26.2796 44.0209C25.4683 44.4333 24.6477 44.7724 23.8177 45.0384C23.4602 45.1533 23.2439 45.4011 23.0448 45.6291C22.8773 45.821 22.7219 45.9989 22.505 46.0719C22.3294 46.1304 22.1685 46.1065 22.0221 46C21.8785 45.8963 21.8 45.9335 21.7867 46.1118C21.7841 46.149 21.7881 46.1863 21.7987 46.2235C21.82 46.2927 21.7974 46.3445 21.7309 46.3791C21.4271 46.5322 21.1148 46.6481 20.8063 46.7625C20.126 47.0148 19.4643 47.2602 18.9537 47.8834C18.6943 48.1983 18.3979 48.4756 18.0995 48.7547L18.0994 48.7547L18.0994 48.7548C17.7325 49.098 17.3625 49.444 17.0544 49.8665C16.541 50.5741 16.0263 51.2338 15.5102 51.8456C14.9968 52.4521 14.5034 53.0812 14.0299 53.7329C9.80034 59.5665 5.55216 65.1554 1.28537 70.4995C0.931576 70.9438 0.79458 70.8839 0.874383 70.32C0.932905 69.9236 1.03931 69.5485 1.1936 69.1948C1.26542 69.0298 1.21222 68.9487 1.03399 68.9514C0.975467 68.954 0.931577 68.9819 0.902315 69.0352C0.883487 69.068 0.853393 69.0928 0.817951 69.1046C0.782508 69.1164 0.744281 69.1144 0.710787 69.099C0.553842 69.0245 0.48601 68.9088 0.507291 68.7518C0.583103 68.1733 0.762659 67.5668 1.02601 67.0481C3.36907 62.4491 6.3502 58.3246 9.34193 54.1854C10.7317 52.2625 12.1238 50.3364 13.4553 48.3582C17.234 42.7401 21.1044 37.5729 25.4656 31.9986C27.6044 29.2694 29.5981 26.8779 31.4469 24.8243C32.5614 23.5847 33.6388 22.1829 34.6789 20.6187C35.0659 20.0362 35.7562 20.0681 36.2949 20.3953C36.6774 20.6282 36.7572 20.9669 36.8437 21.3335C36.8772 21.4756 36.9117 21.6219 36.9652 21.7679C37.0344 21.9541 37.0597 22.1416 37.041 22.3305C36.9719 23.062 37.0583 23.8122 37.3004 24.581C37.3563 24.7565 37.2924 24.8416 37.1089 24.8363L36.9174 24.8283C36.779 24.823 36.658 24.8682 36.5543 24.964C36.0595 25.4162 35.6099 25.9017 35.2056 26.4204C31.5293 31.1607 27.7054 36.0539 23.7339 41.1002C23.5025 41.3954 23.3309 41.7173 23.2192 42.0658ZM174.659 49.9986C174.988 50.0086 175.311 50.0185 175.615 49.9141C176.03 49.7758 176.441 49.7 176.848 49.6867C178.114 49.6495 179.415 49.6428 180.75 49.6667C181.056 49.6721 181.071 49.6082 180.794 49.4752C179.621 48.9076 177.974 48.9573 176.626 48.9979C176.553 49.0001 176.48 49.0023 176.409 49.0044C175.393 49.0336 174.377 48.9698 173.36 48.8129C172.006 48.6 170.747 48.5043 169.582 48.5256C168.424 48.5445 167.329 48.6013 166.245 48.6576C164.126 48.7676 162.052 48.8753 159.642 48.6932C156.251 48.4338 152.675 48.7091 149.24 49.0164C148.075 49.1201 146.986 49.1494 145.972 49.1041C144.661 49.0403 142.598 49.1307 139.783 49.3755C133.644 49.9048 127.546 50.5033 121.489 51.171C119.078 51.437 116.636 51.7416 114.163 52.0848C111.761 52.4199 109.323 52.7831 106.849 53.1741C101.542 54.012 96.4331 54.8859 91.5225 55.7956C79.5388 58.0141 68.2945 60.8285 57.7898 64.2388C56.7005 64.5939 55.2282 65.5076 55.4835 66.8523C55.6298 67.6317 55.9131 68.3433 56.3334 68.987C56.3993 69.0887 56.4989 69.1638 56.6144 69.1989C56.7299 69.234 56.8537 69.2268 56.9639 69.1786C58.4934 68.5295 60.0576 67.9562 61.6563 67.4588C62.0614 67.3332 62.4544 67.1884 62.8458 67.0441C63.661 66.7435 64.4694 66.4455 65.3671 66.3296C65.7177 66.2833 66.0635 66.1175 66.4111 65.9509C66.6925 65.816 66.9751 65.6806 67.2624 65.6074C68.4195 65.313 69.6106 64.9507 70.7897 64.5921C72.1355 64.1827 73.4657 63.7781 74.712 63.4846C80.3727 62.1546 85.8605 60.9668 91.1754 59.9214C91.3652 59.8831 91.5591 59.808 91.7523 59.7333C91.9815 59.6446 92.2096 59.5564 92.4283 59.5304C94.152 59.3362 95.7747 59.0436 97.2963 58.6525C98.9641 58.2269 100.568 57.8838 102.108 57.6231C114.526 55.5216 126.507 53.899 138.052 52.7551C139.672 52.5928 141.301 52.4213 142.94 52.2404C144.658 52.0489 146.275 51.9012 147.792 51.7975C150.144 51.6351 152.833 51.409 155.642 51.1729C159.044 50.8868 162.624 50.5858 165.999 50.365C167.066 50.2945 168.147 50.2794 169.226 50.2642C170.833 50.2417 172.436 50.2192 173.983 50.0139C174.208 49.9848 174.434 49.9917 174.659 49.9986Z" fill="black"/>
</svg>
