<svg width="221" height="77" viewBox="0 0 221 77" fill="none" xmlns="http://www.w3.org/2000/svg">
<path opacity="0.99" fill-rule="evenodd" clip-rule="evenodd" d="M13.6647 33.131C17.6434 34.1314 21.2475 35.8672 24.4798 38.3357C27.5108 41.2572 28.3895 44.7491 27.116 48.8129C25.8169 53.0402 23.0009 55.6318 18.6667 56.5862C14.7801 57.5177 11.084 57.0229 7.58126 55.0991C5.94007 54.1772 4.43001 53.0727 3.05244 51.787C1.62755 49.9079 0.79344 47.8125 0.551453 45.5007C2.93077 44.6031 5.29657 43.6784 7.64886 42.7294C9.10349 43.4905 10.5676 44.234 12.0425 44.96C12.2372 45.6346 12.4859 46.2889 12.786 46.9202C15.0964 46.3362 15.7047 45.0073 14.6111 42.9322C11.7748 42.1819 9.02643 41.1909 6.36456 39.958C2.27105 37.5571 0.581194 33.9746 1.29499 29.2105C2.24807 24.4722 5.06405 21.475 9.74428 20.2205C10.8839 20.0109 12.01 19.8528 13.124 19.7473C16.8741 20.1569 20.2985 21.4412 23.3983 23.6002C25.4789 25.551 26.7848 27.9397 27.3188 30.7652C25.0733 31.8453 22.7535 32.7687 20.3566 33.5366C18.9141 32.9174 17.4946 32.2414 16.0981 31.5087C15.8602 30.9545 15.6358 30.3907 15.4222 29.8189C13.6512 30.2731 13.0659 31.3762 13.6647 33.131ZM13.6647 54.0176C18.9506 52.9226 21.9478 49.7011 22.6548 44.3516C23.3618 39.839 21.6274 36.7067 17.45 34.956C15.2194 34.1949 12.9672 33.519 10.6906 32.9282C10.0917 32.7078 9.57394 32.3699 9.13593 31.9143C7.91112 29.5025 8.56408 27.8586 11.0962 26.9799C14.0798 26.4716 15.7913 27.7113 16.2333 30.6976C18.2612 30.0446 20.266 29.3227 22.2492 28.5346C22.2938 28.079 22.2492 27.6288 22.114 27.1827C20.3214 21.7427 16.5591 19.4905 10.8258 20.4233C9.89975 20.7247 8.95343 21.0167 7.98683 21.302C3.27415 23.588 1.22334 27.3517 1.83574 32.5902C2.26024 36.216 4.22047 38.5818 7.71645 39.6876C8.74059 39.969 9.76517 40.2509 10.7904 40.5329L13.124 41.1747C14.2974 41.4789 15.1315 42.1765 15.625 43.2701C15.9657 44.6315 15.6277 45.7806 14.6111 46.7174C11.0245 48.437 8.61275 47.4231 7.37848 43.6757C7.30277 43.6054 7.2122 43.5608 7.1081 43.5405C5.05053 44.3111 2.99972 45.0992 0.957018 45.9063C2.50493 52.7658 6.74039 55.4696 13.6647 54.0176ZM34.6867 24.6147C37.062 21.8393 40.0591 20.2616 43.6767 19.8831C55.3516 19.8831 61.5027 26.4425 61.792 38.2688C61.8028 42.3731 60.8781 46.2476 59.0207 49.895C55.4571 55.7419 50.2983 57.9725 43.5416 56.5868C34.4569 54.0223 29.9957 47.9848 30.1579 38.4715C30.12 33.3236 31.6287 28.7042 34.6867 24.6147ZM39.2155 53.883C45.8087 55.3377 50.8336 53.1976 54.2891 47.4616C57.274 41.2483 57.7255 34.8498 55.6409 28.2648C53.5509 22.7478 49.5629 20.1346 43.6767 20.4239C41.8206 20.6145 40.0632 21.1782 38.4044 22.1137C35.3086 24.1321 33.1685 26.9034 31.9829 30.4278C30.2363 35.8894 30.2809 41.3416 32.1181 46.7856C33.4092 50.2397 35.775 52.6055 39.2155 53.883ZM88.4244 29.3442C88.4474 26.9554 88.4244 24.5666 88.3568 22.1792C86.9927 21.464 85.6179 20.7651 84.2335 20.0838C83.9672 20.0162 83.6968 19.9945 83.4224 20.0162C77.5863 20.5961 71.7286 21.1369 65.8479 21.6384C65.8249 32.6333 65.8479 43.6296 65.9155 54.6245C67.2795 55.3396 68.6544 56.0385 70.0387 56.7199C72.6073 56.5536 75.1759 56.3508 77.7445 56.1115V42.4575C79.2676 42.3453 80.7904 42.2334 82.3132 42.1215L82.3409 42.1195C83.8729 42.007 85.4049 41.8944 86.9373 41.7815C86.9603 39.3928 86.9373 37.004 86.8697 34.6165C85.5057 33.9014 84.1308 33.2025 82.7465 32.5211C81.1147 32.5076 79.4925 32.6198 77.8797 32.8591C77.7445 32.0074 77.6999 31.1517 77.7445 30.2905C81.304 29.9674 84.8635 29.6524 88.4244 29.3442ZM82.0705 32.9943V39.0778C81.8542 39.0413 81.6744 39.0872 81.5298 39.213C78.6462 39.4482 75.7626 39.674 72.8777 39.8889V53.543C70.7133 53.716 68.5503 53.8971 66.3886 54.0837C66.344 43.3943 66.3886 32.7144 66.5238 22.044C71.8394 21.5803 77.1564 21.1301 82.4761 20.6921H83.5576C83.6009 22.7308 83.5549 24.7586 83.4224 26.7756L72.8777 27.5867V33.6702C75.9451 33.4742 79.0098 33.2498 82.0705 32.9943ZM208.472 20.9624C211.079 20.6664 213.694 20.4636 216.313 20.3541L217.72 21.0577C218.649 21.5226 219.577 21.9866 220.503 22.4495V55.4355C218.128 55.6329 215.762 55.8587 213.406 56.1115C211.997 55.3733 210.578 54.6528 209.148 53.9484C208.05 51.6719 206.991 49.3737 205.971 47.0538C205.903 50.1172 205.88 53.1819 205.903 56.2467C203.337 56.517 200.769 56.7198 198.197 56.855C196.813 56.1737 195.438 55.4747 194.074 54.7596C194.006 43.7647 193.983 32.7684 194.006 21.7736C196.355 21.5775 198.698 21.3531 201.036 21.0976C201.756 21.4572 202.476 21.8171 203.195 22.177L203.198 22.1786L203.199 22.1791C203.92 22.5397 204.641 22.9003 205.362 23.2606C206.411 25.4034 207.425 27.5664 208.404 29.7497C208.472 26.8215 208.495 23.892 208.472 20.9624ZM209.756 53.4077C211.708 53.1346 213.668 52.9535 215.637 52.8669V20.8272H215.231C213.163 21.0476 211.089 21.2287 209.012 21.368C208.983 27.5894 209.05 33.808 209.215 40.024C208.934 38.8127 208.528 37.6406 207.998 36.5091C205.598 31.6626 203.232 26.7958 200.901 21.9087C198.781 21.8506 196.663 21.9412 194.547 22.1791C194.524 32.859 194.547 43.5389 194.615 54.2188C196.745 54.0012 198.885 53.8214 201.036 53.6781C201.027 47.3229 201.004 40.969 200.969 34.6165C201.112 35.0471 201.256 35.4782 201.4 35.9099L201.415 35.9547L201.645 36.6443C202.94 39.4157 204.236 42.187 205.531 44.9584C206.827 47.7298 208.122 50.5011 209.418 53.2725C209.474 53.2948 209.531 53.3175 209.587 53.3401C209.643 53.3627 209.7 53.3854 209.756 53.4077ZM109.716 22.8567C108.203 21.8861 106.603 21.0749 104.917 20.4233C102.64 20.6694 100.342 20.8951 98.0223 21.0993C94.9103 32.3754 91.7563 43.6406 88.5591 54.8964C90.0246 55.6967 91.5116 56.4633 93.0203 57.1946C95.4902 56.9026 97.9683 56.6769 100.456 56.5187C101.068 54.0245 101.744 51.5464 102.484 49.0833C102.603 48.9819 102.738 48.9143 102.889 48.8805L105.12 48.6777C105.431 48.6913 105.701 48.7818 105.931 48.9481C106.179 49.7369 106.427 50.5254 106.674 51.3139C106.922 52.1024 107.17 52.8909 107.418 53.6797C108.154 54.0593 108.891 54.4385 109.627 54.8177L109.652 54.8305C110.394 55.2128 111.137 55.5952 111.879 55.9779C114.326 55.7265 116.782 55.5021 119.247 55.302C116.113 44.4774 112.936 33.6623 109.716 22.8567ZM107.891 53.2742C107.062 50.7718 106.273 48.2478 105.525 45.7036C105.428 45.6279 105.314 45.5833 105.187 45.5684C102.703 45.7901 100.225 46.0605 97.7519 46.3795C97.049 48.8886 96.3271 51.3896 95.5889 53.8825C93.5138 54.0163 91.44 54.1732 89.3703 54.3557C92.3687 43.3986 95.3875 32.4484 98.4279 21.5048C100.073 21.417 101.695 21.2818 103.295 21.0993H105.052C108.099 31.648 111.164 42.1927 114.245 52.7334C112.118 52.8483 110.001 53.0295 107.891 53.2742ZM149.664 20.4233C151.224 21.0682 152.757 21.7887 154.261 22.5863C154.396 33.6258 154.441 44.6667 154.396 55.7076C152.071 55.836 149.751 56.0158 147.434 56.2483C146.352 55.8089 145.294 55.3128 144.257 54.7612C143.947 55.1479 143.766 55.5994 143.716 56.1131C141.15 56.3848 138.582 56.5876 136.01 56.7215C134.896 56.1753 133.792 55.6116 132.698 55.0316C132.631 55.571 132.608 56.1118 132.631 56.6539C130.3 56.8431 127.979 57.0689 125.668 57.3298C124.26 56.5917 122.84 55.8711 121.41 55.1668C121.275 44.1273 121.23 33.0864 121.275 22.0456C124.203 21.7901 127.131 21.5873 130.062 21.4372L134.118 23.4651C135.321 27.614 136.47 31.7819 137.565 35.97C138.956 31.0829 140.285 26.1715 141.553 21.2345C144.274 20.9479 146.978 20.6775 149.664 20.4233ZM148.718 53.139C148.956 53.0092 149.226 52.9646 149.529 53.0038V21.0993H148.718C146.425 21.2277 144.15 21.4535 141.891 21.7752C140.071 28.9024 138.223 36.0227 136.348 43.135C136.195 43.9434 136.06 44.7546 135.943 45.5684C133.842 37.8302 131.702 29.9893 129.521 22.0456C129.375 22.0234 129.23 22.0009 129.084 21.9784L129.082 21.978C128.935 21.9553 128.789 21.9327 128.642 21.9104C126.37 22.1646 124.093 22.389 121.815 22.5863V54.4909H122.627C124.335 54.3151 126.047 54.1799 127.764 54.0853V38.5386C127.608 37.7072 127.585 36.8501 127.696 35.97C127.808 36.4148 127.876 36.8663 127.899 37.3219C128.595 40.1046 129.29 42.887 129.986 45.6687C130.687 48.475 131.388 51.2807 132.09 54.0853C134.38 53.9366 136.655 53.7108 138.917 53.4093C140.078 48.8454 141.295 44.2936 142.567 39.7553C142.849 38.3602 143.12 36.9637 143.378 35.5645C143.371 36.6892 143.348 37.8153 143.31 38.9442C143.221 43.8583 143.312 48.7251 143.581 53.5445C145.288 53.362 147.001 53.2268 148.718 53.139ZM43.1355 27.1819C45.8541 26.7263 47.8143 27.7186 49.0162 30.1561C49.7246 32.2353 50.0625 34.3753 50.0301 36.5775C49.9665 38.2755 49.8084 39.9654 49.5569 41.6471C49.1527 43.7155 48.1388 45.4053 46.5152 46.7167C41.7633 48.6999 38.9013 47.1452 37.9307 42.0527C37.4508 39.0258 37.4954 36.0057 38.0659 32.995C38.5039 31.0564 39.4732 29.4558 40.9724 28.1958C41.6633 27.7646 42.3852 27.4266 43.1355 27.1819ZM46.7855 29.7505C45.0389 30.3034 43.8898 31.4755 43.3382 33.2654C42.5325 36.1882 42.2621 39.1623 42.5271 42.1879C42.6096 43.8412 42.9935 45.4189 43.6762 46.9195C44.5455 47.0141 45.3566 46.8113 46.1096 46.3111C47.8711 44.9741 48.885 43.195 49.1514 40.9712C49.6015 38.1322 49.6015 35.2932 49.1514 32.4543C48.9972 31.4971 48.6593 30.6184 48.1374 29.8181C47.6886 29.7505 47.2384 29.7275 46.7855 29.7505ZM99.3742 39.7562C99.5188 39.8819 99.6986 39.9278 99.9149 39.8913C101.268 39.8251 102.62 39.7359 103.971 39.621C103.016 36.4697 102.25 33.2698 101.672 30.0226C101.01 33.2914 100.243 36.536 99.3742 39.7562ZM171.295 27.1824C170.505 27.4866 169.739 27.8706 168.997 28.3315C167.566 29.6821 166.643 31.3273 166.225 33.2659C165.776 36.3293 165.776 39.394 166.225 42.4588C166.489 44.1351 167.232 45.5546 168.456 46.7172C171.412 48.2827 174.004 47.8095 176.229 45.2977C177.165 43.8607 177.75 42.283 177.987 40.5661C178.299 37.7637 178.254 34.9707 177.852 32.1844C177.199 28.4884 175.014 26.8215 171.295 27.1824ZM177.446 40.5661C177.232 43.0441 176.129 45.0044 174.134 46.4468C173.461 46.8402 172.739 47.0214 171.971 46.9876C171.326 45.7371 170.943 44.4082 170.822 42.9995C170.513 39.951 170.695 36.9309 171.362 33.9419C171.686 32.5967 172.339 31.4476 173.323 30.4946C173.861 30.2026 174.401 29.9538 174.945 29.751C175.478 29.7118 175.995 29.7564 176.5 29.8862C176.904 30.6041 177.174 31.3706 177.311 32.1844C177.704 34.972 177.75 37.765 177.446 40.5661ZM171.97 19.8824C184.189 19.6431 189.722 26.5337 189.951 38.3356C190.086 43.4539 188.666 48.0733 185.692 52.1925C181.759 56.4942 176.96 57.9137 171.295 56.4509C163.86 54.469 159.647 49.6699 158.654 42.0533C157.864 36.297 158.945 30.9354 161.899 25.9659C164.323 22.3928 167.68 20.365 171.97 19.8824ZM169.131 54.2879C175.656 54.8003 180.32 52.1195 183.124 46.2442C185.324 40.7298 185.684 35.0979 184.205 29.3456C182.243 22.9917 177.94 20.0176 171.295 20.4231C168.62 20.8814 166.278 22.0305 164.265 23.8705C161.434 26.8973 159.744 30.4798 159.195 34.6179C158.621 38.9251 159.072 43.1159 160.547 47.1905C162.146 51.088 165.008 53.4538 169.131 54.2879Z" fill="black"/>
</svg>
