<svg width="66" height="77" viewBox="0 0 66 77" fill="none" xmlns="http://www.w3.org/2000/svg">
<path d="M54.9138 9.67554C54.7718 9.88219 54.6479 9.98929 54.5421 9.99685" stroke="black" stroke-width="0.480985"/>
<path d="M8.70362 36.0878C8.40792 36.1734 8.09459 36.2297 7.76361 36.2566C7.40575 36.2868 7.12602 36.1508 6.79715 36.0512C6.47289 35.9529 6.16166 35.9193 5.86344 35.9504C5.03559 36.0374 4.09432 36.5452 3.65456 37.2294C3.16062 37.998 3.03839 38.828 3.28788 39.7192C3.85113 41.7265 4.98644 43.1075 7.25077 43.1718C7.27897 43.1725 7.30616 43.1825 7.32806 43.2003C7.34995 43.2181 7.36532 43.2426 7.37173 43.2701C7.62542 44.3378 7.8745 45.3966 8.11895 46.4467C8.18699 46.739 8.26638 47.0297 8.3571 47.3187C8.44866 47.6102 9.12219 48.8147 9.21796 49.1188" stroke="black" stroke-width="0.480985"/>
<path d="M9.7431 51.5483C9.81031 51.6407 9.87457 51.7377 9.93589 51.8393C9.99973 51.9443 10.0699 52.0376 10.1463 52.1191C11.6735 53.7508 13.9845 54.0104 15.6906 52.4895C15.9947 52.2182 16.2601 51.9027 16.4869 51.5432" stroke="black" stroke-width="0.480985"/>
<path d="M54.5408 21.6927C54.6181 21.36 54.7109 21.045 54.8192 20.7476C54.9579 20.3671 55.0561 20.055 55.1141 19.8114C55.4804 18.2842 55.963 16.8289 56.5619 15.4453" stroke="black" stroke-width="0.480985"/>
<path d="M56.5619 15.4453C57.2339 15.1832 57.8442 14.8556 58.3928 14.4624C59.0413 13.9979 59.5503 13.4061 59.9199 12.687" stroke="black" stroke-width="0.480985"/>
<path d="M59.92 12.6869C60.1938 12.2619 60.4509 11.7902 60.6911 11.2719C61.0124 10.5776 61.582 10.4592 62.0646 10.0018C63.1571 8.96725 63.2969 7.32666 62.396 6.0981C61.6059 5.02075 60.1972 4.56335 58.8905 4.93507C57.3621 5.36979 56.4321 6.72183 55.7265 8.04237C55.5593 8.35403 55.2884 8.89837 54.9138 9.67541" stroke="black" stroke-width="0.480985"/>
<path d="M59.92 12.6871C59.1194 12.9878 58.2643 13.11 57.3545 13.0538C57.2546 13.047 57.1815 13.0252 57.1353 12.9882C57.1093 12.9671 57.0765 12.9564 57.0433 12.958C56.8366 12.9697 56.68 12.9185 56.5733 12.8043C56.5481 12.7782 56.5174 12.7669 56.4813 12.7702C56.4519 12.7728 56.4305 12.7618 56.417 12.7375C56.4036 12.714 56.386 12.6934 56.3641 12.6757C55.8912 12.2776 55.4964 11.8193 55.1797 11.301C55.0675 11.1158 55.0272 10.9091 54.8962 10.739C54.881 10.7197 54.8848 10.7054 54.9075 10.6962C54.9117 10.6945 54.9151 10.692 54.9176 10.6886C54.9403 10.6609 54.9449 10.6286 54.9314 10.5916C54.892 10.4841 54.8512 10.3728 54.8092 10.2577C54.7983 10.2266 54.8008 10.1964 54.8168 10.167C54.9016 10.0174 54.934 9.85363 54.9138 9.67554" stroke="black" stroke-width="0.480985"/>
<path d="M56.562 15.4454L54.7273 15.2324C54.6853 15.2274 54.6509 15.2417 54.624 15.2753C54.5837 15.3265 54.5534 15.3925 54.5333 15.4731" stroke="black" stroke-width="0.480985"/>
<path d="M54.5421 9.99683L54.5333 15.473" stroke="black" stroke-width="0.480985"/>
<path d="M54.5333 15.4729L54.5408 21.6925" stroke="black" stroke-width="0.480985"/>
<path d="M10.8344 50.3403L17.2456 50.3429" stroke="black" stroke-width="0.480985"/>
<path d="M37.8765 50.3438L41.0431 50.345" stroke="black" stroke-width="0.480985"/>
<path d="M53.3513 27.2734V21.8186" stroke="black" stroke-width="0.480985"/>
<path d="M53.3513 21.8188L53.3463 10.4934" stroke="black" stroke-width="0.480985"/>
<path d="M36.8646 6.93872L35.6751 6.93998" stroke="black" stroke-width="0.480985"/>
<path d="M35.6752 6.93972L31.9731 6.92334" stroke="black" stroke-width="0.480985"/>
<path d="M31.9731 6.92334C31.7488 7.28372 31.5804 7.61469 31.4678 7.91627C31.1116 8.86551 30.8613 9.86978 30.7168 10.9291C30.5001 12.5243 30.3002 14.1216 30.117 15.7211C30.0566 16.2461 29.9881 16.7871 29.9117 17.344" stroke="black" stroke-width="0.480985"/>
<path d="M29.9116 17.3443C29.5706 16.3489 29.2459 15.5752 28.9376 15.0233C28.3668 14.0014 27.137 13.1256 25.9173 13.0777C24.7933 13.0349 23.4967 13.7557 22.9486 14.6642C22.4706 15.4588 22.1577 16.3774 22.0098 17.4199C21.9468 17.8618 21.8817 18.3049 21.8145 18.7493" stroke="black" stroke-width="0.480985"/>
<path d="M21.8145 18.7493L21.6494 19.964" stroke="black" stroke-width="0.480985"/>
<path d="M21.6494 19.9639C21.5033 19.7984 21.363 19.635 21.2286 19.4737C21.0513 19.2612 20.9035 19.1058 20.785 19.0075C19.0966 17.6 16.8272 18.3523 15.9628 20.2575C15.8376 20.5339 15.728 20.8182 15.6339 21.1105" stroke="black" stroke-width="0.480985"/>
<path d="M15.6339 21.1106C15.4105 21.9826 15.2568 22.7369 15.1728 23.3737C14.8157 26.1038 14.4801 29.1897 14.166 32.6313C13.8501 36.0956 13.5418 38.9299 13.2411 41.1342C13.226 41.2459 13.2151 41.3623 13.2083 41.4832C13.1991 41.6496 13.1533 41.7558 13.071 41.802" stroke="black" stroke-width="0.480985"/>
<path d="M13.071 41.8018C12.7459 40.4107 12.456 39.4065 12.2015 38.789C12.0058 38.3136 11.7529 37.873 11.443 37.4672C11.0406 36.9405 10.5172 36.5894 9.87292 36.4138" stroke="black" stroke-width="0.480985"/>
<path d="M25.475 22.1096C25.5977 22.3583 25.7287 22.6132 25.8681 22.8745C26.0185 23.1567 26.1382 23.4209 26.2273 23.6671C26.4532 24.2895 26.6855 24.9111 26.9241 25.5319C26.9367 25.5639 26.9388 25.597 26.9304 25.6315C26.9228 25.6676 26.9115 25.7029 26.8964 25.7373" stroke="black" stroke-width="0.480985"/>
<path d="M26.8964 25.7375C26.8283 26.1017 26.846 26.5175 26.8145 26.8262C26.6347 28.5744 26.4658 30.3233 26.3079 32.0731C26.1353 33.9897 25.9009 35.9465 25.6439 37.8631C25.4801 39.0853 25.3679 40.2383 25.0201 41.4278C24.7782 42.2557 24.3561 43.0999 23.6076 43.5208C22.7331 44.0122 21.8813 44.1508 20.8745 43.8156C20.0689 43.546 19.5036 43.0625 19.1785 42.3653" stroke="black" stroke-width="0.480985"/>
<path d="M19.1785 42.3651C19.1415 42.3223 19.1193 42.2819 19.1117 42.2441" stroke="black" stroke-width="0.480985"/>
<path d="M21.6495 19.9639C21.4999 20.9904 21.3105 22.6491 21.0812 24.9398C20.7712 28.0278 20.4621 31.1721 20.1538 34.3726C20.0639 35.3084 19.9656 36.1556 19.8589 36.9142C19.7354 37.7945 19.5939 38.6489 19.4343 39.4771C19.3998 39.6586 19.3461 39.8329 19.273 40.0001C19.2041 40.1605 19.1684 40.3411 19.1659 40.5419C19.1617 40.9409 19.2234 41.3265 19.3511 41.6986C19.3553 41.7111 19.357 41.724 19.3561 41.7364C19.3402 41.9237 19.2973 42.0304 19.2276 42.0565C19.1915 42.0699 19.1667 42.0947 19.1533 42.1308L19.1117 42.2442" stroke="black" stroke-width="0.480985"/>
<path d="M19.1117 42.2442C19.0319 42.1383 18.9714 42.022 18.9302 41.8951C18.7765 41.4188 18.6114 40.9488 18.5333 40.4599C18.1175 37.8692 17.7756 35.0929 17.5076 32.1309C17.285 29.673 17.0112 27.1781 16.6861 24.6462C16.6004 23.9775 16.4769 23.334 16.3156 22.7158C16.2736 22.5537 16.2119 22.4184 16.1304 22.31C16.0413 22.1924 15.9867 22.0505 15.9666 21.8841C15.9624 21.8455 15.9678 21.8085 15.9829 21.7733C16.027 21.6724 16.0712 21.5149 16.0258 21.4078C16.0123 21.3759 16.0186 21.3469 16.0447 21.3209C16.0579 21.3081 16.0667 21.2915 16.0699 21.2734C16.0731 21.2552 16.0704 21.2366 16.0623 21.2201L15.9464 20.9731C15.9304 20.9378 15.9065 20.9307 15.8746 20.9517C15.7914 21.0063 15.7473 21.0815 15.7423 21.1772C15.7419 21.1831 15.7401 21.1887 15.737 21.1937C15.734 21.1988 15.7297 21.2031 15.7246 21.2062C15.7104 21.2163 15.6936 21.2188 15.6742 21.2138C15.6532 21.2087 15.6419 21.1953 15.6402 21.1735L15.6339 21.1105" stroke="black" stroke-width="0.480985"/>
<path d="M19.1785 42.3651C19.155 42.3609 19.134 42.3605 19.1155 42.3638C19.071 42.3722 19.0471 42.3991 19.0437 42.4445C19.016 42.8846 18.9219 43.5625 18.7615 44.4782C18.3868 46.6245 17.8815 48.5793 17.2456 50.3425" stroke="black" stroke-width="0.480985"/>
<path d="M10.8344 50.3402C10.7428 49.8 10.7353 49.4535 10.8117 49.3006C10.9112 49.1003 10.9831 48.823 11.2011 48.726C11.2414 48.7079 11.2763 48.6791 11.3019 48.6429C11.6992 48.0683 11.9781 47.5075 12.1385 46.9607C12.5653 45.5074 12.8954 43.9563 13.1289 42.3073C13.1499 42.1578 13.1306 41.9893 13.071 41.802" stroke="black" stroke-width="0.480985"/>
<path d="M29.7403 18.9318C29.6218 18.9999 29.5454 18.9995 29.5109 18.9306C29.4933 18.8961 29.4651 18.8751 29.4265 18.8676C28.7561 18.7424 28.2513 18.7159 27.9119 18.7882C27.4776 18.8806 27.1538 19.0074 26.9404 19.1687C26.8152 19.262 26.6031 19.4732 26.3041 19.8025C26.1495 19.9722 26.0315 20.1516 25.95 20.3406C25.8635 20.5405 25.787 20.7442 25.7207 20.9517C25.7181 20.9593 25.6619 21.0966 25.5518 21.3638C25.4611 21.5813 25.4355 21.83 25.475 22.1097" stroke="black" stroke-width="0.480985"/>
<path d="M25.475 22.1098L24.8235 20.6961C24.8084 20.6641 24.7841 20.652 24.7504 20.6595C24.5824 20.6948 24.4027 20.6902 24.2111 20.6457C23.973 20.5902 23.881 20.4125 23.6504 20.3483C23.6053 20.3354 23.5668 20.3046 23.5433 20.2626C23.5047 20.1937 23.4442 20.1488 23.3619 20.1278C23.3409 20.1226 23.322 20.1113 23.3074 20.0954C23.2928 20.0795 23.2833 20.0596 23.28 20.0383C23.2682 19.9551 23.2182 19.906 23.13 19.8909C23.0687 19.8808 23.0183 19.8514 22.9788 19.8027L22.1648 18.8173C22.1362 18.782 22.0997 18.7631 22.0552 18.7606L21.8145 18.7493" stroke="black" stroke-width="0.480985"/>
<path d="M35.6752 6.9397L32.5905 6.98632C32.5309 6.98716 32.4906 7.01572 32.4696 7.072C32.4116 7.21943 32.3763 7.34292 32.2818 7.47396C32.1709 7.62601 32.1226 7.80074 32.1369 7.99815C32.1394 8.03847 32.1336 8.07795 32.1193 8.11659C32.0727 8.23882 32.0588 8.34592 31.9945 8.46563C31.9542 8.54291 31.9265 8.63952 31.9114 8.75544C31.84 9.29139 31.8324 9.76979 31.8887 10.1906C31.9114 10.3612 31.9584 10.533 32.0298 10.706C32.1012 10.8799 32.1386 11.0588 32.142 11.2428C32.1462 11.4545 32.1617 11.6632 32.1886 11.869C32.2247 12.1471 32.252 12.4218 32.2705 12.6931C32.2864 12.9241 32.3074 13.177 32.3335 13.4517C32.6871 17.1201 33.0013 20.9142 33.276 24.8338C33.3147 25.3916 33.3499 25.9725 33.3819 26.5764C33.4121 27.1586 33.4587 27.7395 33.5217 28.3191C33.531 28.4031 33.5179 28.4888 33.4827 28.5762" stroke="black" stroke-width="0.480985"/>
<path d="M33.4826 28.5762C32.5435 29.5876 31.4073 29.9173 30.0742 29.5653" stroke="black" stroke-width="0.480985"/>
<path d="M30.0742 29.5653C29.9692 29.404 29.8541 29.2746 29.729 29.1772C29.3719 28.9008 29.0721 28.5786 28.8293 28.2107C28.563 27.8083 28.4122 27.4173 28.3769 27.0376C28.3442 26.6907 28.3471 26.3496 28.3857 26.0144C28.4168 25.7439 28.4979 25.5028 28.6289 25.2912C28.7667 25.0694 28.8528 24.8762 28.8872 24.7115C29.1653 23.3943 29.4496 21.4677 29.7403 18.9316" stroke="black" stroke-width="0.480985"/>
<path d="M29.7403 18.9319L29.9117 17.3442" stroke="black" stroke-width="0.480985"/>
<path d="M33.93 33.9468C34.0119 35.0493 34.1367 36.1481 34.2072 37.2418C34.3181 38.9555 34.4853 40.6801 34.7087 42.4156C34.8423 43.4514 35.0301 44.4607 35.2216 45.4851C35.3871 46.3672 35.6504 47.2639 36.0116 48.1754C36.1939 48.6349 36.4632 49.0692 36.8193 49.4783" stroke="black" stroke-width="0.480985"/>
<path d="M36.8193 49.478C37.0831 49.7754 37.4355 50.064 37.8765 50.3437" stroke="black" stroke-width="0.480985"/>
<path d="M30.0742 29.5656C28.3895 29.1762 27.4961 27.266 26.9417 25.7539C26.94 25.748 26.9363 25.7438 26.9304 25.7413C26.9195 25.7346 26.9081 25.7333 26.8964 25.7375" stroke="black" stroke-width="0.480985"/>
<path d="M36.8647 6.93872C37.3082 7.63343 37.5846 8.32353 37.6938 9.009C38.1256 11.7173 38.4385 14.6885 38.6325 17.9227C38.6855 18.7997 38.7993 20.2391 38.974 22.2409C39.0437 23.0465 39.1097 23.8853 39.1719 24.7572C39.279 26.2668 39.415 27.7461 39.4604 29.2292C39.4722 29.6055 39.5016 29.9806 39.5486 30.3544C39.5797 30.6039 39.6015 30.9496 39.6141 31.3914C39.6242 31.7468 39.6696 32.0996 39.7502 32.4499" stroke="black" stroke-width="0.480985"/>
<path d="M39.7502 32.45L39.5738 33.9356" stroke="black" stroke-width="0.480985"/>
<path d="M39.5738 33.9353C39.5343 33.9185 39.5012 33.8975 39.4743 33.8723C39.4642 33.8622 39.4592 33.8547 39.4592 33.8496C39.4592 33.8463 39.455 33.8597 39.4466 33.8899C39.439 33.9185 39.4382 33.9181 39.444 33.8887C39.4474 33.8702 39.4373 33.8542 39.4138 33.8408C39.4004 33.8332 39.3861 33.8282 39.371 33.8257L38.7069 33.7022C38.6708 33.6955 38.6523 33.6736 38.6515 33.6367C38.6515 33.5905 38.6338 33.551 38.5985 33.5182C38.5781 33.5002 38.5528 33.4896 38.5267 33.488C38.4217 33.4821 38.3696 33.4321 38.3705 33.338C38.3713 33.2893 38.3474 33.2616 38.2986 33.2549L37.9761 33.2108C37.9442 33.2066 37.9181 33.1915 37.8979 33.1654L37.782 33.0167C37.7518 32.9772 37.7119 32.9579 37.6623 32.9588L36.2246 32.9852C36.1733 32.9861 36.1431 33.0117 36.1339 33.0621C36.1288 33.0865 36.1242 33.1108 36.12 33.1352C36.1091 33.1898 36.0755 33.2175 36.0192 33.2183C35.8781 33.2192 35.7374 33.2343 35.5971 33.2637C35.4711 33.2914 35.427 33.3569 35.3652 33.459C35.3549 33.476 35.3397 33.4893 35.3216 33.4972C35.3036 33.5051 35.2836 33.5072 35.2644 33.5031C35.2098 33.4914 35.1653 33.5136 35.1309 33.5699C35.1265 33.5765 35.1238 33.5841 35.1229 33.592C35.122 33.5999 35.123 33.6078 35.1258 33.6153C35.1325 33.6321 35.1317 33.6476 35.1233 33.6619C35.1023 33.7022 35.0691 33.7224 35.0238 33.7224C34.902 33.7224 34.8431 33.7837 34.8473 33.9063C34.8482 33.9551 34.8247 33.9782 34.7768 33.9756C34.5323 33.963 34.4996 34.2125 34.2576 34.1558C34.2333 34.1499 34.2127 34.1562 34.1959 34.1747C34.1413 34.236 34.1161 34.3045 34.1203 34.3801C34.1203 34.381 34.1199 34.3818 34.119 34.3826C34.0964 34.4036 34.0976 34.4036 34.1228 34.3826C34.1237 34.3818 34.1241 34.3805 34.1241 34.3789C34.1157 34.2814 34.088 34.1877 34.0409 34.0979C34.0384 34.0928 34.0342 34.0899 34.0283 34.089C34.0115 34.0874 34.0018 34.0916 33.9993 34.1016C33.9951 34.1201 33.9934 34.1201 33.9943 34.1016C34.001 33.8984 33.9796 33.8467 33.93 33.9467" stroke="black" stroke-width="0.480985"/>
<path d="M33.93 33.9465L33.4827 28.5762" stroke="black" stroke-width="0.480985"/>
<path d="M38.9979 39.0586C38.8148 40.4379 38.6325 41.7938 38.4511 43.1261C38.3898 43.5797 38.1659 44.3009 37.7795 45.2896C37.6972 45.5013 37.5837 45.671 37.4393 45.7986C37.2368 45.9784 37.0541 46.1657 36.8911 46.3606C36.8659 46.3917 36.8491 46.427 36.8407 46.4665C36.813 46.595 36.7072 46.6819 36.6719 46.7815C36.4837 47.32 36.4745 47.8597 36.6442 48.4007C36.645 48.4032 36.7084 48.5347 36.8344 48.7951C36.9453 49.0261 36.9403 49.2537 36.8193 49.478" stroke="black" stroke-width="0.480985"/>
<path d="M53.3463 10.4934C52.2735 11.2276 51.4785 12.2025 50.961 13.418C50.6006 14.2656 50.3259 14.9906 50.1369 15.5929C49.8773 16.4161 49.5434 17.5875 49.1352 19.1072" stroke="black" stroke-width="0.480985"/>
<path d="M49.1351 19.1069C48.663 20.845 48.2518 22.591 47.9015 24.345C47.899 24.3568 47.883 24.4874 47.8536 24.7369C47.8309 24.925 47.7692 25.0704 47.6684 25.1729" stroke="black" stroke-width="0.480985"/>
<path d="M47.6684 25.1731C47.597 24.969 47.4895 24.5145 47.3458 23.8097C47.1807 23.0033 46.4285 21.9285 45.646 21.5316C44.4061 20.9015 42.9306 21.088 41.9717 22.1175C41.3379 22.7966 41.0606 23.5842 40.8805 24.3503C40.7234 25.0148 40.5789 25.8565 40.447 26.8755C40.2084 28.7143 39.9762 30.5725 39.7502 32.45" stroke="black" stroke-width="0.480985"/>
<path d="M47.5008 26.1042C47.1572 28.2178 46.8313 30.3322 46.523 32.4474C46.4969 32.6246 46.473 32.8019 46.4512 32.9791C46.2689 34.4181 46.0736 35.8529 45.8652 37.2835" stroke="black" stroke-width="0.480985"/>
<path d="M45.8652 37.2834C45.6586 38.6821 45.4923 39.7473 45.3663 40.479C45.3032 40.8402 45.2205 41.2434 45.118 41.6886C45.0752 41.8743 45.0164 42.0502 44.9416 42.2166C44.866 42.3871 44.7833 42.5618 44.6934 42.7408C44.6289 42.8723 44.5981 43.0173 44.6039 43.1629L44.6493 44.1873C44.6518 44.2276 44.6421 44.265 44.6203 44.2995C44.5733 44.3759 44.5493 44.4544 44.5485 44.5351C44.5485 44.5443 44.5493 44.5443 44.551 44.5351C44.5552 44.5124 44.5472 44.4847 44.5271 44.4519C44.5128 44.4292 44.4888 44.428 44.4552 44.4481" stroke="black" stroke-width="0.480985"/>
<path d="M44.4553 44.4482C44.404 44.276 44.3326 44.1353 44.2411 44.0261" stroke="black" stroke-width="0.480985"/>
<path d="M44.2411 44.0257C44.1958 43.7704 44.1349 43.5129 44.0584 43.2533C43.9736 42.9644 43.9169 42.7027 43.8883 42.4683C43.8228 41.9441 43.7421 41.4036 43.6464 40.8466C43.6388 40.8004 43.6157 40.7635 43.5771 40.7357L43.412 40.6173C43.3826 40.5963 43.3557 40.5988 43.3314 40.6248C43.2885 40.6702 43.2301 40.6954 43.1562 40.7004C43.1285 40.7021 43.1016 40.7067 43.0756 40.7143C43.0352 40.7252 43.0033 40.7151 42.9798 40.6841C42.9521 40.6479 42.9155 40.6324 42.8702 40.6374L41.813 40.7471C41.7968 40.7486 41.7806 40.7453 41.7663 40.7377C41.7519 40.7301 41.7401 40.7185 41.7323 40.7042L41.6719 40.5946C41.6467 40.5492 41.6084 40.527 41.5572 40.5278C41.2901 40.5303 41.0213 40.5182 40.7508 40.4913C40.7155 40.4879 40.7008 40.4669 40.7067 40.4283C40.7091 40.4094 40.7061 40.3901 40.6978 40.3728C40.655 40.2855 40.5878 40.2439 40.4962 40.2481C40.4744 40.2489 40.4614 40.2384 40.4572 40.2166C40.4202 40.0225 40.29 39.9499 40.0665 39.9986C40.0128 40.0104 39.975 39.991 39.9531 39.9406C39.9111 39.8432 39.8498 39.7592 39.7692 39.6886C39.7389 39.6626 39.7188 39.6302 39.7087 39.5916C39.6784 39.4769 39.6369 39.39 39.5398 39.3169C39.3559 39.1783 39.1753 39.0922 38.998 39.0586" stroke="black" stroke-width="0.480985"/>
<path d="M38.998 39.0587L39.5739 33.9353" stroke="black" stroke-width="0.480985"/>
<path d="M41.043 50.3453C41.6982 49.9681 42.2022 49.4939 42.555 48.9227C42.7944 48.5346 43.033 48.0512 43.2708 47.4724C43.7429 46.3207 44.0663 45.1719 44.241 44.0261" stroke="black" stroke-width="0.480985"/>
<path d="M44.4552 44.4481C45.2339 46.7049 47.9859 47.311 49.6467 45.5948C50.2351 44.9862 50.6547 43.9504 50.8336 43.1553C51.1184 41.8953 51.3822 40.4252 51.625 38.7451" stroke="black" stroke-width="0.480985"/>
<path d="M53.3512 27.2734C53.2261 27.4624 53.1479 27.7321 53.1169 28.0824" stroke="black" stroke-width="0.480985"/>
<path d="M53.1169 28.0825L53.0892 27.9213C53.0774 27.8498 53.0602 27.8482 53.0375 27.9162C53.0224 27.9599 53.0005 28.0011 52.972 28.0397C52.9266 28.1019 52.8884 28.0977 52.8573 28.0271C52.8187 27.9372 52.7561 27.915 52.6696 27.9603C52.0454 28.2921 51.3797 28.5152 50.6724 28.6294C50.283 28.6924 49.973 28.5979 49.6001 28.482C49.4564 28.4375 49.3262 28.364 49.2094 28.2615C49.0364 28.1103 48.8617 27.9679 48.6852 27.8343C48.466 27.668 48.2976 27.4538 48.18 27.1917C48.1153 27.0489 48.0183 26.9346 47.8889 26.8489C47.8553 26.8271 47.833 26.7969 47.8221 26.7582C47.8019 26.6818 47.7646 26.6112 47.71 26.5465C47.6276 26.4491 47.5793 26.3827 47.5651 26.3474C47.5357 26.2735 47.5142 26.1925 47.5008 26.1042" stroke="black" stroke-width="0.480985"/>
<path d="M47.5008 26.104L47.6684 25.1729" stroke="black" stroke-width="0.480985"/>
<path d="M53.3513 21.8186C52.9347 21.79 52.5256 21.7871 52.124 21.8098C52.0157 21.8156 51.9069 21.8114 51.7977 21.7972C51.7641 21.793 51.7397 21.8064 51.7246 21.8375C51.7153 21.8568 51.7069 21.8564 51.6994 21.8362C51.696 21.8261 51.6906 21.8173 51.683 21.8098C51.6654 21.7913 51.6439 21.7804 51.6187 21.777C51.3583 21.7342 51.1328 21.6556 50.9421 21.5414C50.8556 21.4893 50.7636 21.4519 50.6661 21.4292C50.509 21.3923 50.3948 21.2923 50.3234 21.1293C50.3074 21.0932 50.2839 21.0625 50.2528 21.0373C50.1201 20.9323 49.9907 20.8114 49.8647 20.6744C49.8488 20.6576 49.8387 20.6375 49.8345 20.614C49.8269 20.5795 49.8345 20.5493 49.8572 20.5232C49.8849 20.493 49.8866 20.4611 49.8622 20.4275C49.7681 20.2956 49.6724 20.1641 49.5749 20.0331C49.496 19.9256 49.4258 19.7806 49.3645 19.5984C49.3082 19.432 49.2318 19.2682 49.1352 19.1069" stroke="black" stroke-width="0.480985"/>
<path d="M53.1169 28.0823L51.625 38.7449" stroke="black" stroke-width="0.480985"/>
<path d="M51.625 38.7451C51.5922 38.7073 51.5897 38.6645 51.6174 38.6166C51.6308 38.5931 51.6279 38.5716 51.6086 38.5523C51.596 38.5397 51.5796 38.5359 51.5594 38.541C51.5267 38.5485 51.5103 38.5691 51.5103 38.6027V38.7124C51.5103 38.7426 51.496 38.7623 51.4675 38.7716L51.2217 38.8547C51.1797 38.869 51.1419 38.8904 51.1083 38.919C50.8026 39.1811 50.4934 39.3743 50.1809 39.4986C49.85 39.6314 49.4753 39.7511 49.057 39.8577C48.826 39.9174 48.6248 39.9245 48.4534 39.8792C48.1728 39.8052 47.8956 39.6969 47.6218 39.5541C47.5495 39.5163 47.4836 39.4692 47.4239 39.4129C47.3618 39.3541 47.2983 39.297 47.2337 39.2416C46.8775 38.9392 46.4969 38.5527 46.092 38.0823C46.0694 38.0563 46.0584 38.026 46.0593 37.9916C46.0593 37.9698 46.0555 37.95 46.0479 37.9324C46.0446 37.9265 46.04 37.9223 46.0341 37.9198C46.0248 37.9147 46.0148 37.9122 46.0038 37.9122C45.977 37.9122 45.9648 37.8988 45.9673 37.8719C45.9875 37.6686 45.9534 37.4725 45.8652 37.2834" stroke="black" stroke-width="0.480985"/>
<path d="M59.92 12.6869C59.1194 12.9877 58.2643 13.1099 57.3545 13.0536C57.2546 13.0469 57.1815 13.0251 57.1353 12.9881C57.1093 12.967 57.0765 12.9562 57.0433 12.9579C56.8366 12.9696 56.68 12.9184 56.5733 12.8041C56.5481 12.7781 56.5174 12.7668 56.4813 12.7701C56.4519 12.7726 56.4305 12.7617 56.417 12.7373C56.4036 12.7138 56.386 12.6932 56.3641 12.6756C55.8912 12.2774 55.4964 11.8192 55.1797 11.3009C55.0675 11.1157 55.0272 10.909 54.8962 10.7389C54.881 10.7196 54.8848 10.7053 54.9075 10.6961C54.9117 10.6944 54.9151 10.6919 54.9176 10.6885C54.9403 10.6608 54.9449 10.6284 54.9314 10.5915C54.892 10.4839 54.8512 10.3726 54.8092 10.2576C54.7983 10.2265 54.8008 10.1962 54.8168 10.1668C54.9016 10.0173 54.934 9.8535 54.9138 9.67541C55.2885 8.89837 55.5594 8.35403 55.7265 8.04237C56.4322 6.72183 57.3621 5.36979 58.8905 4.93507C60.1972 4.56335 61.606 5.02075 62.396 6.0981C63.297 7.32666 63.1571 8.96725 62.0646 10.0018C61.582 10.4592 61.0125 10.5776 60.6912 11.2719C60.4509 11.7902 60.1939 12.2619 59.92 12.6869Z" fill="black"/>
<path d="M31.9731 6.92334L35.6752 6.93972L32.5906 6.98634C32.5309 6.98718 32.4906 7.01574 32.4696 7.07203C32.4116 7.21945 32.3763 7.34294 32.2818 7.47399C32.171 7.62603 32.1227 7.80076 32.1369 7.99817C32.1395 8.03849 32.1336 8.07797 32.1193 8.11662C32.0727 8.23884 32.0588 8.34595 31.9945 8.46565C31.9542 8.54294 31.9265 8.63954 31.9114 8.75546C31.84 9.29141 31.8324 9.76981 31.8887 10.1907C31.9114 10.3612 31.9584 10.533 32.0298 10.706C32.1012 10.8799 32.1386 11.0589 32.142 11.2428C32.1462 11.4545 32.1617 11.6633 32.1886 11.8691C32.2247 12.1471 32.252 12.4218 32.2705 12.6931C32.2865 12.9242 32.3075 13.177 32.3335 13.4517C32.6872 17.1202 33.0013 20.9142 33.276 24.8338C33.3147 25.3916 33.3499 25.9725 33.3819 26.5765C33.4121 27.1586 33.4587 27.7395 33.5217 28.3191C33.531 28.4031 33.518 28.4888 33.4827 28.5762C32.5435 29.5876 31.4074 29.9173 30.0742 29.5653C29.9692 29.404 29.8541 29.2747 29.729 29.1772C29.3719 28.9009 29.0721 28.5787 28.8293 28.2108C28.563 27.8084 28.4122 27.4173 28.3769 27.0377C28.3442 26.6907 28.3471 26.3497 28.3857 26.0145C28.4168 25.744 28.4979 25.5029 28.6289 25.2912C28.7667 25.0694 28.8528 24.8762 28.8872 24.7116C29.1653 23.3944 29.4496 21.4678 29.7403 18.9317L29.9117 17.344C29.9881 16.7871 30.0566 16.2461 30.1171 15.7211C30.3002 14.1216 30.5001 12.5243 30.7168 10.9291C30.8613 9.86978 31.1117 8.86551 31.4678 7.91627C31.5804 7.61469 31.7488 7.28372 31.9731 6.92334Z" fill="black"/>
<path d="M35.6752 6.93998L36.8647 6.93872C37.3082 7.63343 37.5846 8.32353 37.6938 9.009C38.1256 11.7173 38.4385 14.6885 38.6325 17.9227C38.6854 18.7997 38.7993 20.2391 38.974 22.2409C39.0437 23.0465 39.1097 23.8852 39.1718 24.7572C39.2789 26.2668 39.415 27.7461 39.4604 29.2292C39.4721 29.6055 39.5015 29.9806 39.5486 30.3544C39.5797 30.6039 39.6015 30.9496 39.6141 31.3914C39.6242 31.7468 39.6695 32.0996 39.7502 32.4499L39.5738 33.9355C39.5343 33.9187 39.5011 33.8977 39.4742 33.8725C39.4642 33.8624 39.4591 33.8548 39.4591 33.8498C39.4591 33.8464 39.4549 33.8599 39.4465 33.8901C39.439 33.9187 39.4381 33.9183 39.444 33.8889C39.4474 33.8704 39.4373 33.8544 39.4138 33.841C39.4003 33.8334 39.386 33.8284 39.3709 33.8259L38.7069 33.7024C38.6707 33.6956 38.6523 33.6738 38.6514 33.6368C38.6514 33.5906 38.6338 33.5512 38.5985 33.5184C38.5781 33.5004 38.5528 33.4897 38.5267 33.4882C38.4217 33.4823 38.3696 33.4323 38.3704 33.3382C38.3713 33.2895 38.3473 33.2618 38.2986 33.255L37.976 33.2109C37.9441 33.2067 37.9181 33.1916 37.8979 33.1656L37.782 33.0169C37.7517 32.9774 37.7118 32.9581 37.6623 32.9589L36.2245 32.9854C36.1733 32.9862 36.1431 33.0119 36.1338 33.0623C36.1288 33.0866 36.1242 33.111 36.12 33.1353C36.109 33.1899 36.0754 33.2177 36.0192 33.2185C35.878 33.2193 35.7373 33.2345 35.597 33.2639C35.471 33.2916 35.4269 33.3571 35.3652 33.4592C35.3549 33.4761 35.3396 33.4895 35.3216 33.4974C35.3035 33.5053 35.2835 33.5073 35.2644 33.5033C35.2098 33.4915 35.1653 33.5138 35.1308 33.5701C35.1265 33.5767 35.1237 33.5843 35.1229 33.5921C35.122 33.6 35.123 33.608 35.1258 33.6154C35.1325 33.6322 35.1317 33.6478 35.1233 33.662C35.1023 33.7024 35.0691 33.7225 35.0237 33.7225C34.9019 33.7225 34.8431 33.7838 34.8473 33.9065C34.8481 33.9552 34.8246 33.9783 34.7767 33.9758C34.5323 33.9632 34.4995 34.2127 34.2576 34.156C34.2332 34.1501 34.2127 34.1564 34.1959 34.1749C34.1412 34.2362 34.116 34.3047 34.1202 34.3803C34.1202 34.3811 34.1198 34.382 34.119 34.3828C34.0963 34.4038 34.0976 34.4038 34.1228 34.3828C34.1236 34.382 34.124 34.3807 34.124 34.379C34.1156 34.2816 34.0879 34.1879 34.0409 34.098C34.0383 34.093 34.0341 34.09 34.0283 34.0892C34.0115 34.0875 34.0018 34.0917 33.9993 34.1018C33.9951 34.1203 33.9934 34.1203 33.9942 34.1018C34.001 33.8985 33.9795 33.8469 33.93 33.9468L33.4827 28.5764C33.5179 28.4891 33.531 28.4034 33.5217 28.3194C33.4587 27.7398 33.4121 27.1589 33.3819 26.5767C33.3499 25.9727 33.3147 25.3919 33.276 24.8341C33.0013 20.9144 32.6871 17.1204 32.3335 13.452C32.3074 13.1773 32.2864 12.9244 32.2705 12.6934C32.252 12.4221 32.2247 12.1474 32.1886 11.8693C32.1617 11.6635 32.1462 11.4548 32.142 11.2431C32.1386 11.0591 32.1012 10.8802 32.0298 10.7063C31.9584 10.5332 31.9114 10.3615 31.8887 10.1909C31.8324 9.77007 31.84 9.29167 31.9114 8.75572C31.9265 8.6398 31.9542 8.5432 31.9945 8.46591C32.0588 8.34621 32.0727 8.2391 32.1193 8.11688C32.1336 8.07823 32.1394 8.03875 32.1369 7.99843C32.1226 7.80102 32.1709 7.62629 32.2818 7.47425C32.3763 7.3432 32.4116 7.21971 32.4696 7.07229C32.4906 7.016 32.5309 6.98744 32.5905 6.9866L35.6752 6.93998Z" fill="black"/>
<path d="M54.9138 9.67554C54.934 9.85363 54.9016 10.0174 54.8168 10.167C54.8008 10.1964 54.7983 10.2266 54.8092 10.2577C54.8512 10.3728 54.892 10.4841 54.9314 10.5916C54.9449 10.6286 54.9403 10.6609 54.9176 10.6886C54.9151 10.692 54.9117 10.6945 54.9075 10.6962C54.8848 10.7054 54.881 10.7197 54.8962 10.739C55.0272 10.9091 55.0675 11.1158 55.1797 11.301C55.4964 11.8193 55.8912 12.2776 56.3641 12.6757C56.386 12.6934 56.4036 12.714 56.4171 12.7375C56.4305 12.7618 56.4519 12.7728 56.4813 12.7702C56.5174 12.7669 56.5481 12.7782 56.5733 12.8043C56.68 12.9185 56.8366 12.9697 57.0433 12.958C57.0765 12.9564 57.1093 12.9671 57.1353 12.9882C57.1815 13.0252 57.2546 13.047 57.3545 13.0538C58.2643 13.11 59.1195 12.9878 59.92 12.6871C59.5504 13.4062 59.0413 13.998 58.3928 14.4625C57.8443 14.8556 57.234 15.1833 56.562 15.4453L54.7273 15.2324C54.6853 15.2274 54.6509 15.2416 54.624 15.2752C54.5837 15.3265 54.5534 15.3924 54.5333 15.4731L54.5421 9.99685C54.6479 9.98929 54.7718 9.88219 54.9138 9.67554Z" fill="black"/>
<path d="M53.3463 10.4934L53.3513 21.8188C52.9347 21.7903 52.5256 21.7873 52.124 21.81C52.0157 21.8159 51.9069 21.8117 51.7977 21.7974C51.7641 21.7932 51.7397 21.8066 51.7246 21.8377C51.7153 21.857 51.7069 21.8566 51.6994 21.8365C51.696 21.8264 51.6906 21.8176 51.683 21.81C51.6654 21.7915 51.6439 21.7806 51.6187 21.7772C51.3583 21.7344 51.1328 21.6558 50.9421 21.5416C50.8556 21.4895 50.7636 21.4521 50.6661 21.4295C50.509 21.3925 50.3948 21.2925 50.3234 21.1296C50.3074 21.0934 50.2839 21.0628 50.2528 21.0376C50.1201 20.9326 49.9907 20.8116 49.8647 20.6747C49.8488 20.6579 49.8387 20.6377 49.8345 20.6142C49.8269 20.5798 49.8345 20.5495 49.8572 20.5235C49.8849 20.4932 49.8866 20.4613 49.8622 20.4277C49.7681 20.2958 49.6724 20.1644 49.5749 20.0333C49.496 19.9258 49.4258 19.7809 49.3645 19.5986C49.3082 19.4323 49.2318 19.2685 49.1352 19.1072C49.5434 17.5875 49.8773 16.4161 50.1369 15.5929C50.3259 14.9906 50.6006 14.2656 50.961 13.418C51.4784 12.2025 52.2735 11.2276 53.3463 10.4934Z" fill="black"/>
<path d="M29.9116 17.3443L29.7403 18.932C29.6218 19 29.5454 18.9996 29.511 18.9307C29.4933 18.8963 29.4652 18.8753 29.4265 18.8677C28.7562 18.7425 28.2513 18.7161 27.9119 18.7883C27.4776 18.8807 27.1538 19.0076 26.9404 19.1689C26.8153 19.2621 26.6032 19.4734 26.3041 19.8027C26.1495 19.9724 26.0315 20.1517 25.95 20.3407C25.8635 20.5406 25.7871 20.7444 25.7207 20.9518C25.7182 20.9594 25.6619 21.0968 25.5518 21.3639C25.4611 21.5815 25.4355 21.8301 25.475 22.1098L24.8235 20.6961C24.8084 20.6641 24.7841 20.652 24.7504 20.6595C24.5824 20.6948 24.4027 20.6902 24.2111 20.6457C23.973 20.5902 23.881 20.4125 23.6504 20.3483C23.6053 20.3354 23.5668 20.3046 23.5433 20.2626C23.5047 20.1937 23.4442 20.1488 23.3619 20.1278C23.3409 20.1226 23.322 20.1113 23.3074 20.0954C23.2928 20.0795 23.2833 20.0596 23.28 20.0383C23.2682 19.9551 23.2182 19.906 23.13 19.8909C23.0687 19.8808 23.0183 19.8514 22.9788 19.8027L22.1648 18.8173C22.1362 18.782 22.0997 18.7631 22.0552 18.7606L21.8145 18.7493C21.8817 18.3049 21.9468 17.8618 22.0098 17.4199C22.1577 16.3774 22.4706 15.4588 22.9486 14.6642C23.4967 13.7557 24.7933 13.0349 25.9173 13.0777C27.137 13.1256 28.3668 14.0014 28.9376 15.0233C29.2459 15.5752 29.5706 16.3489 29.9116 17.3443Z" fill="black"/>
<path d="M56.562 15.4454C55.963 16.8289 55.4804 18.2843 55.1142 19.8115C55.0562 20.0551 54.9579 20.3672 54.8193 20.7477C54.7109 21.0451 54.6181 21.3601 54.5408 21.6928L54.5333 15.4731C54.5534 15.3925 54.5837 15.3265 54.624 15.2753C54.6509 15.2417 54.6853 15.2274 54.7273 15.2324L56.562 15.4454Z" fill="black"/>
<path d="M21.6494 19.9639C21.4999 20.9904 21.3105 22.6491 21.0811 24.9399C20.7712 28.0278 20.462 31.1721 20.1537 34.3727C20.0639 35.3085 19.9656 36.1556 19.8589 36.9142C19.7354 37.7945 19.5939 38.6489 19.4342 39.4771C19.3998 39.6586 19.346 39.8329 19.273 40.0001C19.2041 40.1605 19.1684 40.3411 19.1659 40.5419C19.1617 40.9409 19.2234 41.3265 19.3511 41.6986C19.3553 41.7111 19.357 41.724 19.3561 41.7364C19.3402 41.9238 19.2973 42.0304 19.2276 42.0565C19.1915 42.0699 19.1667 42.0947 19.1533 42.1308L19.1117 42.2442C19.0319 42.1384 18.9714 42.022 18.9302 41.8952C18.7765 41.4189 18.6114 40.9489 18.5333 40.46C18.1175 37.8693 17.7756 35.093 17.5076 32.131C17.285 29.6731 17.0112 27.1781 16.6861 24.6463C16.6004 23.9776 16.4769 23.3341 16.3156 22.7159C16.2736 22.5537 16.2119 22.4185 16.1304 22.3101C16.0413 22.1925 15.9867 22.0505 15.9666 21.8842C15.9624 21.8456 15.9678 21.8086 15.9829 21.7733C16.027 21.6725 16.0712 21.515 16.0258 21.4079C16.0123 21.376 16.0186 21.347 16.0447 21.321C16.0579 21.3082 16.0667 21.2915 16.0699 21.2734C16.0731 21.2553 16.0704 21.2367 16.0623 21.2202L15.9464 20.9732C15.9304 20.9379 15.9065 20.9308 15.8746 20.9518C15.7914 21.0064 15.7473 21.0816 15.7423 21.1773C15.7419 21.1831 15.7401 21.1888 15.737 21.1938C15.734 21.1989 15.7297 21.2031 15.7246 21.2063C15.7104 21.2164 15.6936 21.2189 15.6742 21.2139C15.6532 21.2088 15.6419 21.1954 15.6402 21.1735L15.6339 21.1105C15.728 20.8182 15.8376 20.5339 15.9628 20.2575C16.8272 18.3523 19.0966 17.6 20.785 19.0075C20.9035 19.1058 21.0513 19.2612 21.2286 19.4737C21.363 19.635 21.5033 19.7984 21.6494 19.9639Z" fill="black"/>
<path d="M21.8145 18.7493L22.0552 18.7606C22.0997 18.7631 22.1363 18.782 22.1648 18.8173L22.9788 19.8027C23.0183 19.8514 23.0687 19.8808 23.13 19.8909C23.2182 19.906 23.2682 19.9551 23.28 20.0383C23.2833 20.0596 23.2929 20.0795 23.3074 20.0954C23.322 20.1113 23.3409 20.1226 23.3619 20.1278C23.4442 20.1488 23.5047 20.1937 23.5433 20.2626C23.5668 20.3046 23.6053 20.3354 23.6504 20.3483C23.881 20.4125 23.973 20.5902 24.2112 20.6457C24.4027 20.6902 24.5824 20.6948 24.7505 20.6595C24.7841 20.652 24.8084 20.6641 24.8235 20.6961L25.475 22.1098C25.5976 22.3585 25.7287 22.6134 25.8681 22.8747C26.0185 23.157 26.1382 23.4211 26.2272 23.6673C26.4532 24.2897 26.6855 24.9114 26.9241 25.5322C26.9367 25.5641 26.9388 25.5973 26.9304 25.6317C26.9228 25.6678 26.9115 25.7031 26.8963 25.7376C26.8283 26.1017 26.8459 26.5175 26.8144 26.8262C26.6347 28.5744 26.4658 30.3233 26.3079 32.0731C26.1353 33.9897 25.9009 35.9465 25.6438 37.8631C25.48 39.0854 25.3679 40.2383 25.0201 41.4278C24.7782 42.2557 24.3561 43.0999 23.6076 43.5208C22.7331 44.0122 21.8813 44.1508 20.8745 43.8156C20.0689 43.546 19.5036 43.0625 19.1785 42.3653C19.1415 42.3224 19.1193 42.2821 19.1117 42.2443L19.1533 42.1309C19.1667 42.0948 19.1915 42.07 19.2276 42.0566C19.2973 42.0305 19.3402 41.9238 19.3561 41.7365C19.357 41.7241 19.3553 41.7112 19.3511 41.6987C19.2234 41.3266 19.1617 40.941 19.1659 40.542C19.1684 40.3412 19.2041 40.1606 19.273 40.0002C19.3461 39.833 19.3998 39.6587 19.4343 39.4772C19.5939 38.649 19.7354 37.7946 19.8589 36.9143C19.9656 36.1557 20.0639 35.3085 20.1538 34.3727C20.4621 31.1722 20.7712 28.0279 21.0812 24.9399C21.3105 22.6491 21.4999 20.9905 21.6495 19.964L21.8145 18.7493Z" fill="black"/>
<path d="M29.7403 18.9318C29.4496 21.4679 29.1652 23.3945 28.8872 24.7117C28.8528 24.8764 28.7667 25.0696 28.6289 25.2914C28.4978 25.503 28.4168 25.7441 28.3857 26.0146C28.347 26.3498 28.3441 26.6909 28.3769 27.0378C28.4122 27.4175 28.5629 27.8085 28.8292 28.2109C29.072 28.5788 29.3719 28.901 29.7289 29.1774C29.8541 29.2748 29.9692 29.4042 30.0742 29.5655C28.3895 29.1761 27.4961 27.2659 26.9417 25.7538C26.94 25.7479 26.9362 25.7437 26.9303 25.7412C26.9194 25.7345 26.9081 25.7332 26.8963 25.7374C26.9114 25.703 26.9228 25.6677 26.9303 25.6316C26.9387 25.5971 26.9366 25.5639 26.924 25.532C26.6855 24.9112 26.4532 24.2896 26.2272 23.6671C26.1382 23.421 26.0185 23.1568 25.8681 22.8746C25.7287 22.6133 25.5976 22.3584 25.475 22.1097C25.4355 21.83 25.4611 21.5813 25.5518 21.3638C25.6619 21.0966 25.7181 20.9593 25.7207 20.9517C25.787 20.7442 25.8635 20.5405 25.95 20.3406C26.0315 20.1516 26.1495 19.9722 26.3041 19.8025C26.6031 19.4732 26.8152 19.262 26.9404 19.1687C27.1538 19.0074 27.4776 18.8806 27.9119 18.7882C28.2513 18.7159 28.7561 18.7424 29.4265 18.8676C29.4651 18.8751 29.4933 18.8961 29.5109 18.9306C29.5454 18.9995 29.6218 18.9999 29.7403 18.9318Z" fill="black"/>
<path d="M49.1351 19.1069C49.2317 19.2682 49.3081 19.432 49.3644 19.5984C49.4257 19.7806 49.4959 19.9256 49.5748 20.0331C49.6723 20.1641 49.7681 20.2956 49.8621 20.4275C49.8865 20.4611 49.8848 20.493 49.8571 20.5232C49.8344 20.5493 49.8269 20.5795 49.8344 20.614C49.8386 20.6375 49.8487 20.6576 49.8647 20.6744C49.9907 20.8114 50.12 20.9323 50.2528 21.0373C50.2838 21.0625 50.3074 21.0932 50.3233 21.1293C50.3947 21.2923 50.509 21.3923 50.6661 21.4292C50.7635 21.4519 50.8555 21.4893 50.942 21.5414C51.1327 21.6556 51.3583 21.7342 51.6187 21.777C51.6439 21.7804 51.6653 21.7913 51.6829 21.8098C51.6905 21.8173 51.6959 21.8261 51.6993 21.8362C51.7069 21.8564 51.7153 21.8568 51.7245 21.8375C51.7396 21.8064 51.764 21.793 51.7976 21.7972C51.9068 21.8114 52.0156 21.8156 52.1239 21.8098C52.5255 21.7871 52.9346 21.79 53.3512 21.8186V27.2734C53.2261 27.4624 53.148 27.732 53.1169 28.0823L53.0892 27.921C53.0774 27.8496 53.0602 27.848 53.0375 27.916C53.0224 27.9597 53.0005 28.0008 52.972 28.0395C52.9266 28.1017 52.8884 28.0974 52.8573 28.0269C52.8187 27.937 52.7561 27.9147 52.6696 27.9601C52.0454 28.2919 51.3797 28.5149 50.6724 28.6292C50.283 28.6922 49.973 28.5977 49.6001 28.4818C49.4564 28.4372 49.3262 28.3637 49.2094 28.2613C49.0364 28.1101 48.8617 27.9677 48.6852 27.8341C48.466 27.6678 48.2976 27.4536 48.18 27.1915C48.1153 27.0487 48.0183 26.9344 47.8889 26.8487C47.8553 26.8269 47.833 26.7966 47.8221 26.758C47.8019 26.6816 47.7646 26.611 47.71 26.5463C47.6276 26.4489 47.5793 26.3825 47.5651 26.3472C47.5357 26.2733 47.5142 26.1922 47.5008 26.104L47.6684 25.1729C47.7692 25.0704 47.8309 24.925 47.8536 24.7369C47.883 24.4874 47.899 24.3568 47.9015 24.345C48.2518 22.591 48.663 20.845 49.1351 19.1069Z" fill="black"/>
<path d="M19.1117 42.2442C19.1193 42.282 19.1415 42.3223 19.1785 42.3651C19.155 42.3609 19.134 42.3605 19.1155 42.3639C19.071 42.3723 19.047 42.3992 19.0437 42.4445C19.0159 42.8847 18.9219 43.5626 18.7614 44.4782C18.3867 46.6245 17.8815 48.5793 17.2456 50.3426L10.8344 50.34C10.7428 49.7999 10.7353 49.4534 10.8117 49.3005C10.9112 49.1001 10.9831 48.8229 11.2011 48.7259C11.2414 48.7078 11.2763 48.679 11.3019 48.6427C11.6992 48.0682 11.9781 47.5074 12.1385 46.9606C12.5653 45.5073 12.8954 43.9562 13.1289 42.3072C13.1499 42.1576 13.1306 41.9892 13.071 41.8019C13.1533 41.7557 13.1991 41.6494 13.2083 41.4831C13.215 41.3621 13.226 41.2458 13.2411 41.1341C13.5418 38.9298 13.8501 36.0955 14.166 32.6312C14.4801 29.1895 14.8157 26.1037 15.1728 23.3735C15.2568 22.7368 15.4105 21.9824 15.6339 21.1105L15.6402 21.1735C15.6419 21.1953 15.6533 21.2087 15.6743 21.2138C15.6936 21.2188 15.7104 21.2163 15.7247 21.2062C15.7297 21.2031 15.734 21.1988 15.7371 21.1937C15.7401 21.1887 15.7419 21.1831 15.7423 21.1772C15.7473 21.0815 15.7914 21.0063 15.8746 20.9517C15.9065 20.9307 15.9305 20.9378 15.9464 20.9731L16.0624 21.2201C16.0705 21.2366 16.0731 21.2552 16.0699 21.2734C16.0668 21.2915 16.0579 21.3081 16.0447 21.3209C16.0187 21.3469 16.0124 21.3759 16.0258 21.4078C16.0712 21.5149 16.0271 21.6724 15.983 21.7733C15.9679 21.8085 15.9624 21.8455 15.9666 21.8841C15.9868 22.0505 16.0414 22.1924 16.1304 22.31C16.2119 22.4184 16.2736 22.5537 16.3156 22.7158C16.4769 23.334 16.6004 23.9775 16.6861 24.6462C17.0112 27.1781 17.285 29.673 17.5076 32.1309C17.7756 35.0929 18.1175 37.8692 18.5333 40.4599C18.6115 40.9488 18.7765 41.4188 18.9303 41.8951C18.9714 42.022 19.0319 42.1383 19.1117 42.2442Z" fill="black"/>
<path d="M47.6685 25.1731L47.5009 26.1043C47.1573 28.2178 46.8314 30.3322 46.5231 32.4474C46.497 32.6247 46.4731 32.8019 46.4513 32.9792C46.269 34.4182 46.0737 35.853 45.8653 37.2835C45.6587 38.6822 45.4924 39.7474 45.3664 40.4791C45.3034 40.8403 45.2206 41.2435 45.1181 41.6887C45.0753 41.8744 45.0165 42.0503 44.9417 42.2167C44.8661 42.3872 44.7834 42.5619 44.6935 42.7409C44.629 42.8724 44.5982 43.0174 44.604 43.163L44.6494 44.1874C44.6519 44.2277 44.6422 44.2651 44.6204 44.2996C44.5734 44.376 44.5494 44.4545 44.5486 44.5352C44.5486 44.5444 44.5494 44.5444 44.5511 44.5352C44.5553 44.5125 44.5473 44.4848 44.5272 44.452C44.5129 44.4293 44.4889 44.4281 44.4553 44.4482C44.4041 44.276 44.3327 44.1353 44.2411 44.0261C44.1958 43.7707 44.1349 43.5133 44.0584 43.2537C43.9736 42.9647 43.9169 42.7031 43.8883 42.4687C43.8228 41.9445 43.7421 41.4039 43.6464 40.847C43.6388 40.8008 43.6157 40.7638 43.5771 40.7361L43.412 40.6177C43.3826 40.5967 43.3557 40.5992 43.3314 40.6252C43.2885 40.6706 43.2301 40.6958 43.1562 40.7008C43.1285 40.7025 43.1016 40.7071 43.0756 40.7147C43.0352 40.7256 43.0033 40.7155 42.9798 40.6844C42.9521 40.6483 42.9155 40.6328 42.8702 40.6378L41.813 40.7474C41.7968 40.749 41.7806 40.7457 41.7663 40.7381C41.7519 40.7305 41.7401 40.7188 41.7323 40.7046L41.6719 40.595C41.6467 40.5496 41.6084 40.5274 41.5572 40.5282C41.2901 40.5307 41.0213 40.5185 40.7508 40.4917C40.7155 40.4883 40.7008 40.4673 40.7067 40.4287C40.7091 40.4098 40.7061 40.3905 40.6978 40.3732C40.655 40.2858 40.5878 40.2443 40.4962 40.2485C40.4744 40.2493 40.4614 40.2388 40.4572 40.217C40.4202 40.0229 40.29 39.9502 40.0665 39.999C40.0128 40.0107 39.975 39.9914 39.9531 39.941C39.9111 39.8436 39.8498 39.7596 39.7692 39.689C39.7389 39.663 39.7188 39.6306 39.7087 39.592C39.6784 39.4773 39.6369 39.3904 39.5398 39.3173C39.3559 39.1787 39.1753 39.0926 38.998 39.059L39.5739 33.9356L39.7503 32.45C39.9762 30.5725 40.2085 28.7143 40.4471 26.8755C40.579 25.8565 40.7235 25.0148 40.8805 24.3503C41.0607 23.5842 41.3379 22.7967 41.9718 22.1175C42.9307 21.088 44.4062 20.9015 45.6461 21.5316C46.4286 21.9285 47.1808 23.0033 47.3459 23.8097C47.4896 24.5145 47.5971 24.969 47.6685 25.1731Z" fill="black"/>
<path d="M47.5008 26.104C47.5142 26.1922 47.5357 26.2733 47.5651 26.3472C47.5793 26.3825 47.6276 26.4488 47.71 26.5463C47.7646 26.611 47.8019 26.6815 47.8221 26.758C47.833 26.7966 47.8553 26.8269 47.8889 26.8487C48.0183 26.9344 48.1153 27.0486 48.18 27.1914C48.2976 27.4535 48.466 27.6677 48.6852 27.8341C48.8617 27.9676 49.0364 28.11 49.2094 28.2612C49.3262 28.3637 49.4564 28.4372 49.6 28.4817C49.973 28.5977 50.283 28.6922 50.6724 28.6292C51.3797 28.5149 52.0454 28.2919 52.6695 27.9601C52.7561 27.9147 52.8187 27.937 52.8573 28.0269C52.8884 28.0974 52.9266 28.1016 52.972 28.0395C53.0005 28.0008 53.0224 27.9596 53.0375 27.916C53.0602 27.8479 53.0774 27.8496 53.0892 27.921L53.1169 28.0823L51.625 38.7449C51.5922 38.7071 51.5897 38.6643 51.6174 38.6164C51.6308 38.5929 51.6279 38.5714 51.6086 38.5521C51.596 38.5395 51.5796 38.5357 51.5594 38.5408C51.5267 38.5483 51.5103 38.5689 51.5103 38.6025V38.7122C51.5103 38.7424 51.496 38.7621 51.4675 38.7714L51.2217 38.8545C51.1797 38.8688 51.1419 38.8902 51.1083 38.9188C50.8026 39.1809 50.4934 39.3741 50.1809 39.4984C49.85 39.6312 49.4753 39.7509 49.057 39.8575C48.826 39.9172 48.6248 39.9243 48.4534 39.879C48.1728 39.805 47.8956 39.6967 47.6218 39.5539C47.5495 39.5161 47.4836 39.469 47.4239 39.4127C47.3618 39.3539 47.2983 39.2968 47.2337 39.2414C46.8775 38.939 46.4969 38.5525 46.092 38.0821C46.0694 38.0561 46.0584 38.0258 46.0593 37.9914C46.0593 37.9696 46.0555 37.9498 46.0479 37.9322C46.0446 37.9263 46.04 37.9221 46.0341 37.9196C46.0248 37.9145 46.0148 37.912 46.0038 37.912C45.977 37.912 45.9648 37.8986 45.9673 37.8717C45.9875 37.6684 45.9534 37.4723 45.8652 37.2832C46.0736 35.8527 46.2689 34.4179 46.4512 32.9789C46.473 32.8016 46.4969 32.6244 46.523 32.4471C46.8313 30.3319 47.1572 28.2175 47.5008 26.104Z" fill="black"/>
<path d="M39.5738 33.9353L38.998 39.0587C38.8148 40.4381 38.6326 41.7939 38.4511 43.1262C38.3898 43.5798 38.1659 44.301 37.7795 45.2897C37.6972 45.5014 37.5838 45.6711 37.4393 45.7988C37.2368 45.9785 37.0541 46.1659 36.8912 46.3607C36.866 46.3918 36.8492 46.4271 36.8408 46.4666C36.813 46.5951 36.7072 46.6821 36.6719 46.7816C36.4837 47.3201 36.4745 47.8598 36.6442 48.4008C36.645 48.4033 36.7085 48.5348 36.8345 48.7952C36.9453 49.0262 36.9403 49.2538 36.8193 49.4781C36.4632 49.069 36.1939 48.6347 36.0116 48.1752C35.6504 47.2638 35.3871 46.3671 35.2216 45.485C35.0301 44.4606 34.8423 43.4513 34.7087 42.4155C34.4853 40.68 34.3181 38.9554 34.2072 37.2417C34.1367 36.148 34.0119 35.0492 33.93 33.9467C33.9796 33.8467 34.001 33.8984 33.9943 34.1016C33.9934 34.1201 33.9951 34.1201 33.9993 34.1016C34.0018 34.0916 34.0115 34.0874 34.0283 34.089C34.0342 34.0899 34.0384 34.0928 34.0409 34.0979C34.088 34.1877 34.1157 34.2814 34.1241 34.3789C34.1241 34.3805 34.1237 34.3818 34.1228 34.3826C34.0976 34.4036 34.0964 34.4036 34.119 34.3826C34.1199 34.3818 34.1203 34.381 34.1203 34.3801C34.1161 34.3045 34.1413 34.236 34.1959 34.1747C34.2127 34.1562 34.2333 34.1499 34.2576 34.1558C34.4996 34.2125 34.5323 33.963 34.7768 33.9756C34.8247 33.9782 34.8482 33.9551 34.8473 33.9063C34.8431 33.7837 34.902 33.7224 35.0238 33.7224C35.0691 33.7224 35.1023 33.7022 35.1233 33.6619C35.1317 33.6476 35.1325 33.6321 35.1258 33.6153C35.123 33.6078 35.122 33.5999 35.1229 33.592C35.1238 33.5841 35.1265 33.5765 35.1309 33.5699C35.1653 33.5136 35.2098 33.4914 35.2644 33.5031C35.2836 33.5072 35.3036 33.5051 35.3216 33.4972C35.3397 33.4893 35.3549 33.476 35.3652 33.459C35.427 33.3569 35.4711 33.2914 35.5971 33.2637C35.7374 33.2343 35.8781 33.2192 36.0192 33.2183C36.0755 33.2175 36.1091 33.1898 36.12 33.1352C36.1242 33.1108 36.1288 33.0865 36.1339 33.0621C36.1431 33.0117 36.1734 32.9861 36.2246 32.9852L37.6623 32.9588C37.7119 32.9579 37.7518 32.9772 37.782 33.0167L37.8979 33.1654C37.9181 33.1915 37.9442 33.2066 37.9761 33.2108L38.2986 33.2549C38.3474 33.2616 38.3713 33.2893 38.3705 33.338C38.3696 33.4321 38.4217 33.4821 38.5267 33.488C38.5528 33.4896 38.5781 33.5002 38.5985 33.5182C38.6338 33.551 38.6515 33.5905 38.6515 33.6367C38.6523 33.6736 38.6708 33.6955 38.7069 33.7022L39.371 33.8257C39.3861 33.8282 39.4004 33.8332 39.4138 33.8408C39.4373 33.8542 39.4474 33.8702 39.444 33.8887C39.4382 33.9181 39.439 33.9185 39.4466 33.8899C39.455 33.8597 39.4592 33.8463 39.4592 33.8496C39.4592 33.8547 39.4642 33.8622 39.4743 33.8723C39.5012 33.8975 39.5343 33.9185 39.5738 33.9353Z" fill="black"/>
<path d="M8.70362 36.0878C8.7179 39.6613 8.71622 43.2722 8.69858 46.9205C8.69774 47.0969 8.94345 48.2883 8.90397 48.9729C8.8082 48.6688 8.44867 47.6102 8.3571 47.3187C8.26638 47.0297 8.18699 46.739 8.11895 46.4467C7.8745 45.3966 7.62543 44.3378 7.37173 43.2701C7.36532 43.2426 7.34995 43.2181 7.32806 43.2003C7.30616 43.1825 7.27897 43.1725 7.25077 43.1718C4.98644 43.1075 3.85113 41.7265 3.28788 39.7192C3.03839 38.828 3.16062 37.998 3.65456 37.2294C4.09432 36.5452 5.03559 36.0374 5.86344 35.9504C6.16166 35.9193 6.47289 35.9529 6.79715 36.0512C7.12602 36.1508 7.40576 36.2868 7.76361 36.2566C8.09459 36.2297 8.40792 36.1734 8.70362 36.0878Z" fill="black"/>
<path d="M9.7789 36.5327C10.4427 36.7165 11.0471 36.7885 11.4616 37.3398C11.7809 37.7645 12.3817 39.0857 12.5834 39.5834C12.8456 40.2296 12.8094 40.9318 13.1443 42.3879C13.2057 42.5839 13.1575 42.791 13.1358 42.9475C12.8952 44.6735 12.5551 46.2971 12.1155 47.8183C11.9502 48.3907 11.6629 48.9776 11.2536 49.579C11.2272 49.617 11.1913 49.6471 11.1497 49.6661C10.9251 49.7676 10.8511 50.0578 10.7486 50.2675C10.6698 50.4275 10.6776 50.7902 10.772 51.3556L9.89443 51.3622C9.87932 51.3624 9.86433 51.3595 9.85032 51.3538C9.83631 51.348 9.82356 51.3395 9.81282 51.3287C9.80207 51.3179 9.79354 51.305 9.78772 51.2909C9.7819 51.2767 9.7789 51.2615 9.7789 51.2461L9.7789 36.5327Z" fill="black"/>
<path d="M45.8652 37.2834C45.9534 37.4725 45.9875 37.6686 45.9673 37.8719C45.9648 37.8988 45.977 37.9122 46.0038 37.9122C46.0148 37.9122 46.0248 37.9147 46.0341 37.9198C46.04 37.9223 46.0446 37.9265 46.0479 37.9324C46.0555 37.95 46.0593 37.9698 46.0593 37.9916C46.0584 38.026 46.0694 38.0563 46.092 38.0823C46.4969 38.5527 46.8775 38.9392 47.2337 39.2416C47.2983 39.297 47.3618 39.3541 47.4239 39.4129C47.4836 39.4692 47.5495 39.5163 47.6218 39.5541C47.8956 39.6969 48.1728 39.8052 48.4534 39.8792C48.6248 39.9245 48.826 39.9174 49.057 39.8577C49.4753 39.7511 49.85 39.6314 50.1809 39.4986C50.4934 39.3743 50.8026 39.1811 51.1083 38.919C51.1419 38.8904 51.1797 38.869 51.2217 38.8547L51.4675 38.7716C51.496 38.7623 51.5103 38.7426 51.5103 38.7124V38.6027C51.5103 38.5691 51.5267 38.5485 51.5594 38.541C51.5796 38.5359 51.596 38.5397 51.6086 38.5523C51.6279 38.5716 51.6308 38.5931 51.6174 38.6166C51.5897 38.6645 51.5922 38.7073 51.625 38.7451C51.3822 40.4252 51.1184 41.8953 50.8336 43.1553C50.6547 43.9504 50.2351 44.9862 49.6467 45.5948C47.9859 47.311 45.2339 46.7049 44.4552 44.4481C44.4888 44.428 44.5128 44.4292 44.5271 44.4519C44.5472 44.4847 44.5552 44.5124 44.551 44.5351C44.5493 44.5443 44.5485 44.5443 44.5485 44.5351C44.5493 44.4544 44.5733 44.3759 44.6203 44.2995C44.6421 44.265 44.6518 44.2276 44.6493 44.1873L44.6039 43.1629C44.5981 43.0173 44.6289 42.8723 44.6934 42.7408C44.7833 42.5618 44.866 42.3871 44.9416 42.2166C45.0164 42.0502 45.0752 41.8743 45.118 41.6886C45.2205 41.2434 45.3032 40.8402 45.3663 40.479C45.4923 39.7473 45.6586 38.6821 45.8652 37.2834Z" fill="black"/>
<path d="M44.2411 44.0257C44.0663 45.1716 43.7429 46.3203 43.2708 47.472C43.0331 48.0508 42.7945 48.5342 42.5551 48.9223C42.2023 49.4936 41.6983 49.9678 41.043 50.3449L37.8765 50.3437C37.4355 50.0639 37.0831 49.7754 36.8193 49.478C36.9403 49.2537 36.9453 49.0261 36.8344 48.7951C36.7084 48.5347 36.645 48.4032 36.6442 48.4007C36.4745 47.8597 36.4837 47.32 36.6719 46.7815C36.7072 46.6819 36.813 46.595 36.8407 46.4665C36.8491 46.427 36.8659 46.3917 36.8911 46.3606C37.0541 46.1657 37.2368 45.9784 37.4393 45.7986C37.5837 45.671 37.6972 45.5013 37.7795 45.2896C38.1659 44.3009 38.3898 43.5797 38.4511 43.1261C38.6325 41.7938 38.8148 40.4379 38.9979 39.0586C39.1752 39.0922 39.3558 39.1783 39.5398 39.3169C39.6368 39.39 39.6784 39.4769 39.7086 39.5916C39.7187 39.6302 39.7389 39.6626 39.7691 39.6886C39.8498 39.7592 39.9111 39.8432 39.9531 39.9406C39.9749 39.991 40.0127 40.0104 40.0665 39.9986C40.2899 39.9499 40.4201 40.0225 40.4571 40.2166C40.4613 40.2384 40.4743 40.2489 40.4962 40.2481C40.5877 40.2439 40.6549 40.2855 40.6978 40.3728C40.706 40.3901 40.7091 40.4094 40.7066 40.4283C40.7007 40.4669 40.7154 40.4879 40.7507 40.4913C41.0212 40.5182 41.29 40.5303 41.5571 40.5278C41.6084 40.527 41.6466 40.5492 41.6718 40.5946L41.7323 40.7042C41.7401 40.7185 41.7519 40.7301 41.7662 40.7377C41.7805 40.7453 41.7968 40.7486 41.8129 40.7471L42.8701 40.6374C42.9155 40.6324 42.952 40.6479 42.9797 40.6841C43.0033 40.7152 43.0352 40.7252 43.0755 40.7143C43.1015 40.7067 43.1284 40.7021 43.1561 40.7005C43.2301 40.6954 43.2885 40.6702 43.3313 40.6248C43.3557 40.5988 43.3825 40.5963 43.4119 40.6173L43.577 40.7357C43.6156 40.7635 43.6387 40.8004 43.6463 40.8466C43.7421 41.4036 43.8227 41.9441 43.8882 42.4683C43.9168 42.7027 43.9735 42.9644 44.0583 43.2533C44.1348 43.5129 44.1957 43.7704 44.2411 44.0257Z" fill="black"/>
<path d="M16.4869 51.5432C16.2601 51.9027 15.9947 52.2182 15.6906 52.4895C13.9845 54.0104 11.6735 53.7508 10.1463 52.1191C10.0699 52.0376 9.99973 51.9443 9.93589 51.8393C9.87457 51.7377 9.81031 51.6407 9.7431 51.5483L16.4869 51.5432Z" fill="black"/>
<path d="M54.5559 10.0507L54.547 15.5269L54.5546 21.7466L54.5256 51.5571C54.5256 51.5671 54.5215 51.5767 54.5142 51.5838C54.5068 51.5909 54.4969 51.5949 54.4865 51.5949L16.5008 51.5974L9.75699 51.6024L8.79682 51.586C8.75482 51.5852 8.73382 51.5638 8.73382 51.5218C8.72962 50.6994 8.72794 49.8824 8.72878 49.071C8.72878 48.8526 8.70316 48.5842 8.65192 48.2658C8.6914 47.5812 8.71156 47.1506 8.7124 46.9742C8.73004 43.3259 8.73172 39.715 8.71744 36.1415L8.72878 5.93916C8.72878 5.90708 8.74152 5.87631 8.76421 5.85362C8.7869 5.83094 8.81766 5.81819 8.84975 5.81819L54.4122 5.81567C54.4483 5.81567 54.4829 5.83001 54.5084 5.85553C54.534 5.88105 54.5483 5.91567 54.5483 5.95176L54.5559 10.0507ZM9.88677 36.4679L9.88425 50.2894C9.88425 50.3041 9.88716 50.3186 9.89281 50.3322C9.89846 50.3457 9.90675 50.358 9.91718 50.3683C9.92761 50.3786 9.93998 50.3868 9.95358 50.3923C9.96718 50.3978 9.98173 50.4005 9.9964 50.4003L10.8482 50.394L17.2594 50.3965L37.8903 50.3978L41.0568 50.3991L53.3323 50.4028C53.3441 50.4028 53.35 50.3974 53.35 50.3865L53.3651 27.3274V21.8726L53.3601 10.5472L53.3638 7.02533C53.3638 7.0123 53.3588 6.9998 53.3498 6.99058C53.3408 6.98137 53.3287 6.97619 53.316 6.97619L36.8785 6.99257L35.689 6.99383L31.9869 6.97745L9.89559 6.97997C9.88891 6.97997 9.8825 6.98262 9.87777 6.98735C9.87305 6.99208 9.87039 6.99848 9.87039 7.00517L9.88677 36.4679Z" fill="black" stroke="black" stroke-width="1.20192"/>
<path d="M11.2225 59.5296C11.0839 59.9429 11.2456 60.2054 11.7076 60.3171C12.089 60.4095 12.4607 60.491 12.8228 60.5616C13.9492 60.7846 14.8023 61.4109 14.5213 62.7251C14.2227 64.1238 12.2041 64.2057 11.1393 63.9045C10.2195 63.6433 9.74359 63.0405 9.71167 62.0963C9.71167 62.0804 9.71923 62.0724 9.73435 62.0724L10.8961 62.0548C10.9146 62.0548 10.9255 62.064 10.9289 62.0825C11.1229 63.0704 11.9193 63.3388 12.7963 63.0842C13.3054 62.9368 13.5511 62.3295 13.1126 61.9489C12.7245 61.6125 11.8575 61.4814 11.3321 61.363C10.6492 61.2093 9.87548 60.641 9.91328 59.8623C9.9914 58.2532 11.792 57.8625 13.0836 58.2557C13.8757 58.4976 14.3096 59.026 14.3852 59.8408C14.3919 59.9114 14.3596 59.9475 14.2882 59.9492L13.3117 59.9656C13.2774 59.9662 13.2438 59.9551 13.2166 59.9341C13.1893 59.913 13.17 59.8832 13.1617 59.8497C13.05 59.3784 12.745 59.1255 12.2469 59.0911C11.8487 59.0621 11.3661 59.1037 11.2225 59.5296Z" fill="black"/>
<path d="M20.305 63.2241C20.2982 63.2347 20.2936 63.2465 20.2914 63.2589C20.2892 63.2712 20.2894 63.2839 20.2921 63.2962C20.2948 63.3085 20.2999 63.3202 20.3071 63.3305C20.3142 63.3408 20.3234 63.3496 20.334 63.3564L20.7712 63.6386C20.9527 63.7554 20.9657 63.8885 20.8103 64.0381L20.5457 64.2939C20.4323 64.4031 20.3184 64.4031 20.2042 64.2939L19.6674 63.7798C19.6338 63.7478 19.5964 63.742 19.5553 63.7621C18.811 64.1149 18.0025 64.1552 17.1297 63.8831C15.4475 63.3589 15.0342 61.2974 15.6075 59.8282C16.0813 58.616 17.2166 58.0074 18.5031 58.1221C19.4192 58.2027 20.2105 58.7055 20.6364 59.5485C21.1354 60.5347 21.1589 61.5369 20.707 62.555C20.6011 62.7944 20.4449 63.0048 20.305 63.2241ZM18.2562 62.366L18.6556 61.9212C18.6721 61.9028 18.6926 61.8885 18.7155 61.8793C18.7384 61.8701 18.7632 61.8662 18.7879 61.8679C18.8126 61.8696 18.8367 61.8768 18.8583 61.8891C18.8799 61.9014 18.8985 61.9184 18.9126 61.9388C19.0353 62.1169 19.1857 62.2463 19.3637 62.3269C19.382 62.3354 19.4018 62.3399 19.4219 62.3402C19.442 62.3405 19.4619 62.3365 19.4803 62.3285C19.4988 62.3206 19.5153 62.3088 19.5289 62.2939C19.5425 62.2791 19.5528 62.2616 19.5591 62.2425C19.9144 61.1828 19.8627 59.5775 18.5976 59.2183C17.5493 58.9197 16.734 59.7362 16.6634 60.767C16.5841 61.9249 16.8852 62.9998 18.2373 63.0981C18.349 63.1065 18.4561 63.0922 18.5586 63.0552C18.5724 63.0501 18.5847 63.0416 18.5944 63.0305C18.6041 63.0195 18.611 63.0062 18.6143 62.9919C18.6177 62.9775 18.6175 62.9626 18.6137 62.9484C18.6099 62.9341 18.6026 62.9211 18.5926 62.9103L18.2574 62.5562C18.1986 62.4932 18.1982 62.4298 18.2562 62.366Z" fill="black"/>
<path d="M34.9746 61.7952L33.9288 61.799C33.8162 61.7999 33.7603 61.744 33.7612 61.6314L33.7649 61.0455C33.7658 60.9271 33.825 60.8678 33.9426 60.8678L36.0595 60.8615C36.0724 60.8614 36.0851 60.8638 36.097 60.8686C36.1089 60.8734 36.1198 60.8805 36.1289 60.8895C36.1381 60.8985 36.1453 60.9093 36.1503 60.9211C36.1552 60.933 36.1578 60.9457 36.1578 60.9586L36.1603 63.8202C36.1603 63.8369 36.157 63.8535 36.1504 63.869C36.1439 63.8844 36.1343 63.8984 36.1222 63.9102C36.1101 63.9219 36.0957 63.9311 36.08 63.9373C36.0643 63.9435 36.0475 63.9465 36.0305 63.9462L35.4887 63.9348C35.4291 63.9331 35.3892 63.9046 35.369 63.8491L35.2506 63.5177C35.2439 63.4999 35.2328 63.484 35.2184 63.4716C35.204 63.4591 35.1867 63.4506 35.1682 63.4467C35.1497 63.4428 35.1305 63.4436 35.1125 63.4492C35.0945 63.4549 35.0783 63.465 35.0653 63.4787C34.3836 64.1944 33.3705 64.1654 32.486 63.8416C30.771 63.2115 30.4144 60.8767 31.2612 59.4528C31.8106 58.5304 32.6536 58.0831 33.7901 58.1108C34.8625 58.1386 36.0053 58.9261 36.0381 60.0929C36.0384 60.1028 36.0368 60.1127 36.0332 60.1219C36.0296 60.1312 36.0241 60.1396 36.0172 60.1467C36.0102 60.1537 36.0019 60.1593 35.9927 60.1631C35.9835 60.1668 35.9737 60.1687 35.9637 60.1685L35.0225 60.1559C34.9536 60.1551 34.9061 60.1227 34.8801 60.0589C34.6054 59.3759 34.0308 59.0143 33.2735 59.2146C31.8774 59.5838 31.7552 61.9616 32.7519 62.7592C33.6289 63.4623 34.8095 63.0314 35.0578 61.8986C35.0604 61.8861 35.0602 61.8733 35.0572 61.861C35.0543 61.8486 35.0486 61.8371 35.0407 61.8272C35.0327 61.8173 35.0227 61.8093 35.0112 61.8038C34.9998 61.7983 34.9873 61.7953 34.9746 61.7952Z" fill="black"/>
<path d="M41.5131 63.4066C40.7532 64.3328 39.318 64.1589 38.4171 63.6083C37.9147 63.3016 37.5661 62.7817 37.3712 62.0483C37.1402 61.1747 37.2255 60.3338 37.627 59.5257C38.2218 58.3311 39.6305 57.8737 40.8251 58.2215C41.7441 58.4886 42.2976 59.0951 42.4858 60.041C42.5018 60.1192 42.4699 60.1586 42.3901 60.1595L41.4122 60.1645C41.3677 60.1645 41.3345 60.1456 41.3127 60.1078C41.2732 60.0406 41.2363 59.9709 41.2018 59.8986C40.8175 59.0796 39.846 58.9435 39.1656 59.474C38.465 60.0184 38.4486 60.8626 38.5469 61.6804C38.6376 62.4288 39.2311 63.0337 39.977 63.079C40.7331 63.1244 41.3266 62.6922 41.3845 61.8984C41.3904 61.8152 41.3513 61.7749 41.2673 61.7774L40.3135 61.8051C40.2253 61.8076 40.1812 61.7652 40.1812 61.6778L40.1799 60.9924C40.1799 60.9075 40.2223 60.8651 40.3072 60.8651L42.4846 60.8639C42.5093 60.8639 42.533 60.8737 42.5505 60.8912C42.568 60.9086 42.5778 60.9324 42.5778 60.9571L42.5791 63.8263C42.5791 63.8918 42.5467 63.9254 42.482 63.9271L41.91 63.9472C41.8554 63.9489 41.8184 63.9245 41.7991 63.8741L41.6227 63.423C41.5958 63.355 41.5593 63.3495 41.5131 63.4066Z" fill="black"/>
<path d="M23.3959 61.8403C23.3908 62.7891 23.9957 63.152 24.8802 63.0613C25.446 63.0021 25.7535 62.5674 25.7572 62.0155C25.764 60.8865 25.7686 59.676 25.7711 58.384C25.7711 58.2907 25.8177 58.2445 25.911 58.2454L26.9883 58.2592C26.9991 58.2594 27.0097 58.2617 27.0196 58.2659C27.0294 58.2702 27.0384 58.2764 27.0459 58.2841C27.0534 58.2918 27.0592 58.301 27.0632 58.311C27.0672 58.321 27.0691 58.3316 27.069 58.3424C27.0622 59.5109 27.0635 60.6869 27.0727 61.8706C27.079 62.7702 26.6531 63.5842 25.7724 63.8677C25.0533 64.1013 24.3229 64.1206 23.5811 63.9257C22.5101 63.6447 22.1459 62.8244 22.1409 61.8076C22.1367 60.6911 22.1358 59.5348 22.1383 58.3386C22.1387 58.3144 22.1484 58.2914 22.1654 58.2744C22.1823 58.2574 22.2052 58.2479 22.2291 58.2479L23.2737 58.2466C23.3509 58.2466 23.39 58.2853 23.3908 58.3626C23.3992 59.4907 23.4009 60.65 23.3959 61.8403Z" fill="black"/>
<path d="M29.5955 58.2472L28.5093 58.2491C28.4557 58.2492 28.4123 58.2927 28.4124 58.3463L28.422 63.8326C28.4221 63.8862 28.4656 63.9295 28.5192 63.9294L29.6054 63.9275C29.659 63.9274 29.7023 63.8839 29.7022 63.8303L29.6926 58.3441C29.6926 58.2905 29.649 58.2471 29.5955 58.2472Z" fill="black"/>
<path d="M45.2365 62.9265L47.8411 62.9718C47.8675 62.9722 47.8927 62.9827 47.9115 63.0013C47.9303 63.0198 47.9412 63.045 47.9419 63.0714L47.962 63.8161C47.9624 63.8297 47.96 63.8432 47.955 63.8559C47.95 63.8686 47.9425 63.8801 47.933 63.8899C47.9235 63.8996 47.9122 63.9074 47.8996 63.9127C47.8871 63.9179 47.8736 63.9207 47.86 63.9207L43.9765 63.927C43.9494 63.927 43.9234 63.9162 43.9043 63.8971C43.8851 63.8779 43.8744 63.852 43.8744 63.8249L43.8832 58.3474C43.8832 58.3204 43.894 58.2944 43.9131 58.2753C43.9322 58.2561 43.9582 58.2454 43.9853 58.2454L45.0399 58.2517C45.067 58.2517 45.093 58.2624 45.1121 58.2816C45.1313 58.3007 45.142 58.3267 45.142 58.3537L45.1357 62.8244C45.1357 62.8513 45.1463 62.877 45.1652 62.8961C45.184 62.9152 45.2097 62.9261 45.2365 62.9265Z" fill="black"/>
<path d="M50.2125 61.5631L50.2011 62.8206C50.201 62.8345 50.2035 62.8483 50.2087 62.8612C50.2139 62.8741 50.2215 62.8859 50.2312 62.8958C50.2409 62.9058 50.2525 62.9137 50.2653 62.9192C50.2781 62.9247 50.2918 62.9276 50.3057 62.9277L53.2127 62.9454C53.2405 62.9457 53.2671 62.957 53.2867 62.9768C53.3063 62.9966 53.3173 63.0234 53.3172 63.0512L53.3223 63.8148C53.3223 63.8429 53.3111 63.8698 53.2913 63.8897C53.2714 63.9095 53.2445 63.9207 53.2164 63.9207L49.052 63.9257C49.0239 63.9257 48.997 63.9146 48.9771 63.8947C48.9573 63.8749 48.9461 63.8479 48.9461 63.8199L48.9486 58.3512C48.9486 58.3231 48.9598 58.2962 48.9796 58.2764C48.9995 58.2565 49.0264 58.2454 49.0545 58.2454L53.1597 58.2592C53.1878 58.2592 53.2147 58.2704 53.2346 58.2902C53.2544 58.3101 53.2656 58.337 53.2656 58.3651L53.2618 59.1791C53.2618 59.2069 53.2508 59.2337 53.2313 59.2535C53.2117 59.2733 53.1851 59.2846 53.1572 59.2849L50.3082 59.3076C50.2942 59.3076 50.2804 59.3104 50.2674 59.3158C50.2545 59.3212 50.2428 59.3291 50.2329 59.339C50.2231 59.349 50.2153 59.3608 50.2101 59.3738C50.2048 59.3868 50.2022 59.4007 50.2024 59.4147L50.2074 60.4051C50.2078 60.4327 50.2189 60.4591 50.2384 60.4787C50.258 60.4982 50.2844 60.5094 50.312 60.5097L52.8939 60.5248C52.9217 60.5248 52.9485 60.5358 52.9683 60.5554C52.9881 60.5749 52.9994 60.6015 52.9997 60.6294L53.0073 61.3527C53.0074 61.3667 53.0048 61.3806 52.9996 61.3936C52.9943 61.4065 52.9866 61.4184 52.9767 61.4283C52.9669 61.4383 52.9552 61.4462 52.9422 61.4516C52.9293 61.457 52.9154 61.4598 52.9014 61.4598L50.3183 61.4585C50.2905 61.4585 50.2637 61.4695 50.2439 61.4891C50.2241 61.5086 50.2128 61.5352 50.2125 61.5631Z" fill="black"/>
<path d="M49.4451 71.6298C47.9998 70.5323 47.8687 68.2314 49.1036 66.9248C50.0045 65.9709 51.6136 65.8688 52.7124 66.5757C53.2517 66.9227 53.6154 67.4737 53.8036 68.2289C54.3228 70.3143 53.1081 72.3355 50.7959 72.0961C50.2263 72.0364 49.776 71.881 49.4451 71.6298ZM51.1247 71.1157C51.5481 71.1157 51.9542 70.9068 52.2536 70.5348C52.553 70.1629 52.7212 69.6584 52.7212 69.1324C52.7212 68.6064 52.553 68.1019 52.2536 67.73C51.9542 67.358 51.5481 67.1491 51.1247 67.1491C50.7013 67.1491 50.2952 67.358 49.9958 67.73C49.6964 68.1019 49.5282 68.6064 49.5282 69.1324C49.5282 69.6584 49.6964 70.1629 49.9958 70.5348C50.2952 70.9068 50.7013 71.1157 51.1247 71.1157Z" fill="black"/>
<path d="M9.78597 66.3449C9.7863 66.3184 9.79707 66.2931 9.81593 66.2744C9.8348 66.2558 9.86025 66.2454 9.88677 66.2454L12.3628 66.2491C12.6919 66.2498 13.0177 66.3167 13.3215 66.446C13.6254 66.5752 13.9013 66.7644 14.1335 67.0026C14.3658 67.2408 14.5498 67.5235 14.6752 67.8344C14.8005 68.1453 14.8647 68.4784 14.864 68.8146V69.4396C14.8626 70.1187 14.5973 70.7694 14.1263 71.2486C13.6554 71.7278 13.0174 71.9963 12.3527 71.995L9.87669 71.9912C9.86335 71.9912 9.85014 71.9886 9.83782 71.9834C9.82551 71.9783 9.81434 71.9708 9.80496 71.9613C9.79559 71.9518 9.78819 71.9405 9.78319 71.9281C9.7782 71.9158 9.77572 71.9025 9.77589 71.8892L9.78597 66.3449ZM11.0485 67.4323L11.0435 70.8421C11.0435 70.8736 11.0559 70.9038 11.0781 70.9263C11.1003 70.9487 11.1304 70.9614 11.162 70.9618L12.0679 70.9643C12.2693 70.9648 12.4687 70.9249 12.6549 70.8471C12.841 70.7692 13.0103 70.6547 13.1529 70.5103C13.2956 70.3659 13.4088 70.1944 13.4862 70.0055C13.5636 69.8166 13.6036 69.614 13.6039 69.4094V68.8751C13.6046 68.4623 13.444 68.066 13.1574 67.7735C12.8708 67.481 12.4817 67.3162 12.0755 67.3152L11.1695 67.3126C11.1537 67.3125 11.138 67.3154 11.1233 67.3214C11.1086 67.3273 11.0953 67.3361 11.0841 67.3472C11.0728 67.3584 11.0639 67.3716 11.0578 67.3862C11.0517 67.4008 11.0485 67.4165 11.0485 67.4323Z" fill="black"/>
<path d="M32.5364 70.7175L30.5934 70.7062C30.5568 70.7062 30.5211 70.7178 30.4914 70.7393C30.4618 70.7608 30.4397 70.7911 30.4283 70.8259L30.0982 71.8415C30.0863 71.877 30.064 71.908 30.0343 71.9303C30.0045 71.9526 29.9688 71.9652 29.9318 71.9662L28.9616 71.994C28.8658 71.9965 28.8305 71.9511 28.8557 71.8579C29.0876 70.9935 29.4681 70.2085 29.7718 69.3781C30.1406 68.3725 30.5173 67.3532 30.9021 66.3199C30.9206 66.2712 30.9558 66.2468 31.0079 66.2468L32.1861 66.2531C32.2063 66.2532 32.226 66.2595 32.2423 66.2713C32.2586 66.2831 32.2707 66.2996 32.2768 66.3187C32.901 68.1441 33.5482 69.8636 34.2186 71.4773C34.2765 71.6176 34.303 71.7634 34.2979 71.9146C34.2963 71.9583 34.2736 71.9801 34.2299 71.9801L33.1727 71.9776C33.1377 71.9776 33.1035 71.9666 33.0752 71.946C33.0469 71.9253 33.0259 71.8963 33.0152 71.8629L32.6813 70.8234C32.6586 70.7528 32.6103 70.7175 32.5364 70.7175ZM30.8038 69.7561C30.8015 69.762 30.8008 69.7684 30.8015 69.7747C30.8023 69.7809 30.8046 69.7869 30.8082 69.7921C30.8118 69.7974 30.8166 69.8016 30.8222 69.8045C30.8278 69.8075 30.834 69.809 30.8403 69.809L32.2718 69.8241C32.2782 69.8243 32.2846 69.823 32.2904 69.8201C32.2961 69.8173 32.3011 69.813 32.3048 69.8078C32.3086 69.8026 32.311 69.7965 32.3118 69.7901C32.3126 69.7837 32.3119 69.7772 32.3096 69.7712L31.614 67.8093C31.6113 67.8018 31.6065 67.7953 31.6 67.7907C31.5936 67.7861 31.5858 67.7835 31.5779 67.7834C31.57 67.7833 31.5622 67.7856 31.5556 67.79C31.549 67.7944 31.5439 67.8007 31.5409 67.808L30.8038 69.7561Z" fill="black"/>
</svg>
