<svg width="229" height="77" viewBox="0 0 229 77" fill="none" xmlns="http://www.w3.org/2000/svg">
<path fill-rule="evenodd" clip-rule="evenodd" d="M77.7351 47.7285C77.7307 47.7246 77.7253 47.722 77.7196 47.7209C77.7139 47.7198 77.7079 47.7203 77.7024 47.7223C77.7005 47.723 77.6986 47.7239 77.6968 47.725C77.6936 47.7269 77.6908 47.7293 77.6884 47.7322C77.6847 47.7368 77.6823 47.7422 77.6814 47.748L77.1104 51.444C77.1017 51.5004 77.0692 51.5286 77.0128 51.5286L71.9665 51.527C71.9058 51.527 71.8754 51.4966 71.8754 51.4359L71.8738 16.2097C71.8738 16.1903 71.8813 16.1716 71.8948 16.1579C71.9082 16.1442 71.9264 16.1365 71.9454 16.1365L77.9937 16.1397C78.0501 16.1397 78.0783 16.1679 78.0783 16.2243L78.0751 30.7644C78.0751 30.8968 78.1022 30.9027 78.1564 30.7823C78.2215 30.637 78.3088 30.496 78.4183 30.3594C80.0755 28.2825 82.1887 27.0782 84.7579 26.7463C88.5873 26.2534 92.1613 28.0575 94.351 31.2281C95.6253 33.0718 96.3817 35.1828 96.6203 37.5611C96.7515 38.8604 96.751 40.0821 96.6187 41.2262C96.2435 44.4711 94.9876 47.1271 92.8511 49.1942C88.449 53.4515 81.5905 53.1456 77.9384 48.0506C77.9089 48.0091 77.8876 47.9652 77.8665 47.9217L77.8665 47.9216C77.833 47.8525 77.8 47.7844 77.7351 47.7285ZM78.9291 35.4609C77.9205 37.399 77.7053 39.4807 78.2833 41.7061C78.5566 42.7603 79.0381 43.6805 79.7279 44.4668C81.7272 46.7443 85.0116 47.164 87.5754 45.5063C91.2991 43.0987 91.4212 36.8242 88.3254 33.8846C87.3407 32.9497 86.1688 32.42 84.8099 32.2952C83.6527 32.189 82.5932 32.3679 81.6312 32.8321C80.4447 33.4025 79.5441 34.2788 78.9291 35.4609ZM120.376 16.1415H114.334C114.311 16.1415 114.292 16.1604 114.292 16.1838V51.4848C114.292 51.5082 114.311 51.5271 114.334 51.5271H120.376C120.399 51.5271 120.418 51.5082 120.418 51.4848V16.1838C120.418 16.1604 120.399 16.1415 120.376 16.1415ZM108.264 19.9349C108.228 21.8257 106.646 23.3288 104.731 23.292C102.816 23.2552 101.293 21.6926 101.329 19.8017C101.365 17.9108 102.947 16.4078 104.862 16.4446C106.777 16.4813 108.3 18.044 108.264 19.9349ZM129.947 23.2903C131.863 23.2535 133.387 21.6915 133.351 19.8015C133.314 17.9116 131.732 16.4093 129.816 16.446C127.9 16.4828 126.376 18.0448 126.412 19.9348C126.448 21.8247 128.031 23.3271 129.947 23.2903ZM228.758 19.8214C228.785 21.7116 227.253 23.2655 225.336 23.2923C223.42 23.3191 221.845 21.8085 221.819 19.9183C221.793 18.0282 223.325 16.4742 225.241 16.4475C227.157 16.4207 228.732 17.9313 228.758 19.8214ZM24.9608 32.396L21.5836 32.4041C21.5633 32.4041 21.5439 32.3961 21.5295 32.3817C21.5152 32.3674 21.5071 32.3479 21.5071 32.3277L21.5039 27.2879C21.5039 27.2672 21.5119 27.2473 21.5263 27.2327C21.5406 27.218 21.5601 27.2098 21.5804 27.2098L25.0063 27.2196C25.0171 27.2196 25.0275 27.2153 25.0351 27.2077C25.0427 27.2 25.047 27.1897 25.047 27.1789L25.0454 21.6885C25.0454 21.6213 25.079 21.5877 25.1462 21.5877L30.9815 21.5926C30.9979 21.5926 31.0136 21.5991 31.0252 21.6107C31.0368 21.6223 31.0433 21.638 31.0433 21.6544L31.0238 27.1431C31.0238 27.2082 31.0563 27.2407 31.1214 27.2407L37.5163 27.2245C37.5408 27.2245 37.5644 27.2342 37.5818 27.2516C37.5992 27.269 37.609 27.2926 37.609 27.3172V32.326C37.609 32.3476 37.6004 32.3683 37.5852 32.3835C37.5699 32.3988 37.5492 32.4074 37.5276 32.4074L31.1344 32.3895C31.0639 32.3895 31.0292 32.4247 31.0303 32.4952C31.0498 35.2943 31.0476 38.3093 31.0238 41.5401C31.0162 42.6311 31.1116 43.4521 31.3101 44.003C32.2878 46.7035 35.5348 46.8727 37.8969 46.3781C37.9168 46.374 37.9373 46.3744 37.9569 46.3792C37.9766 46.384 37.995 46.3931 38.0107 46.4059C38.0264 46.4186 38.0391 46.4347 38.0479 46.453C38.0566 46.4713 38.0612 46.4913 38.0612 46.5115V51.5692C38.0612 51.6331 38.0303 51.6716 37.9685 51.6847C33.355 52.6184 27.972 51.8376 25.9011 47.0321C25.4629 46.017 25.1837 44.8929 25.0633 43.6598C25.0373 43.3886 25.0204 42.3036 25.0128 40.4046C25.0031 37.8115 25.0074 35.1642 25.0259 32.4627C25.0269 32.4182 25.0053 32.396 24.9608 32.396ZM140.662 21.7147V27.1302C140.662 27.1888 140.633 27.2181 140.574 27.2181L137.212 27.2116C137.197 27.2114 137.183 27.214 137.17 27.2194C137.157 27.2248 137.145 27.2328 137.135 27.2429C137.125 27.2531 137.116 27.2651 137.111 27.2785C137.105 27.2918 137.103 27.3061 137.103 27.3206L137.104 32.2985C137.104 32.3712 137.141 32.4075 137.213 32.4075L140.584 32.401C140.63 32.401 140.652 32.4243 140.652 32.4709C140.658 35.8145 140.656 39.138 140.647 42.4415C140.644 43.9657 140.844 45.4136 141.401 46.7866C142.663 49.9035 145.341 51.5823 148.615 51.9304C150.296 52.1105 151.955 52.0242 153.592 51.6718C153.65 51.6588 153.679 51.6219 153.679 51.5612L153.676 46.6011C153.676 46.4081 153.582 46.3338 153.395 46.3782C151.69 46.7752 149.567 46.7329 148.114 45.6527C147.218 44.9874 146.839 44.0324 146.673 42.9246C146.632 42.6535 146.612 42.3813 146.613 42.108C146.627 38.9564 146.627 35.7511 146.614 32.4921C146.614 32.4259 146.647 32.3929 146.714 32.3929L153.156 32.3994C153.166 32.3994 153.176 32.3973 153.185 32.3934C153.189 32.3917 153.193 32.3897 153.196 32.3873C153.201 32.3842 153.206 32.3806 153.21 32.3765C153.217 32.3692 153.222 32.3606 153.226 32.3512C153.23 32.3417 153.232 32.3315 153.232 32.3213L153.234 27.3189C153.234 27.2571 153.203 27.2262 153.143 27.2262L146.712 27.2409C146.653 27.2409 146.624 27.211 146.623 27.1514L146.608 21.6334C146.607 21.6041 146.592 21.5894 146.562 21.5894L140.784 21.5911C140.703 21.5911 140.662 21.6323 140.662 21.7147ZM18.9922 43.756C19.0291 44.1974 19.0269 44.6507 18.9857 45.116C18.6441 48.9715 15.7273 51.2001 12.1321 51.872C9.70601 52.3253 7.25067 52.2397 4.76604 51.615C3.24229 51.2332 1.83621 50.602 0.547807 49.7214C0.523283 49.7049 0.503189 49.6826 0.489291 49.6565C0.475392 49.6304 0.468114 49.6013 0.468095 49.5717L0.459962 43.9138C0.459891 43.8987 0.464203 43.8839 0.472375 43.8712C0.480547 43.8585 0.492228 43.8484 0.506003 43.8422C0.519777 43.836 0.535053 43.834 0.54998 43.8363C0.564908 43.8386 0.578845 43.8452 0.590104 43.8552C3.34152 46.2672 6.55332 47.2796 10.2255 46.8924C10.5433 46.8588 10.9792 46.7238 11.5334 46.4874C12.6624 46.0058 13.1391 45.1832 12.9634 44.0196C12.8365 43.1753 11.797 42.5538 11.0584 42.2773C9.82856 41.8153 8.46749 41.3755 6.9752 40.958C5.68571 40.5957 4.51822 40.111 3.47275 39.5036C1.28962 38.2364 0.271256 36.333 0.404651 33.8018C0.648668 29.2191 4.66192 26.9661 8.79393 26.7042C11.0519 26.561 13.1998 26.8359 15.2376 27.5289C16.0477 27.8033 16.7857 28.1536 17.4516 28.5798C17.4761 28.5953 17.4962 28.6168 17.5102 28.6424C17.5241 28.668 17.5314 28.6968 17.5313 28.7262V33.9547C17.5315 33.9627 17.5295 33.9706 17.5254 33.9776C17.5214 33.9845 17.5156 33.9903 17.5085 33.9941C17.5015 33.998 17.4935 33.9998 17.4855 33.9995C17.4775 33.9991 17.4697 33.9966 17.463 33.9921C15.1259 32.4467 12.561 31.7141 9.76837 31.7943C9.22937 31.8095 8.78526 31.8627 8.43604 31.9538C7.74792 32.1343 6.9329 32.5069 6.60917 33.182C5.99751 34.4557 6.64334 35.4318 7.8016 35.9703C8.48918 36.2891 9.21527 36.5494 9.97985 36.7511C11.2227 37.0786 12.3669 37.4094 13.4124 37.7435C14.5934 38.1209 15.6367 38.6398 16.5423 39.3003C18.0183 40.3761 18.8349 41.8614 18.9922 43.756ZM60.4571 27.2895C60.2456 28.5356 60.0574 29.7736 59.8926 31.0034C59.8817 31.0859 59.8535 31.0924 59.808 31.023C57.8949 28.0964 54.861 26.5656 51.3992 26.673C49.267 26.738 47.3073 27.4842 45.52 28.9114C42.0615 31.672 40.5779 36.0578 40.8609 40.4485C41.0008 42.6251 41.5691 44.6044 42.5658 46.3862C44.8839 50.5296 49.408 53.0593 54.1582 51.8473C56.5214 51.2432 58.4068 49.8735 59.8145 47.7381C59.8492 47.686 59.8714 47.6909 59.8812 47.7527L60.4392 51.439C60.4479 51.4976 60.482 51.5268 60.5417 51.5268L65.5798 51.5285C65.5945 51.5285 65.6085 51.5225 65.6189 51.5118C65.6293 51.5011 65.6351 51.4866 65.6351 51.4715L65.6432 27.3611C65.6432 27.324 65.6285 27.2884 65.6023 27.2622C65.576 27.2359 65.5404 27.2212 65.5033 27.2212L60.5221 27.2358C60.4853 27.2358 60.4636 27.2537 60.4571 27.2895ZM51.0787 46.069C48.619 45.0816 47.316 42.7276 47.0703 40.1882C46.6555 35.8887 49.504 31.7274 54.2119 32.3228C55.8408 32.5277 57.1694 33.3384 58.1975 34.7548C59.9479 37.1657 60.0032 40.8975 58.5472 43.4743C57.0506 46.1194 53.9028 47.2029 51.0787 46.069ZM210.109 47.7446C210.099 47.6795 210.077 47.6752 210.041 47.7316C208.825 49.6327 207.181 50.9325 205.108 51.631C201.324 52.9031 197.445 51.7627 194.704 48.9289C191.538 45.6574 190.528 41.0016 191.331 36.5394C192.328 31.0002 196.818 26.2581 202.782 26.6957C205.798 26.9186 208.456 28.495 210.064 31.062C210.086 31.0978 210.101 31.0951 210.107 31.0539L210.68 27.3253C210.689 27.2667 210.722 27.2375 210.781 27.2375L215.829 27.2196C215.848 27.2196 215.866 27.2273 215.879 27.241C215.893 27.2547 215.9 27.2734 215.9 27.2928L215.897 51.426C215.897 51.4943 215.864 51.5285 215.796 51.5285L210.781 51.5268C210.725 51.5268 210.691 51.4986 210.682 51.4423L210.109 47.7446ZM204.635 46.4237C211.894 45.1108 211.45 32.6286 203.872 32.2707C203.184 32.2382 202.532 32.3119 201.915 32.4919C201.15 32.7154 200.523 33.0125 200.033 33.3834C198.516 34.5341 197.626 36.1609 197.363 38.2638C197.215 39.4589 197.288 40.6003 197.583 41.6881C197.91 42.8963 198.504 43.9298 199.364 44.7887C200.719 46.1406 202.732 46.7669 204.635 46.4237ZM101.811 27.2261H107.83C107.862 27.2261 107.887 27.2516 107.887 27.283V51.4699C107.887 51.5014 107.862 51.5269 107.83 51.5269H101.811C101.78 51.5269 101.754 51.5014 101.754 51.4699V27.283C101.754 27.2516 101.78 27.2261 101.811 27.2261ZM132.94 27.2293H126.878C126.854 27.2293 126.834 27.249 126.834 27.2732V51.4829C126.834 51.5072 126.854 51.5268 126.878 51.5268H132.94C132.964 51.5268 132.984 51.5072 132.984 51.4829V27.2732C132.984 27.249 132.964 27.2293 132.94 27.2293ZM173.367 27.2751L167.732 43.8909C167.728 43.9017 167.721 43.9109 167.711 43.9175C167.702 43.9241 167.691 43.9276 167.679 43.9276C167.668 43.9276 167.657 43.9241 167.648 43.9175C167.638 43.9109 167.631 43.9017 167.627 43.8909L162.031 27.2686C162.028 27.2577 162.021 27.2482 162.011 27.2415C162.002 27.2348 161.991 27.2312 161.979 27.2311L155.436 27.2376C155.427 27.2376 155.419 27.2397 155.411 27.2439C155.403 27.248 155.396 27.254 155.391 27.2614C155.386 27.2687 155.382 27.2772 155.381 27.2861C155.38 27.295 155.381 27.3041 155.384 27.3125L164.473 50.7136C164.479 50.7272 164.479 50.7424 164.473 50.7559L160.349 60.7102C160.348 60.7136 160.347 60.7172 160.346 60.7208C160.345 60.726 160.345 60.7313 160.345 60.7366C160.346 60.742 160.347 60.7473 160.349 60.7523C160.35 60.7542 160.351 60.7561 160.352 60.7579C160.353 60.7592 160.353 60.7605 160.354 60.7618C160.355 60.7635 160.357 60.7652 160.358 60.7667C160.359 60.7677 160.36 60.7687 160.36 60.7697C160.362 60.771 160.363 60.7722 160.364 60.7734C160.367 60.7759 160.37 60.778 160.374 60.7799C160.378 60.7822 160.383 60.784 160.387 60.7851C160.391 60.7861 160.396 60.7866 160.4 60.7866L166.513 60.7753C166.524 60.775 166.535 60.7714 166.544 60.7651C166.553 60.7587 166.56 60.7498 166.564 60.7395L179.723 27.3011C179.726 27.2926 179.727 27.2834 179.726 27.2743C179.725 27.2651 179.722 27.2564 179.717 27.2488C179.712 27.2412 179.705 27.235 179.697 27.2308C179.689 27.2266 179.68 27.2245 179.67 27.2246L173.419 27.2376C173.407 27.2377 173.396 27.2413 173.387 27.248C173.377 27.2547 173.37 27.2642 173.367 27.2751ZM228.324 27.2196H222.282C222.239 27.2196 222.204 27.2546 222.204 27.2977V51.4488C222.204 51.492 222.239 51.5269 222.282 51.5269H228.324C228.367 51.5269 228.402 51.492 228.402 51.4488V27.2977C228.402 27.2546 228.367 27.2196 228.324 27.2196ZM187.022 48.1807C187.022 50.1429 185.431 51.7336 183.469 51.7336C181.507 51.7336 179.916 50.1429 179.916 48.1807C179.916 46.2185 181.507 44.6279 183.469 44.6279C185.431 44.6279 187.022 46.2185 187.022 48.1807Z" fill="black"/>
</svg>
