<svg width="24" height="24" viewBox="0 0 24 24" fill="none" xmlns="http://www.w3.org/2000/svg">
<path d="M3.22615 10.9053C3.22615 10.9053 12.0717 7.17973 15.1395 5.86786C16.3155 5.34315 20.3036 3.66398 20.3036 3.66398C20.3036 3.66398 22.1443 2.92938 21.9909 4.71345C21.9398 5.44809 21.5307 8.01927 21.1217 10.8004C20.5081 14.7359 19.8434 19.0387 19.8434 19.0387C19.8434 19.0387 19.7412 20.2457 18.872 20.4555C18.0028 20.6654 16.5711 19.721 16.3155 19.511C16.1109 19.3536 12.4807 16.9923 11.1513 15.8379C10.7934 15.523 10.3844 14.8934 11.2024 14.1587C13.0431 12.4271 15.2417 10.2757 16.5711 8.91138C17.1847 8.28168 17.7982 6.81239 15.2417 8.5965C11.6115 11.1677 8.03241 13.5815 8.03241 13.5815C8.03241 13.5815 7.21429 14.1062 5.68042 13.6339C4.14646 13.1617 2.35689 12.532 2.35689 12.532C2.35689 12.532 1.12987 11.7449 3.22615 10.9053Z" fill="black"/>
</svg>
